<svg width="316" height="121" viewBox="0 0 316 121" fill="none" xmlns="http://www.w3.org/2000/svg">
<mask id="path-1-inside-1_303:5" fill="white">
<rect width="316" height="121" rx="6"/>
</mask>
<rect width="316" height="121" rx="6" stroke="#EF4444" stroke-width="16" mask="url(#path-1-inside-1_303:5)"/>
<path d="M81.0938 72.9766C78.9375 72.9766 76.6484 72.75 74.2266 72.2969L73.4531 72.1562V71.3594V67.0469V65.8984L74.5781 66.1328C76.7031 66.5703 78.9141 66.7891 81.2109 66.7891C82.1797 66.7891 83.0391 66.75 83.7891 66.6719C84.5547 66.5781 85.1719 66.4609 85.6406 66.3203C86.125 66.1641 86.5156 65.9766 86.8125 65.7578C87.125 65.5391 87.3438 65.3203 87.4688 65.1016C87.5938 64.8672 87.6562 64.6172 87.6562 64.3516C87.6562 63.9922 87.4766 63.2656 87.1172 62.1719C86.7578 61.0781 86.25 59.7422 85.5938 58.1641L82.6172 51.1328L82.2656 50.2891L83.0859 49.9141L86.9531 48.1328L87.8438 47.7109L88.2188 48.6484L92.8594 60.4141C93.7188 62.6016 94.5625 64.2188 95.3906 65.2656C96.2188 66.2969 96.9297 66.8125 97.5234 66.8125H97.9922C98.1797 66.8125 98.3438 66.8438 98.4844 66.9062C98.6406 66.9688 98.7656 67.0391 98.8594 67.1172C98.9688 67.1953 99.0547 67.3203 99.1172 67.4922C99.1953 67.6484 99.25 67.7812 99.2812 67.8906C99.3125 67.9844 99.3359 68.1406 99.3516 68.3594C99.3828 68.5625 99.3984 68.7031 99.3984 68.7812C99.3984 68.8594 99.3984 69.0078 99.3984 69.2266C99.3984 69.4297 99.3984 69.5391 99.3984 69.5547V69.9766C99.3984 70.5547 99.3672 71 99.3047 71.3125C99.2578 71.7188 99.1797 72.0312 99.0703 72.25V72.2734L99.0469 72.2969C98.7969 72.7656 98.4453 73 97.9922 73H97.5234C94.9609 73 92.875 71.9297 91.2656 69.7891C88.9688 71.9141 85.5781 72.9766 81.0938 72.9766ZM111.352 49.1875L114.68 45.8594L115.031 45.5078L115.383 45.8594L118.758 49.2109L118.852 49.3047L118.969 49.1875L122.32 45.8594L122.672 45.5078L123.023 45.8594L126.375 49.2109L126.727 49.5625L126.375 49.9141L123.047 53.2422L122.695 53.5938L122.344 53.2422L118.969 49.8906L118.875 49.7969L118.758 49.9141L115.406 53.2422L115.055 53.5938L114.727 53.2422L111.352 49.8906L111 49.5391L111.352 49.1875ZM115.125 42.9062L118.453 39.5547L118.805 39.2031L119.156 39.5547L122.508 42.9297L122.859 43.2812L122.508 43.6328L119.18 46.9609L118.828 47.3125L118.477 46.9609L115.125 43.6094L114.773 43.2578L115.125 42.9062ZM116.555 64.1172C116.633 63.7266 116.672 63.2422 116.672 62.6641C116.672 62.4297 116.664 62.2031 116.648 61.9844C116.648 61.75 116.641 61.5156 116.625 61.2812C116.609 61.0469 116.594 60.8125 116.578 60.5781L116.461 59.1484L116.367 58.2344L117.281 58.1406L121.125 57.6719L122.109 57.5781L122.18 58.5391L122.555 63.9766C122.57 64.2734 122.602 64.5469 122.648 64.7969C122.711 65.0312 122.773 65.25 122.836 65.4531C122.914 65.6406 123.008 65.8125 123.117 65.9688C123.242 66.1094 123.375 66.2344 123.516 66.3438C123.656 66.4531 123.812 66.5391 123.984 66.6016C124.172 66.6641 124.375 66.7109 124.594 66.7422C124.812 66.7734 125.047 66.7891 125.297 66.7891C126.156 66.7891 126.797 66.4922 127.219 65.8984C127.641 65.2891 127.852 64.2266 127.852 62.7109C127.852 61.1953 127.523 59.2891 126.867 56.9922L126.586 56.0781L127.523 55.8203L131.531 54.7422L132.398 54.5078L132.656 55.375C133.469 57.9375 133.867 60.3281 133.852 62.5469C133.852 62.5781 133.852 62.6016 133.852 62.6172C133.852 62.6328 133.852 62.6562 133.852 62.6875C133.836 66.5156 132.781 69.3516 130.688 71.1953C129.328 72.3828 127.562 72.9766 125.391 72.9766C124.531 72.9766 123.734 72.8828 123 72.6953C122.281 72.5078 121.625 72.2266 121.031 71.8516C120.438 71.4609 119.93 70.9766 119.508 70.3984C117.836 72.1328 115.664 73 112.992 73C109.977 72.9844 107.805 72.1328 106.477 70.4453C104.883 72.1484 102.391 73 99 73H97.6875C96.9219 73 96.3516 72.7109 95.9766 72.1328C95.5859 71.5547 95.3906 70.8438 95.3906 70V69.5547C95.3906 68.7891 95.5938 68.1406 96 67.6094C96.3906 67.0781 96.9531 66.8125 97.6875 66.8125H99.0469C100.5 66.8125 101.586 66.5938 102.305 66.1562C103.023 65.7031 103.477 65.0234 103.664 64.1172C103.742 63.7266 103.781 63.2422 103.781 62.6641C103.781 62.4453 103.773 62.2266 103.758 62.0078C103.758 61.7734 103.75 61.5391 103.734 61.3047C103.719 61.0703 103.703 60.8281 103.688 60.5781L103.547 59.1484L103.477 58.2344L104.367 58.1406L108.234 57.6719L109.219 57.5781L109.289 58.5391L109.664 63.9766C109.727 64.9766 110.016 65.7031 110.531 66.1562C111.047 66.5938 111.883 66.8125 113.039 66.8125C114.102 66.8125 114.906 66.6016 115.453 66.1797C116 65.7578 116.367 65.0703 116.555 64.1172ZM173.625 69.7188L173.672 40.2578V39.3203H174.609H178.641H179.578V40.2578L179.555 62.8047C179.555 63.5078 179.633 64.1094 179.789 64.6094C179.961 65.1094 180.219 65.5234 180.562 65.8516C180.922 66.1797 181.375 66.4219 181.922 66.5781C182.469 66.7344 183.148 66.8125 183.961 66.8125H184.43C184.586 66.8125 184.742 66.8281 184.898 66.8594C185.023 66.9062 185.133 66.9766 185.227 67.0703C185.336 67.1641 185.422 67.25 185.484 67.3281C185.562 67.4062 185.617 67.5234 185.648 67.6797C185.695 67.8203 185.734 67.9375 185.766 68.0312C185.797 68.125 185.812 68.2578 185.812 68.4297C185.828 68.6172 185.836 68.7422 185.836 68.8047C185.836 68.8672 185.836 68.9844 185.836 69.1562C185.836 69.3281 185.836 69.4219 185.836 69.4375V70C185.836 70.0312 185.836 70.1719 185.836 70.4219C185.852 70.6875 185.852 70.875 185.836 70.9844C185.836 71.1094 185.82 71.2969 185.789 71.5469C185.773 71.7969 185.734 71.9844 185.672 72.1094C185.609 72.25 185.531 72.3984 185.438 72.5547C185.328 72.7109 185.188 72.8203 185.016 72.8828C184.844 72.9609 184.648 73 184.43 73H183.844C182.016 73 180.492 72.6797 179.273 72.0391C178.82 76.3516 177.336 79.6172 174.82 81.8359C172.289 84.0703 168.82 85.1875 164.414 85.1875C159.664 85.1875 156.062 84 153.609 81.625C151.141 79.25 149.914 75.7734 149.93 71.1953C149.93 69.5078 150.094 67.8438 150.422 66.2031C150.781 64.5 151.289 62.8438 151.945 61.2344L152.297 60.3672L153.188 60.7422L156.891 62.2656L157.734 62.6172L157.406 63.4609C156.406 66.0234 155.906 68.5938 155.906 71.1719C155.906 73.9219 156.594 75.9375 157.969 77.2188C159.328 78.5156 161.484 79.1641 164.438 79.1641C166.016 79.1641 167.375 78.9766 168.516 78.6016C169.656 78.2266 170.609 77.6562 171.375 76.8906C172.125 76.1094 172.688 75.125 173.062 73.9375C173.422 72.7656 173.609 71.3594 173.625 69.7188ZM195.844 73H184.055C183.289 73 182.719 72.7109 182.344 72.1328C181.953 71.5547 181.758 70.8438 181.758 70V69.5547C181.758 68.7734 181.953 68.125 182.344 67.6094C182.75 67.0781 183.32 66.8125 184.055 66.8125H187.453C187.516 66.7344 187.578 66.6406 187.641 66.5312C187.703 66.4219 187.773 66.3047 187.852 66.1797C187.93 66.0547 188.016 65.9219 188.109 65.7812C188.203 65.6406 188.305 65.4844 188.414 65.3125C188.523 65.1562 188.633 64.9844 188.742 64.7969V40.2109V39.2734H189.68H193.734H194.672V40.2109V56.7812C196.156 55.2031 197.68 54.0078 199.242 53.1953C200.789 52.3984 202.375 52 204 52C207.625 51.9844 210.406 53.3594 212.344 56.125C212.859 56.875 213.25 57.6953 213.516 58.5859C213.562 58.7422 213.602 58.8984 213.633 59.0547C213.68 59.2109 213.719 59.3594 213.75 59.5C213.781 59.6562 213.805 59.8125 213.82 59.9688C213.836 60.125 213.852 60.2812 213.867 60.4375C213.883 60.5938 213.898 60.75 213.914 60.9062C213.914 61.0625 213.914 61.2266 213.914 61.3984C213.914 67.0234 210.656 70.6094 204.141 72.1562C201.766 72.7188 199 73 195.844 73ZM194.086 66.7891H195.961C200.086 66.7891 203.086 66.3828 204.961 65.5703C205.617 65.2734 206.156 64.9453 206.578 64.5859C207 64.2109 207.305 63.8047 207.492 63.3672C207.68 62.9141 207.773 62.4141 207.773 61.8672C207.773 60.8203 207.422 59.9766 206.719 59.3359C206.359 59.0078 205.953 58.7656 205.5 58.6094C205.031 58.4375 204.516 58.3516 203.953 58.3516C202.609 58.3672 201.094 59.0703 199.406 60.4609C197.734 61.8516 195.961 63.9609 194.086 66.7891ZM230.133 69.9766C230.148 70.9922 230.109 71.6641 230.016 71.9922C229.781 72.6641 229.352 73 228.727 73H228.234C224.953 73 222.461 72.0469 220.758 70.1406C219.055 68.2188 218.203 65.4688 218.203 61.8906V40.2344V39.2969H219.141H223.219H224.156V40.2344V61.8438C224.156 63.6094 224.484 64.8828 225.141 65.6641C225.812 66.4297 226.867 66.8125 228.305 66.8125H228.727C228.914 66.8125 229.078 66.8438 229.219 66.9062C229.375 66.9688 229.508 67.0391 229.617 67.1172C229.711 67.1953 229.789 67.3203 229.852 67.4922C229.93 67.6484 229.984 67.7812 230.016 67.8906C230.047 67.9844 230.07 68.1406 230.086 68.3594C230.117 68.5625 230.133 68.7031 230.133 68.7812C230.133 68.8594 230.133 69.0078 230.133 69.2266C230.133 69.4297 230.133 69.5391 230.133 69.5547V69.9766ZM230.203 73H228.422C227.656 73 227.086 72.7109 226.711 72.1328C226.32 71.5547 226.125 70.8438 226.125 70V69.5547C226.125 68.7891 226.328 68.1406 226.734 67.6094C227.125 67.0781 227.688 66.8125 228.422 66.8125H230.203C232.531 66.8125 234.07 66.6016 234.82 66.1797C235.836 65.5859 236.344 64.2266 236.344 62.1016C236.344 60.3203 236.07 58.3281 235.523 56.125L235.289 55.2109L236.203 55L240.023 54.0391L240.867 53.8047L241.148 54.6484C241.93 57.1797 242.32 59.6406 242.32 62.0312C242.305 66.1719 241.086 69.1641 238.664 71.0078C238.195 71.3516 237.664 71.6562 237.07 71.9219C236.492 72.1719 235.844 72.375 235.125 72.5312C234.422 72.6875 233.664 72.8047 232.852 72.8828C232.039 72.9609 231.156 73 230.203 73ZM231.094 80.0781L234.516 76.6562L234.867 76.3047L235.219 76.6562L238.641 80.1016L238.992 80.4531L238.641 80.8047L235.242 84.2031L234.891 84.5547L234.539 84.2031L231.094 80.7812L230.742 80.4297L231.094 80.0781Z" fill="#EF4444"/>
</svg>
