<svg width="316" height="121" viewBox="0 0 316 121" fill="none" xmlns="http://www.w3.org/2000/svg">
<mask id="path-1-inside-1_303:5" fill="white">
<rect width="316" height="121" rx="6"/>
</mask>
<rect width="316" height="121" rx="6" stroke="black" stroke-width="16" mask="url(#path-1-inside-1_303:5)"/>
<path d="M71.6094 75.9727C69.0938 75.9727 66.4232 75.7083 63.5977 75.1797L62.6953 75.0156V74.0859V69.0547V67.7148L64.0078 67.9883C66.487 68.4987 69.0664 68.7539 71.7461 68.7539C72.8763 68.7539 73.8789 68.7083 74.7539 68.6172C75.6471 68.5078 76.3672 68.3711 76.9141 68.207C77.4792 68.0247 77.9349 67.806 78.2812 67.5508C78.6458 67.2956 78.901 67.0404 79.0469 66.7852C79.1927 66.5117 79.2656 66.2201 79.2656 65.9102C79.2656 65.4909 79.056 64.6432 78.6367 63.3672C78.2174 62.0911 77.625 60.5326 76.8594 58.6914L73.3867 50.4883L72.9766 49.5039L73.9336 49.0664L78.4453 46.9883L79.4844 46.4961L79.9219 47.5898L85.3359 61.3164C86.3385 63.8685 87.3229 65.7552 88.2891 66.9766C89.2552 68.1797 90.0846 68.7812 90.7773 68.7812H91.3242C91.543 68.7812 91.7344 68.8177 91.8984 68.8906C92.0807 68.9635 92.2266 69.0456 92.3359 69.1367C92.4635 69.2279 92.5638 69.3737 92.6367 69.5742C92.7279 69.7565 92.7917 69.9115 92.8281 70.0391C92.8646 70.1484 92.8919 70.3307 92.9102 70.5859C92.9466 70.8229 92.9648 70.987 92.9648 71.0781C92.9648 71.1693 92.9648 71.3424 92.9648 71.5977C92.9648 71.8346 92.9648 71.9622 92.9648 71.9805V72.4727C92.9648 73.1471 92.9284 73.6667 92.8555 74.0312C92.8008 74.5052 92.7096 74.8698 92.582 75.125V75.1523L92.5547 75.1797C92.263 75.7266 91.8529 76 91.3242 76H90.7773C87.7878 76 85.3542 74.7513 83.4766 72.2539C80.7969 74.7331 76.8411 75.9727 71.6094 75.9727ZM106.91 48.2188L110.793 44.3359L111.203 43.9258L111.613 44.3359L115.551 48.2461L115.66 48.3555L115.797 48.2188L119.707 44.3359L120.117 43.9258L120.527 44.3359L124.438 48.2461L124.848 48.6562L124.438 49.0664L120.555 52.9492L120.145 53.3594L119.734 52.9492L115.797 49.0391L115.688 48.9297L115.551 49.0664L111.641 52.9492L111.23 53.3594L110.848 52.9492L106.91 49.0391L106.5 48.6289L106.91 48.2188ZM111.312 40.8906L115.195 36.9805L115.605 36.5703L116.016 36.9805L119.926 40.918L120.336 41.3281L119.926 41.7383L116.043 45.6211L115.633 46.0312L115.223 45.6211L111.312 41.7109L110.902 41.3008L111.312 40.8906ZM112.98 65.6367C113.072 65.181 113.117 64.6159 113.117 63.9414C113.117 63.668 113.108 63.4036 113.09 63.1484C113.09 62.875 113.081 62.6016 113.062 62.3281C113.044 62.0547 113.026 61.7812 113.008 61.5078L112.871 59.8398L112.762 58.7734L113.828 58.6641L118.312 58.1172L119.461 58.0078L119.543 59.1289L119.98 65.4727C119.999 65.819 120.035 66.138 120.09 66.4297C120.163 66.7031 120.236 66.9583 120.309 67.1953C120.4 67.4141 120.509 67.6146 120.637 67.7969C120.783 67.9609 120.938 68.1068 121.102 68.2344C121.266 68.362 121.448 68.4622 121.648 68.5352C121.867 68.6081 122.104 68.6628 122.359 68.6992C122.615 68.7357 122.888 68.7539 123.18 68.7539C124.182 68.7539 124.93 68.4076 125.422 67.7148C125.914 67.0039 126.16 65.7643 126.16 63.9961C126.16 62.2279 125.777 60.0039 125.012 57.3242L124.684 56.2578L125.777 55.957L130.453 54.6992L131.465 54.4258L131.766 55.4375C132.714 58.4271 133.178 61.2161 133.16 63.8047C133.16 63.8411 133.16 63.8685 133.16 63.8867C133.16 63.9049 133.16 63.9323 133.16 63.9688C133.142 68.4349 131.911 71.7435 129.469 73.8945C127.883 75.2799 125.823 75.9727 123.289 75.9727C122.286 75.9727 121.357 75.8633 120.5 75.6445C119.661 75.4258 118.896 75.0977 118.203 74.6602C117.51 74.2044 116.918 73.6393 116.426 72.9648C114.475 74.9883 111.941 76 108.824 76C105.306 75.9818 102.772 74.9883 101.223 73.0195C99.3633 75.0065 96.4557 76 92.5 76H90.9688C90.0755 76 89.4102 75.6628 88.9727 74.9883C88.5169 74.3138 88.2891 73.4844 88.2891 72.5V71.9805C88.2891 71.0872 88.526 70.3307 89 69.7109C89.4557 69.0911 90.112 68.7812 90.9688 68.7812H92.5547C94.25 68.7812 95.5169 68.526 96.3555 68.0156C97.194 67.487 97.7227 66.694 97.9414 65.6367C98.0326 65.181 98.0781 64.6159 98.0781 63.9414C98.0781 63.6862 98.069 63.431 98.0508 63.1758C98.0508 62.9023 98.0417 62.6289 98.0234 62.3555C98.0052 62.082 97.987 61.7995 97.9688 61.5078L97.8047 59.8398L97.7227 58.7734L98.7617 58.6641L103.273 58.1172L104.422 58.0078L104.504 59.1289L104.941 65.4727C105.014 66.6393 105.352 67.487 105.953 68.0156C106.555 68.526 107.53 68.7812 108.879 68.7812C110.118 68.7812 111.057 68.5352 111.695 68.043C112.333 67.5508 112.762 66.7487 112.98 65.6367ZM160.805 75.9727C158.289 75.9727 155.618 75.7083 152.793 75.1797L151.891 75.0156V74.0859V69.0547V67.7148L153.203 67.9883C155.682 68.4987 158.262 68.7539 160.941 68.7539C162.072 68.7539 163.074 68.7083 163.949 68.6172C164.842 68.5078 165.562 68.3711 166.109 68.207C166.674 68.0247 167.13 67.806 167.477 67.5508C167.841 67.2956 168.096 67.0404 168.242 66.7852C168.388 66.5117 168.461 66.2201 168.461 65.9102C168.461 65.4909 168.251 64.6432 167.832 63.3672C167.413 62.0911 166.82 60.5326 166.055 58.6914L162.582 50.4883L162.172 49.5039L163.129 49.0664L167.641 46.9883L168.68 46.4961L169.117 47.5898L174.531 61.3164C175.534 63.8685 176.518 65.7552 177.484 66.9766C178.451 68.1797 179.28 68.7812 179.973 68.7812H180.52C180.738 68.7812 180.93 68.8177 181.094 68.8906C181.276 68.9635 181.422 69.0456 181.531 69.1367C181.659 69.2279 181.759 69.3737 181.832 69.5742C181.923 69.7565 181.987 69.9115 182.023 70.0391C182.06 70.1484 182.087 70.3307 182.105 70.5859C182.142 70.8229 182.16 70.987 182.16 71.0781C182.16 71.1693 182.16 71.3424 182.16 71.5977C182.16 71.8346 182.16 71.9622 182.16 71.9805V72.4727C182.16 73.1471 182.124 73.6667 182.051 74.0312C181.996 74.5052 181.905 74.8698 181.777 75.125V75.1523L181.75 75.1797C181.458 75.7266 181.048 76 180.52 76H179.973C176.983 76 174.549 74.7513 172.672 72.2539C169.992 74.7331 166.036 75.9727 160.805 75.9727ZM179.344 84.2578L183.309 80.2656L183.719 79.8555L184.129 80.2656L188.148 84.2852L188.176 84.3125L188.23 84.2578L192.223 80.2656L192.633 79.8555L193.043 80.2656L197.035 84.2852L197.445 84.6953L197.035 85.1055L193.07 89.0703L192.66 89.4805L192.25 89.0703L188.23 85.0781L188.203 85.0508L188.148 85.1055L184.156 89.0703L183.746 89.4805L183.363 89.0703L179.344 85.0781L178.934 84.668L179.344 84.2578ZM201.82 72.5C201.82 72.5547 201.82 72.7005 201.82 72.9375C201.82 73.1745 201.82 73.3659 201.82 73.5117C201.82 73.6393 201.811 73.8216 201.793 74.0586C201.775 74.2956 201.747 74.4961 201.711 74.6602C201.674 74.806 201.611 74.9792 201.52 75.1797C201.447 75.362 201.346 75.5078 201.219 75.6172C201.109 75.7266 200.964 75.8177 200.781 75.8906C200.599 75.9635 200.398 76 200.18 76H199.906C196.534 76 194.009 74.9609 192.332 72.8828C190.236 74.9609 187.118 76 182.98 76H180.137C179.243 76 178.578 75.6628 178.141 74.9883C177.703 74.2956 177.484 73.4661 177.484 72.5V71.9805C177.484 71.3971 177.576 70.8776 177.758 70.4219C177.94 69.9479 178.241 69.556 178.66 69.2461C179.061 68.9362 179.553 68.7812 180.137 68.7812H182.844C186.453 68.7812 188.422 67.8789 188.75 66.0742C188.859 65.4909 188.914 64.7982 188.914 63.9961C188.914 63.1029 188.887 62.2643 188.832 61.4805L188.695 59.2383L188.613 58.1992L189.652 58.0898L194.164 57.543L195.285 57.4336L195.367 58.5547L195.805 64.8984C195.914 66.2839 196.288 67.2773 196.926 67.8789C197.564 68.4805 198.576 68.7812 199.961 68.7812H200.18C200.435 68.7812 200.663 68.8268 200.863 68.918C201.064 68.9909 201.219 69.1185 201.328 69.3008C201.438 69.4831 201.529 69.6562 201.602 69.8203C201.693 69.9661 201.747 70.1849 201.766 70.4766C201.802 70.75 201.82 70.9505 201.82 71.0781C201.82 71.2057 201.82 71.4245 201.82 71.7344C201.82 72.026 201.82 72.1901 201.82 72.2266V72.5ZM201.875 76H199.797C198.904 76 198.238 75.6628 197.801 74.9883C197.345 74.3138 197.117 73.4844 197.117 72.5V71.9805C197.117 71.0872 197.354 70.3307 197.828 69.7109C198.284 69.0911 198.94 68.7812 199.797 68.7812H201.875C204.591 68.7812 206.387 68.5352 207.262 68.043C208.447 67.3503 209.039 65.7643 209.039 63.2852C209.039 61.207 208.72 58.8828 208.082 56.3125L207.809 55.2461L208.875 55L213.332 53.8789L214.316 53.6055L214.645 54.5898C215.556 57.543 216.012 60.4141 216.012 63.2031C215.993 68.0339 214.572 71.5247 211.746 73.6758C211.199 74.0768 210.579 74.4323 209.887 74.7422C209.212 75.0339 208.456 75.2708 207.617 75.4531C206.797 75.6354 205.913 75.7721 204.965 75.8633C204.017 75.9544 202.987 76 201.875 76ZM198.977 84.2578L202.941 80.2656L203.352 79.8555L203.762 80.2656L207.781 84.2852L207.809 84.3125L207.863 84.2578L211.855 80.2656L212.266 79.8555L212.676 80.2656L216.668 84.2852L217.078 84.6953L216.668 85.1055L212.703 89.0703L212.293 89.4805L211.883 89.0703L207.863 85.0781L207.836 85.0508L207.781 85.1055L203.789 89.0703L203.379 89.4805L202.996 89.0703L198.977 85.0781L198.566 84.668L198.977 84.2578ZM235.809 72.4727C235.827 73.6576 235.781 74.4414 235.672 74.8242C235.398 75.6081 234.897 76 234.168 76H233.594C229.766 76 226.858 74.888 224.871 72.6641C222.884 70.4219 221.891 67.2135 221.891 63.0391V37.7734V36.6797H222.984H227.742H228.836V37.7734V62.9844C228.836 65.0443 229.219 66.5299 229.984 67.4414C230.768 68.3346 231.999 68.7812 233.676 68.7812H234.168C234.387 68.7812 234.578 68.8177 234.742 68.8906C234.924 68.9635 235.079 69.0456 235.207 69.1367C235.316 69.2279 235.408 69.3737 235.48 69.5742C235.572 69.7565 235.635 69.9115 235.672 70.0391C235.708 70.1484 235.736 70.3307 235.754 70.5859C235.79 70.8229 235.809 70.987 235.809 71.0781C235.809 71.1693 235.809 71.3424 235.809 71.5977C235.809 71.8346 235.809 71.9622 235.809 71.9805V72.4727ZM235.891 76H233.812C232.919 76 232.254 75.6628 231.816 74.9883C231.361 74.3138 231.133 73.4844 231.133 72.5V71.9805C231.133 71.0872 231.37 70.3307 231.844 69.7109C232.299 69.0911 232.956 68.7812 233.812 68.7812H235.891C238.607 68.7812 240.402 68.5352 241.277 68.043C242.462 67.3503 243.055 65.7643 243.055 63.2852C243.055 61.207 242.736 58.8828 242.098 56.3125L241.824 55.2461L242.891 55L247.348 53.8789L248.332 53.6055L248.66 54.5898C249.572 57.543 250.027 60.4141 250.027 63.2031C250.009 68.0339 248.587 71.5247 245.762 73.6758C245.215 74.0768 244.595 74.4323 243.902 74.7422C243.228 75.0339 242.471 75.2708 241.633 75.4531C240.812 75.6354 239.928 75.7721 238.98 75.8633C238.033 75.9544 237.003 76 235.891 76ZM233.43 45.375L237.395 41.3828L237.805 40.9727L238.215 41.3828L242.234 45.4023L242.262 45.4297L242.316 45.375L246.309 41.3828L246.719 40.9727L247.129 41.3828L251.121 45.4023L251.531 45.8125L251.121 46.2227L247.156 50.1875L246.746 50.5977L246.336 50.1875L242.316 46.1953L242.289 46.168L242.234 46.2227L238.242 50.1875L237.832 50.5977L237.449 50.1875L233.43 46.1953L233.02 45.7852L233.43 45.375Z" fill="black"/>
</svg>
