<svg width="316" height="121" viewBox="0 0 316 121" fill="none" xmlns="http://www.w3.org/2000/svg">
<mask id="path-1-inside-1_303:5" fill="white">
<rect width="316" height="121" rx="6"/>
</mask>
<rect width="316" height="121" rx="6" stroke="#EF4444" stroke-width="16" mask="url(#path-1-inside-1_303:5)"/>
<path d="M36.6758 59.9219C38.2617 63.5495 39.0547 67.0495 39.0547 70.4219C39.0547 76 37.3503 80.3841 33.9414 83.5742C30.5326 86.7643 25.5378 88.7057 18.957 89.3984L18 89.5078L17.7812 88.5781L16.6055 83.9297L16.3047 82.6992L17.5625 82.5625C22.5391 82.0703 26.2031 80.8398 28.5547 78.8711C30.9062 76.9206 32.0729 74.2135 32.0547 70.75C32.0547 68.125 31.3802 65.3633 30.0312 62.4648L29.5117 61.3711L30.6602 60.9609L35.3086 59.3477L36.2656 58.9922L36.6758 59.9219ZM57.7852 72.4727C57.8034 73.6576 57.7578 74.4414 57.6484 74.8242C57.375 75.6081 56.8737 76 56.1445 76H55.5703C51.7422 76 48.8346 74.888 46.8477 72.6641C44.8607 70.4219 43.8672 67.2135 43.8672 63.0391V37.7734V36.6797H44.9609H49.7188H50.8125V37.7734V62.9844C50.8125 65.0443 51.1953 66.5299 51.9609 67.4414C52.7448 68.3346 53.9753 68.7812 55.6523 68.7812H56.1445C56.3633 68.7812 56.5547 68.8177 56.7188 68.8906C56.901 68.9635 57.056 69.0456 57.1836 69.1367C57.293 69.2279 57.3841 69.3737 57.457 69.5742C57.5482 69.7565 57.612 69.9115 57.6484 70.0391C57.6849 70.1484 57.7122 70.3307 57.7305 70.5859C57.7669 70.8229 57.7852 70.987 57.7852 71.0781C57.7852 71.1693 57.7852 71.3424 57.7852 71.5977C57.7852 71.8346 57.7852 71.9622 57.7852 71.9805V72.4727ZM77.4453 72.5C77.4453 72.5547 77.4453 72.7005 77.4453 72.9375C77.4453 73.1745 77.4453 73.3659 77.4453 73.5117C77.4453 73.6393 77.4362 73.8216 77.418 74.0586C77.3997 74.2956 77.3724 74.4961 77.3359 74.6602C77.2995 74.806 77.2357 74.9792 77.1445 75.1797C77.0716 75.362 76.9714 75.5078 76.8438 75.6172C76.7344 75.7266 76.5885 75.8177 76.4062 75.8906C76.224 75.9635 76.0234 76 75.8047 76H75.5312C72.1589 76 69.6341 74.9609 67.957 72.8828C65.8607 74.9609 62.7435 76 58.6055 76H55.7617C54.8685 76 54.2031 75.6628 53.7656 74.9883C53.3281 74.2956 53.1094 73.4661 53.1094 72.5V71.9805C53.1094 71.3971 53.2005 70.8776 53.3828 70.4219C53.5651 69.9479 53.8659 69.556 54.2852 69.2461C54.6862 68.9362 55.1784 68.7812 55.7617 68.7812H58.4688C62.0781 68.7812 64.0469 67.8789 64.375 66.0742C64.4844 65.4909 64.5391 64.7982 64.5391 63.9961C64.5391 63.1029 64.5117 62.2643 64.457 61.4805L64.3203 59.2383L64.2383 58.1992L65.2773 58.0898L69.7891 57.543L70.9102 57.4336L70.9922 58.5547L71.4297 64.8984C71.5391 66.2839 71.9128 67.2773 72.5508 67.8789C73.1888 68.4805 74.2005 68.7812 75.5859 68.7812H75.8047C76.0599 68.7812 76.2878 68.8268 76.4883 68.918C76.6888 68.9909 76.8438 69.1185 76.9531 69.3008C77.0625 69.4831 77.1536 69.6562 77.2266 69.8203C77.3177 69.9661 77.3724 70.1849 77.3906 70.4766C77.4271 70.75 77.4453 70.9505 77.4453 71.0781C77.4453 71.2057 77.4453 71.4245 77.4453 71.7344C77.4453 72.026 77.4453 72.1901 77.4453 72.2266V72.5ZM59.9727 84.2578L63.9648 80.2656L64.375 79.8555L64.7852 80.2656L68.7773 84.2852L69.1875 84.6953L68.7773 85.1055L64.8125 89.0703L64.4023 89.4805L63.9922 89.0703L59.9727 85.0781L59.5625 84.668L59.9727 84.2578ZM77.5 76H75.4219C74.5286 76 73.8633 75.6628 73.4258 74.9883C72.9701 74.3138 72.7422 73.4844 72.7422 72.5V71.9805C72.7422 71.0872 72.9792 70.3307 73.4531 69.7109C73.9089 69.0911 74.5651 68.7812 75.4219 68.7812H77.5C80.2161 68.7812 82.0117 68.5352 82.8867 68.043C84.0716 67.3503 84.6641 65.7643 84.6641 63.2852C84.6641 61.207 84.3451 58.8828 83.707 56.3125L83.4336 55.2461L84.5 55L88.957 53.8789L89.9414 53.6055L90.2695 54.5898C91.181 57.543 91.6367 60.4141 91.6367 63.2031C91.6185 68.0339 90.1966 71.5247 87.3711 73.6758C86.8242 74.0768 86.2044 74.4323 85.5117 74.7422C84.8372 75.0339 84.0807 75.2708 83.2422 75.4531C82.4219 75.6354 81.5378 75.7721 80.5898 75.8633C79.6419 75.9544 78.612 76 77.5 76ZM80.0977 45.3477L84.0898 41.3555L84.5 40.9453L84.9102 41.3555L88.9023 45.375L89.3125 45.7852L88.9023 46.1953L84.9375 50.1602L84.5273 50.5703L84.1172 50.1602L80.0977 46.168L79.6875 45.7578L80.0977 45.3477ZM97.6523 36.6797H102.383H103.477V37.7734V74.8789V75.9727H102.383H97.6523H96.5586V74.8789V37.7734V36.6797H97.6523ZM140.582 59.9219C142.168 63.5495 142.961 67.0495 142.961 70.4219C142.961 76 141.257 80.3841 137.848 83.5742C134.439 86.7643 129.444 88.7057 122.863 89.3984L121.906 89.5078L121.688 88.5781L120.512 83.9297L120.211 82.6992L121.469 82.5625C126.445 82.0703 130.109 80.8398 132.461 78.8711C134.812 76.9206 135.979 74.2135 135.961 70.75C135.961 68.125 135.286 65.3633 133.938 62.4648L133.418 61.3711L134.566 60.9609L139.215 59.3477L140.172 58.9922L140.582 59.9219ZM131.203 49.4492L135.332 45.3203L135.742 44.9102L136.18 45.3203L140.309 49.4766L140.746 49.8867L140.309 50.3242L136.207 54.4258L135.77 54.8633L135.359 54.4258L131.203 50.2969L130.793 49.8594L131.203 49.4492ZM148.895 36.6797H153.625H154.719V37.7734V74.8789V75.9727H153.625H148.895H147.801V74.8789V37.7734V36.6797H148.895ZM175.473 78.8711C175.473 73.7305 176.94 69.4284 179.875 65.9648C182.81 62.5013 187.139 59.9401 192.863 58.2812C189.454 56.8958 187.167 56.2031 186 56.2031C184.286 56.2031 182.874 56.9141 181.762 58.3359L180.996 59.3203L180.449 60.0312L179.656 59.6484L175.445 57.5703L174.379 57.0508L175.008 56.0117L175.445 55.2734C176.685 53.2318 178.198 51.6914 179.984 50.6523C181.771 49.5951 183.785 49.0573 186.027 49.0391C186.538 49.0391 187.066 49.0755 187.613 49.1484C188.16 49.2031 188.716 49.3034 189.281 49.4492C189.846 49.5768 190.43 49.7409 191.031 49.9414C191.633 50.1419 192.243 50.3698 192.863 50.625C193.501 50.8802 194.148 51.1719 194.805 51.5C200.365 54.1979 204.63 55.6107 207.602 55.7383L208.723 55.793L208.641 56.9141L208.285 61.6719L208.203 62.6289L207.246 62.6836C205.678 62.7747 204.238 62.9115 202.926 63.0938C201.632 63.2578 200.474 63.4492 199.453 63.668C193.62 65.0352 189.299 66.9492 186.492 69.4102C183.703 71.8711 182.309 74.8789 182.309 78.4336C182.309 81.4414 183.384 83.6927 185.535 85.1875C187.686 86.6823 191.086 87.4297 195.734 87.4297C199.526 87.4297 203.172 86.5911 206.672 84.9141L207.93 84.3125L208.23 85.6797L209.215 90.5742L209.379 91.4219L208.613 91.7773C204.822 93.6185 200.401 94.5391 195.352 94.5391C188.005 94.5391 182.655 92.7253 179.301 89.0977C176.749 86.3633 175.473 82.9544 175.473 78.8711ZM190.758 76.2734L194.75 72.2812L195.16 71.8711L195.57 72.2812L199.562 76.3008L199.973 76.7109L199.562 77.1211L195.598 81.0859L195.188 81.4961L194.777 81.0859L190.758 77.0938L190.348 76.6836L190.758 76.2734ZM226.578 68.5898C226.451 67.2591 226.259 66.1198 226.004 65.1719C225.749 64.224 225.439 63.4766 225.074 62.9297C224.71 62.3828 224.309 61.9909 223.871 61.7539C223.452 61.4987 222.978 61.3711 222.449 61.3711C222.048 61.3711 221.693 61.444 221.383 61.5898C221.073 61.7357 220.772 62 220.48 62.3828C220.207 62.7656 219.961 63.276 219.742 63.9141C219.451 64.7891 219.305 65.6003 219.305 66.3477C219.305 67.2591 219.615 67.9336 220.234 68.3711C220.854 68.7904 221.975 69 223.598 69C224.546 68.9818 225.539 68.8451 226.578 68.5898ZM223.57 76.0547C220.034 76.0547 217.299 75.2708 215.367 73.7031C213.453 72.1172 212.496 69.8021 212.496 66.7578C212.496 64.388 213.007 62.1367 214.027 60.0039C214.957 58.0534 216.16 56.5677 217.637 55.5469C219.132 54.526 220.845 54.0156 222.777 54.0156C224.181 54.0156 225.457 54.2891 226.605 54.8359C227.754 55.3828 228.757 56.1758 229.613 57.2148C230.488 58.2357 231.208 59.4935 231.773 60.9883C232.94 63.9961 233.514 67.3594 233.496 71.0781C233.46 76.474 231.755 80.7122 228.383 83.793C225.029 86.8737 220.134 88.7422 213.699 89.3984L212.77 89.4805L212.551 88.5781L211.375 83.9297L211.074 82.6992L212.332 82.5625C219.478 81.8333 224.017 79.6003 225.949 75.8633C225.311 75.9362 224.81 75.9818 224.445 76C224.099 76.0365 223.807 76.0547 223.57 76.0547ZM253.812 60.0586L255.344 65.3359C255.708 66.5573 256.219 67.4414 256.875 67.9883C257.531 68.5169 258.406 68.7812 259.5 68.7812H260.266C260.448 68.7812 260.621 68.8086 260.785 68.8633C260.949 68.8997 261.086 68.9727 261.195 69.082C261.305 69.1914 261.396 69.2917 261.469 69.3828C261.56 69.474 261.633 69.6107 261.688 69.793C261.742 69.957 261.779 70.0938 261.797 70.2031C261.833 70.2943 261.852 70.4492 261.852 70.668C261.87 70.8867 261.879 71.0326 261.879 71.1055C261.897 71.1784 261.906 71.3151 261.906 71.5156C261.906 71.7161 261.906 71.8255 261.906 71.8438V72.5C261.906 72.5182 261.906 72.6823 261.906 72.9922C261.924 73.3021 261.924 73.5299 261.906 73.6758C261.906 73.8034 261.888 74.013 261.852 74.3047C261.833 74.5964 261.788 74.8242 261.715 74.9883C261.642 75.1341 261.542 75.2982 261.414 75.4805C261.305 75.6628 261.15 75.7995 260.949 75.8906C260.749 75.9635 260.521 76 260.266 76H259.801C258.051 76 256.656 75.7812 255.617 75.3438C254.76 79.4271 252.673 82.6354 249.355 84.9688C246.056 87.3203 241.626 88.7969 236.066 89.3984L235.109 89.5078L234.891 88.5781L233.715 83.9297L233.414 82.6992L234.672 82.5625C239.648 82.0703 243.312 80.8398 245.664 78.8711C248.016 76.9206 249.182 74.2044 249.164 70.7227C249.164 68.1523 248.48 65.3997 247.113 62.4648L246.594 61.3711L247.742 60.9609L252.391 59.3477L253.484 58.9648L253.812 60.0586ZM270.383 41.5469L274.375 37.5547L274.785 37.1445L275.195 37.5547L279.188 41.5742L279.598 41.9844L279.188 42.3945L275.223 46.3594L274.812 46.7695L274.402 46.3594L270.383 42.3672L269.973 41.957L270.383 41.5469ZM259.828 76C258.935 76 258.27 75.6628 257.832 74.9883C257.376 74.3138 257.148 73.4844 257.148 72.5V71.9805C257.148 71.0872 257.385 70.3307 257.859 69.7109C258.315 69.0911 258.971 68.7812 259.828 68.7812H261.469C267.266 68.7812 274.475 66.5664 283.098 62.1367C282.168 61.7721 280.965 61.2891 279.488 60.6875C276.043 59.3021 273.746 58.6094 272.598 58.6094C270.884 58.6094 269.471 59.3203 268.359 60.7422L267.594 61.7539L267.047 62.4375L266.254 62.0547L262.043 59.9766L260.977 59.457L261.605 58.418L262.043 57.6797C263.283 55.638 264.796 54.0977 266.582 53.0586C268.368 52.0013 270.383 51.4635 272.625 51.4453C275.104 51.4453 278.03 52.2656 281.402 53.9062C286.962 56.6042 291.228 58.0169 294.199 58.1445L295.238 58.1992V59.2656L295.184 63.9961V65.0078L294.199 65.0898C292.23 65.2539 288.493 66.7852 282.988 69.6836C275.022 73.8945 267.74 76 261.141 76H259.828Z" fill="#EF4444"/>
</svg>
