<svg width="316" height="121" viewBox="0 0 316 121" fill="none" xmlns="http://www.w3.org/2000/svg">
<mask id="path-1-inside-1_303:5" fill="white">
<rect width="316" height="121" rx="6"/>
</mask>
<rect width="316" height="121" rx="6" stroke="#4BD927" stroke-width="16" mask="url(#path-1-inside-1_303:5)"/>
<path d="M43.6758 59.9219C45.2617 63.5495 46.0547 67.0495 46.0547 70.4219C46.0547 76 44.3503 80.3841 40.9414 83.5742C37.5326 86.7643 32.5378 88.7057 25.957 89.3984L25 89.5078L24.7812 88.5781L23.6055 83.9297L23.3047 82.6992L24.5625 82.5625C29.5391 82.0703 33.2031 80.8398 35.5547 78.8711C37.9062 76.9206 39.0729 74.2135 39.0547 70.75C39.0547 68.125 38.3802 65.3633 37.0312 62.4648L36.5117 61.3711L37.6602 60.9609L42.3086 59.3477L43.2656 58.9922L43.6758 59.9219ZM64.7852 72.4727C64.8034 73.6576 64.7578 74.4414 64.6484 74.8242C64.375 75.6081 63.8737 76 63.1445 76H62.5703C58.7422 76 55.8346 74.888 53.8477 72.6641C51.8607 70.4219 50.8672 67.2135 50.8672 63.0391V37.7734V36.6797H51.9609H56.7188H57.8125V37.7734V62.9844C57.8125 65.0443 58.1953 66.5299 58.9609 67.4414C59.7448 68.3346 60.9753 68.7812 62.6523 68.7812H63.1445C63.3633 68.7812 63.5547 68.8177 63.7188 68.8906C63.901 68.9635 64.056 69.0456 64.1836 69.1367C64.293 69.2279 64.3841 69.3737 64.457 69.5742C64.5482 69.7565 64.612 69.9115 64.6484 70.0391C64.6849 70.1484 64.7122 70.3307 64.7305 70.5859C64.7669 70.8229 64.7852 70.987 64.7852 71.0781C64.7852 71.1693 64.7852 71.3424 64.7852 71.5977C64.7852 71.8346 64.7852 71.9622 64.7852 71.9805V72.4727ZM84.4453 72.5C84.4453 72.5547 84.4453 72.7005 84.4453 72.9375C84.4453 73.1745 84.4453 73.3659 84.4453 73.5117C84.4453 73.6393 84.4362 73.8216 84.418 74.0586C84.3997 74.2956 84.3724 74.4961 84.3359 74.6602C84.2995 74.806 84.2357 74.9792 84.1445 75.1797C84.0716 75.362 83.9714 75.5078 83.8438 75.6172C83.7344 75.7266 83.5885 75.8177 83.4062 75.8906C83.224 75.9635 83.0234 76 82.8047 76H82.5312C79.1589 76 76.6341 74.9609 74.957 72.8828C72.8607 74.9609 69.7435 76 65.6055 76H62.7617C61.8685 76 61.2031 75.6628 60.7656 74.9883C60.3281 74.2956 60.1094 73.4661 60.1094 72.5V71.9805C60.1094 71.3971 60.2005 70.8776 60.3828 70.4219C60.5651 69.9479 60.8659 69.556 61.2852 69.2461C61.6862 68.9362 62.1784 68.7812 62.7617 68.7812H65.4688C69.0781 68.7812 71.0469 67.8789 71.375 66.0742C71.4844 65.4909 71.5391 64.7982 71.5391 63.9961C71.5391 63.1029 71.5117 62.2643 71.457 61.4805L71.3203 59.2383L71.2383 58.1992L72.2773 58.0898L76.7891 57.543L77.9102 57.4336L77.9922 58.5547L78.4297 64.8984C78.5391 66.2839 78.9128 67.2773 79.5508 67.8789C80.1888 68.4805 81.2005 68.7812 82.5859 68.7812H82.8047C83.0599 68.7812 83.2878 68.8268 83.4883 68.918C83.6888 68.9909 83.8438 69.1185 83.9531 69.3008C84.0625 69.4831 84.1536 69.6562 84.2266 69.8203C84.3177 69.9661 84.3724 70.1849 84.3906 70.4766C84.4271 70.75 84.4453 70.9505 84.4453 71.0781C84.4453 71.2057 84.4453 71.4245 84.4453 71.7344C84.4453 72.026 84.4453 72.1901 84.4453 72.2266V72.5ZM66.9727 84.2578L70.9648 80.2656L71.375 79.8555L71.7852 80.2656L75.7773 84.2852L76.1875 84.6953L75.7773 85.1055L71.8125 89.0703L71.4023 89.4805L70.9922 89.0703L66.9727 85.0781L66.5625 84.668L66.9727 84.2578ZM84.5 76H82.4219C81.5286 76 80.8633 75.6628 80.4258 74.9883C79.9701 74.3138 79.7422 73.4844 79.7422 72.5V71.9805C79.7422 71.0872 79.9792 70.3307 80.4531 69.7109C80.9089 69.0911 81.5651 68.7812 82.4219 68.7812H84.5C87.2161 68.7812 89.0117 68.5352 89.8867 68.043C91.0716 67.3503 91.6641 65.7643 91.6641 63.2852C91.6641 61.207 91.3451 58.8828 90.707 56.3125L90.4336 55.2461L91.5 55L95.957 53.8789L96.9414 53.6055L97.2695 54.5898C98.181 57.543 98.6367 60.4141 98.6367 63.2031C98.6185 68.0339 97.1966 71.5247 94.3711 73.6758C93.8242 74.0768 93.2044 74.4323 92.5117 74.7422C91.8372 75.0339 91.0807 75.2708 90.2422 75.4531C89.4219 75.6354 88.5378 75.7721 87.5898 75.8633C86.6419 75.9544 85.612 76 84.5 76ZM87.0977 45.3477L91.0898 41.3555L91.5 40.9453L91.9102 41.3555L95.9023 45.375L96.3125 45.7852L95.9023 46.1953L91.9375 50.1602L91.5273 50.5703L91.1172 50.1602L87.0977 46.168L86.6875 45.7578L87.0977 45.3477ZM104.652 36.6797H109.383H110.477V37.7734V74.8789V75.9727H109.383H104.652H103.559V74.8789V37.7734V36.6797H104.652ZM130.848 63.8047C130.848 58.099 135.523 53.7148 144.875 50.6523L144.82 50.3516L144.629 49.3125L145.668 49.0938L150.125 48.1641L151.246 47.9453L151.41 49.0938L153.68 65.2539C153.844 66.5117 154.236 67.4141 154.855 67.9609C155.475 68.5078 156.414 68.7812 157.672 68.7812H158.219C158.383 68.7812 158.538 68.8086 158.684 68.8633C158.848 68.8997 158.975 68.9544 159.066 69.0273C159.176 69.082 159.276 69.1732 159.367 69.3008C159.458 69.4102 159.531 69.5195 159.586 69.6289C159.641 69.7201 159.686 69.8477 159.723 70.0117C159.759 70.1576 159.786 70.2852 159.805 70.3945C159.823 70.4857 159.832 70.6224 159.832 70.8047C159.85 70.987 159.859 71.1146 159.859 71.1875C159.859 71.2604 159.859 71.3789 159.859 71.543C159.859 71.707 159.859 71.8073 159.859 71.8438V72.5C159.859 72.5365 159.859 72.7096 159.859 73.0195C159.878 73.3112 159.878 73.5299 159.859 73.6758C159.859 73.8034 159.841 74.013 159.805 74.3047C159.786 74.5964 159.741 74.8242 159.668 74.9883C159.595 75.1341 159.495 75.2982 159.367 75.4805C159.258 75.6628 159.103 75.7995 158.902 75.8906C158.702 75.9635 158.474 76 158.219 76H157.562C155.211 76 153.224 75.5443 151.602 74.6328C149.997 73.7214 148.84 72.3633 148.129 70.5586C146.087 71.9622 143.836 72.6641 141.375 72.6641C136.891 72.6641 133.746 71.1602 131.941 68.1523C131.577 67.5326 131.303 66.8581 131.121 66.1289C130.939 65.3997 130.848 64.625 130.848 63.8047ZM145.941 57.4336C144.501 57.9805 143.253 58.5456 142.195 59.1289C141.138 59.694 140.299 60.2318 139.68 60.7422C139.078 61.2526 138.632 61.7357 138.34 62.1914C138.048 62.6471 137.902 63.0755 137.902 63.4766C137.902 64.2604 138.13 64.8346 138.586 65.1992C139.06 65.5456 139.926 65.7188 141.184 65.7188C142.405 65.7188 143.626 65.3451 144.848 64.5977C145.54 64.1784 146.014 63.6497 146.27 63.0117C146.525 62.3555 146.57 61.5169 146.406 60.4961L145.941 57.4336ZM159.914 76H157.836C156.943 76 156.277 75.6628 155.84 74.9883C155.384 74.3138 155.156 73.4844 155.156 72.5V71.9805C155.156 71.0872 155.393 70.3307 155.867 69.7109C156.323 69.0911 156.979 68.7812 157.836 68.7812H159.914C162.63 68.7812 164.426 68.5352 165.301 68.043C166.486 67.3503 167.078 65.7643 167.078 63.2852C167.078 61.207 166.759 58.8828 166.121 56.3125L165.848 55.2461L166.914 55L171.371 53.8789L172.355 53.6055L172.684 54.5898C173.595 57.543 174.051 60.4141 174.051 63.2031C174.033 68.0339 172.611 71.5247 169.785 73.6758C169.238 74.0768 168.618 74.4323 167.926 74.7422C167.251 75.0339 166.495 75.2708 165.656 75.4531C164.836 75.6354 163.952 75.7721 163.004 75.8633C162.056 75.9544 161.026 76 159.914 76ZM160.953 84.2578L164.945 80.2656L165.355 79.8555L165.766 80.2656L169.758 84.2852L170.168 84.6953L169.758 85.1055L165.793 89.0703L165.383 89.4805L164.973 89.0703L160.953 85.0781L160.543 84.668L160.953 84.2578ZM193.957 68.0703C196.181 68.526 198.305 68.7539 200.328 68.7539C206.344 68.7539 209.352 67.4688 209.352 64.8984C209.352 63.2943 208.458 61.4805 206.672 59.457C204.885 57.4336 202.169 55.2734 198.523 52.9766L197.566 52.375L198.195 51.4453L200.93 47.2891L201.504 46.4141L202.406 46.9609C211.776 52.5391 216.461 58.4909 216.461 64.8164C216.461 66.3112 216.233 67.6602 215.777 68.8633C215.322 70.0664 214.656 71.1055 213.781 71.9805C212.906 72.8555 211.822 73.5938 210.527 74.1953C209.251 74.7786 207.793 75.2161 206.152 75.5078C204.512 75.7995 202.689 75.9453 200.684 75.9453C197.931 75.9453 195.534 75.7174 193.492 75.2617L192.645 75.0703V74.1953V69.1367V67.7969L193.957 68.0703ZM234.234 68.5898C234.107 67.2591 233.915 66.1198 233.66 65.1719C233.405 64.224 233.095 63.4766 232.73 62.9297C232.366 62.3828 231.965 61.9909 231.527 61.7539C231.108 61.4987 230.634 61.3711 230.105 61.3711C229.704 61.3711 229.349 61.444 229.039 61.5898C228.729 61.7357 228.428 62 228.137 62.3828C227.863 62.7656 227.617 63.276 227.398 63.9141C227.107 64.7891 226.961 65.6003 226.961 66.3477C226.961 67.2591 227.271 67.9336 227.891 68.3711C228.51 68.7904 229.632 69 231.254 69C232.202 68.9818 233.195 68.8451 234.234 68.5898ZM231.227 76.0547C227.69 76.0547 224.956 75.2708 223.023 73.7031C221.109 72.1172 220.152 69.8021 220.152 66.7578C220.152 64.388 220.663 62.1367 221.684 60.0039C222.613 58.0534 223.816 56.5677 225.293 55.5469C226.788 54.526 228.501 54.0156 230.434 54.0156C231.837 54.0156 233.113 54.2891 234.262 54.8359C235.41 55.3828 236.413 56.1758 237.27 57.2148C238.145 58.2357 238.865 59.4935 239.43 60.9883C240.596 63.9961 241.171 67.3594 241.152 71.0781C241.116 76.474 239.411 80.7122 236.039 83.793C232.685 86.8737 227.79 88.7422 221.355 89.3984L220.426 89.4805L220.207 88.5781L219.031 83.9297L218.73 82.6992L219.988 82.5625C227.134 81.8333 231.673 79.6003 233.605 75.8633C232.967 75.9362 232.466 75.9818 232.102 76C231.755 76.0365 231.464 76.0547 231.227 76.0547ZM261.441 59.9219C263.027 63.5495 263.82 67.0495 263.82 70.4219C263.82 76 262.116 80.3841 258.707 83.5742C255.298 86.7643 250.303 88.7057 243.723 89.3984L242.766 89.5078L242.547 88.5781L241.371 83.9297L241.07 82.6992L242.328 82.5625C247.305 82.0703 250.969 80.8398 253.32 78.8711C255.672 76.9206 256.839 74.2135 256.82 70.75C256.82 68.125 256.146 65.3633 254.797 62.4648L254.277 61.3711L255.426 60.9609L260.074 59.3477L261.031 58.9922L261.441 59.9219ZM281.43 68.5898C281.302 67.2591 281.111 66.1198 280.855 65.1719C280.6 64.224 280.29 63.4766 279.926 62.9297C279.561 62.3828 279.16 61.9909 278.723 61.7539C278.303 61.4987 277.829 61.3711 277.301 61.3711C276.9 61.3711 276.544 61.444 276.234 61.5898C275.924 61.7357 275.624 62 275.332 62.3828C275.059 62.7656 274.812 63.276 274.594 63.9141C274.302 64.7891 274.156 65.6003 274.156 66.3477C274.156 67.2591 274.466 67.9336 275.086 68.3711C275.706 68.7904 276.827 69 278.449 69C279.397 68.9818 280.391 68.8451 281.43 68.5898ZM278.422 76.0547C274.885 76.0547 272.151 75.2708 270.219 73.7031C268.305 72.1172 267.348 69.8021 267.348 66.7578C267.348 64.388 267.858 62.1367 268.879 60.0039C269.809 58.0534 271.012 56.5677 272.488 55.5469C273.983 54.526 275.697 54.0156 277.629 54.0156C279.033 54.0156 280.309 54.2891 281.457 54.8359C282.605 55.3828 283.608 56.1758 284.465 57.2148C285.34 58.2357 286.06 59.4935 286.625 60.9883C287.792 63.9961 288.366 67.3594 288.348 71.0781C288.311 76.474 286.607 80.7122 283.234 83.793C279.88 86.8737 274.986 88.7422 268.551 89.3984L267.621 89.4805L267.402 88.5781L266.227 83.9297L265.926 82.6992L267.184 82.5625C274.329 81.8333 278.868 79.6003 280.801 75.8633C280.163 75.9362 279.661 75.9818 279.297 76C278.951 76.0365 278.659 76.0547 278.422 76.0547Z" fill="#4BD927"/>
</svg>
