<svg width="372" height="121" viewBox="0 0 372 121" fill="none" xmlns="http://www.w3.org/2000/svg">
<mask id="path-1-inside-1_303:5" fill="white">
<rect width="372" height="121" rx="6"/>
</mask>
<rect width="372" height="121" rx="6" stroke="#4F46E5" stroke-width="16" mask="url(#path-1-inside-1_303:5)"/>
<path d="M58.3672 72.1719L58.4219 37.8008V36.707H59.5156H64.2188H65.3125V37.8008L65.2852 64.1055C65.2852 64.9258 65.3763 65.6276 65.5586 66.2109C65.7591 66.7943 66.0599 67.2773 66.4609 67.6602C66.8802 68.043 67.4089 68.3255 68.0469 68.5078C68.6849 68.6901 69.4779 68.7812 70.4258 68.7812H70.9727C71.1549 68.7812 71.3372 68.7995 71.5195 68.8359C71.6654 68.8906 71.793 68.9727 71.9023 69.082C72.0299 69.1914 72.1302 69.2917 72.2031 69.3828C72.2943 69.474 72.3581 69.6107 72.3945 69.793C72.4492 69.957 72.4948 70.0938 72.5312 70.2031C72.5677 70.3125 72.5859 70.4674 72.5859 70.668C72.6042 70.8867 72.6133 71.0326 72.6133 71.1055C72.6133 71.1784 72.6133 71.3151 72.6133 71.5156C72.6133 71.7161 72.6133 71.8255 72.6133 71.8438V72.5C72.6133 72.5365 72.6133 72.7005 72.6133 72.9922C72.6315 73.3021 72.6315 73.5208 72.6133 73.6484C72.6133 73.7943 72.5951 74.013 72.5586 74.3047C72.5404 74.5964 72.4948 74.8151 72.4219 74.9609C72.349 75.125 72.2578 75.2982 72.1484 75.4805C72.0208 75.6628 71.8568 75.7904 71.6562 75.8633C71.4557 75.9544 71.2279 76 70.9727 76H70.2891C68.1562 76 66.3789 75.6263 64.957 74.8789C64.4284 79.9102 62.6966 83.7201 59.7617 86.3086C56.8086 88.9154 52.7617 90.2188 47.6211 90.2188C42.0794 90.2188 37.8776 88.8333 35.0156 86.0625C32.1354 83.2917 30.7044 79.2357 30.7227 73.8945C30.7227 71.9258 30.9141 69.9844 31.2969 68.0703C31.7161 66.0833 32.3086 64.151 33.0742 62.2734L33.4844 61.2617L34.5234 61.6992L38.8438 63.4766L39.8281 63.8867L39.4453 64.8711C38.2786 67.8607 37.6953 70.8594 37.6953 73.8672C37.6953 77.0755 38.4974 79.4271 40.1016 80.9219C41.6875 82.4349 44.2031 83.1914 47.6484 83.1914C49.4896 83.1914 51.0755 82.9727 52.4062 82.5352C53.737 82.0977 54.849 81.4323 55.7422 80.5391C56.6172 79.6276 57.2734 78.4792 57.7109 77.0938C58.1302 75.7266 58.349 74.0859 58.3672 72.1719ZM92.1367 68.7812H94.3242C99.2096 68.7812 102.682 68.3164 104.742 67.3867C105.544 67.0404 106.191 66.6484 106.684 66.2109C107.176 65.7734 107.531 65.2904 107.75 64.7617C107.969 64.2331 108.087 63.6315 108.105 62.957C108.105 62.0273 107.859 61.2435 107.367 60.6055C106.51 59.4935 105.289 58.9284 103.703 58.9102C102.682 58.9284 101.579 59.2747 100.395 59.9492C99.2279 60.6237 97.9336 61.7083 96.5117 63.2031C95.1081 64.6797 93.6497 66.5391 92.1367 68.7812ZM80.2422 72.6641C78.0911 74.888 75.0195 76 71.0273 76H70.5625C69.6693 76 69.0039 75.6628 68.5664 74.9883C68.1107 74.3138 67.8828 73.4844 67.8828 72.5V71.9805C67.8828 71.069 68.1198 70.3125 68.5938 69.7109C69.0677 69.0911 69.7331 68.7812 70.5898 68.7812H71.0273C71.9935 68.7812 72.832 68.7174 73.543 68.5898C74.2539 68.4622 74.819 68.2799 75.2383 68.043C75.6758 67.7878 76.0039 67.5052 76.2227 67.1953C76.4596 66.8672 76.6146 66.4935 76.6875 66.0742C76.888 65.0352 76.9154 63.5039 76.7695 61.4805L76.6328 59.2383L76.5508 58.1992L77.5898 58.0898L82.1016 57.543L83.2227 57.4336L83.3047 58.5547L83.7969 64.8984C83.8151 65.1719 83.8424 65.4271 83.8789 65.6641C83.9154 65.901 83.9518 66.1198 83.9883 66.3203C84.043 66.5026 84.0977 66.6758 84.1523 66.8398C84.207 67.0039 84.2617 67.1497 84.3164 67.2773C84.3893 67.3867 84.4531 67.4779 84.5078 67.5508C86.6589 64.0326 88.7734 61.0977 90.8516 58.7461C92.9297 56.3763 95.0443 54.5716 97.1953 53.332C99.3464 52.0924 101.488 51.4818 103.621 51.5C105.699 51.5 107.549 51.901 109.172 52.7031C110.812 53.5052 112.189 54.6992 113.301 56.2852C114.632 58.2174 115.288 60.332 115.27 62.6289C115.27 63.7044 115.142 64.8346 114.887 66.0195C113.337 72.6732 106.428 76 94.1602 76H92.7656C89.7214 76 87.151 75.7357 85.0547 75.207C82.9766 74.6784 81.3724 73.8307 80.2422 72.6641ZM121.34 36.6797H126.07H127.164V37.7734V74.8789V75.9727H126.07H121.34H120.246V74.8789V37.7734V36.6797H121.34ZM164.297 60.0586L165.828 65.3359C166.193 66.5573 166.703 67.4414 167.359 67.9883C168.016 68.5169 168.891 68.7812 169.984 68.7812H170.75C170.932 68.7812 171.105 68.8086 171.27 68.8633C171.434 68.8997 171.57 68.9727 171.68 69.082C171.789 69.1914 171.88 69.2917 171.953 69.3828C172.044 69.474 172.117 69.6107 172.172 69.793C172.227 69.957 172.263 70.0938 172.281 70.2031C172.318 70.2943 172.336 70.4492 172.336 70.668C172.354 70.8867 172.363 71.0326 172.363 71.1055C172.382 71.1784 172.391 71.3151 172.391 71.5156C172.391 71.7161 172.391 71.8255 172.391 71.8438V72.5C172.391 72.5182 172.391 72.6823 172.391 72.9922C172.409 73.3021 172.409 73.5299 172.391 73.6758C172.391 73.8034 172.372 74.013 172.336 74.3047C172.318 74.5964 172.272 74.8242 172.199 74.9883C172.126 75.1341 172.026 75.2982 171.898 75.4805C171.789 75.6628 171.634 75.7995 171.434 75.8906C171.233 75.9635 171.005 76 170.75 76H170.285C168.535 76 167.141 75.7812 166.102 75.3438C165.245 79.4271 163.158 82.6354 159.84 84.9688C156.54 87.3203 152.111 88.7969 146.551 89.3984L145.594 89.5078L145.375 88.5781L144.199 83.9297L143.898 82.6992L145.156 82.5625C150.133 82.0703 153.797 80.8398 156.148 78.8711C158.5 76.9206 159.667 74.2044 159.648 70.7227C159.648 68.1523 158.965 65.3997 157.598 62.4648L157.078 61.3711L158.227 60.9609L162.875 59.3477L163.969 58.9648L164.297 60.0586ZM172.391 76H170.312C169.419 76 168.754 75.6628 168.316 74.9883C167.861 74.3138 167.633 73.4844 167.633 72.5V71.9805C167.633 71.0872 167.87 70.3307 168.344 69.7109C168.799 69.0911 169.456 68.7812 170.312 68.7812H172.391C175.107 68.7812 176.902 68.5352 177.777 68.043C178.962 67.3503 179.555 65.7643 179.555 63.2852C179.555 61.207 179.236 58.8828 178.598 56.3125L178.324 55.2461L179.391 55L183.848 53.8789L184.832 53.6055L185.16 54.5898C186.072 57.543 186.527 60.4141 186.527 63.2031C186.509 68.0339 185.087 71.5247 182.262 73.6758C181.715 74.0768 181.095 74.4323 180.402 74.7422C179.728 75.0339 178.971 75.2708 178.133 75.4531C177.312 75.6354 176.428 75.7721 175.48 75.8633C174.533 75.9544 173.503 76 172.391 76ZM173.43 84.2578L177.422 80.2656L177.832 79.8555L178.242 80.2656L182.234 84.2852L182.645 84.6953L182.234 85.1055L178.27 89.0703L177.859 89.4805L177.449 89.0703L173.43 85.0781L173.02 84.668L173.43 84.2578ZM192.543 36.6797H197.273H198.367V37.7734V74.8789V75.9727H197.273H192.543H191.449V74.8789V37.7734V36.6797H192.543ZM216.25 60.0586L217.781 65.3359C218.146 66.5573 218.656 67.4414 219.312 67.9883C219.969 68.5169 220.844 68.7812 221.938 68.7812H222.703C222.885 68.7812 223.059 68.8086 223.223 68.8633C223.387 68.8997 223.523 68.9727 223.633 69.082C223.742 69.1914 223.833 69.2917 223.906 69.3828C223.997 69.474 224.07 69.6107 224.125 69.793C224.18 69.957 224.216 70.0938 224.234 70.2031C224.271 70.2943 224.289 70.4492 224.289 70.668C224.307 70.8867 224.316 71.0326 224.316 71.1055C224.335 71.1784 224.344 71.3151 224.344 71.5156C224.344 71.7161 224.344 71.8255 224.344 71.8438V72.5C224.344 72.5182 224.344 72.6823 224.344 72.9922C224.362 73.3021 224.362 73.5299 224.344 73.6758C224.344 73.8034 224.326 74.013 224.289 74.3047C224.271 74.5964 224.225 74.8242 224.152 74.9883C224.079 75.1341 223.979 75.2982 223.852 75.4805C223.742 75.6628 223.587 75.7995 223.387 75.8906C223.186 75.9635 222.958 76 222.703 76H222.238C220.488 76 219.094 75.7812 218.055 75.3438C217.198 79.4271 215.111 82.6354 211.793 84.9688C208.493 87.3203 204.064 88.7969 198.504 89.3984L197.547 89.5078L197.328 88.5781L196.152 83.9297L195.852 82.6992L197.109 82.5625C202.086 82.0703 205.75 80.8398 208.102 78.8711C210.453 76.9206 211.62 74.2044 211.602 70.7227C211.602 68.1523 210.918 65.3997 209.551 62.4648L209.031 61.3711L210.18 60.9609L214.828 59.3477L215.922 58.9648L216.25 60.0586ZM224.344 76H222.266C221.372 76 220.707 75.6628 220.27 74.9883C219.814 74.3138 219.586 73.4844 219.586 72.5V71.9805C219.586 71.0872 219.823 70.3307 220.297 69.7109C220.753 69.0911 221.409 68.7812 222.266 68.7812H224.344C227.06 68.7812 228.855 68.5352 229.73 68.043C230.915 67.3503 231.508 65.7643 231.508 63.2852C231.508 61.207 231.189 58.8828 230.551 56.3125L230.277 55.2461L231.344 55L235.801 53.8789L236.785 53.6055L237.113 54.5898C238.025 57.543 238.48 60.4141 238.48 63.2031C238.462 68.0339 237.04 71.5247 234.215 73.6758C233.668 74.0768 233.048 74.4323 232.355 74.7422C231.681 75.0339 230.924 75.2708 230.086 75.4531C229.266 75.6354 228.382 75.7721 227.434 75.8633C226.486 75.9544 225.456 76 224.344 76ZM225.383 84.2578L229.375 80.2656L229.785 79.8555L230.195 80.2656L234.188 84.2852L234.598 84.6953L234.188 85.1055L230.223 89.0703L229.812 89.4805L229.402 89.0703L225.383 85.0781L224.973 84.668L225.383 84.2578ZM297.215 68.7812C297.452 68.7812 297.652 68.8177 297.816 68.8906C297.999 68.9635 298.145 69.0456 298.254 69.1367C298.382 69.2279 298.482 69.3737 298.555 69.5742C298.646 69.7565 298.71 69.9115 298.746 70.0391C298.783 70.1484 298.81 70.3307 298.828 70.5859C298.865 70.8229 298.883 70.987 298.883 71.0781C298.883 71.1693 298.883 71.3424 298.883 71.5977C298.883 71.8346 298.883 71.9622 298.883 71.9805V72.5C298.883 72.5182 298.883 72.6823 298.883 72.9922C298.883 73.3021 298.883 73.5299 298.883 73.6758C298.883 73.8034 298.865 74.013 298.828 74.3047C298.81 74.5964 298.764 74.8151 298.691 74.9609C298.618 75.1068 298.518 75.2799 298.391 75.4805C298.281 75.6628 298.126 75.7995 297.926 75.8906C297.725 75.9635 297.488 76 297.215 76H294.891C295.164 76.6198 295.301 77.2852 295.301 77.9961C295.283 81.1862 293.469 83.9479 289.859 86.2812C285.885 88.8698 281.201 90.1641 275.805 90.1641C269.734 90.1641 265.104 88.8789 261.914 86.3086C258.724 83.7383 257.129 79.9375 257.129 74.9062C257.129 70.8594 258.086 66.7578 260 62.6016L260.438 61.6445L261.422 62.0547L265.742 63.832L266.754 64.2422L266.344 65.2539C264.849 69.0456 264.102 72.1536 264.102 74.5781C264.102 77.4766 265.031 79.6276 266.891 81.0312C268.768 82.4531 271.73 83.1641 275.777 83.1641C278.822 83.1641 281.556 82.6081 283.98 81.4961C285.876 80.6393 287.216 79.6276 288 78.4609C288.292 78.0052 288.438 77.5951 288.438 77.2305C288.438 77.0299 288.41 76.8659 288.355 76.7383C288.301 76.6107 288.191 76.4831 288.027 76.3555C287.863 76.2279 287.608 76.1276 287.262 76.0547C286.915 76 286.469 75.9727 285.922 75.9727H281.738H281.684H281.629C280.809 75.8815 280.143 75.5352 279.633 74.9336C279.122 74.3138 278.749 73.5299 278.512 72.582C278.402 72.1263 278.32 71.7526 278.266 71.4609C278.229 71.1693 278.211 70.8867 278.211 70.6133C278.211 69.6836 278.548 69.0911 279.223 68.8359L279.414 68.7812H279.605H297.215ZM295.984 83.8203L299.922 79.9375L300.305 79.4727L300.715 79.9375L304.625 83.793L304.762 83.9297L304.871 83.8203L308.809 79.9375L309.219 79.4727L309.629 79.9375L313.512 83.793L313.922 84.2031L313.512 84.6406L309.602 88.5234L309.191 88.9336L308.781 88.5234L304.871 84.6406L304.734 84.4766L304.625 84.6406L300.688 88.5234L300.277 88.9336L299.867 88.5234L295.984 84.6406L295.574 84.2305L295.984 83.8203ZM300.387 91.1484L304.297 87.2656L304.707 86.8281L305.117 87.2656L309 91.1211L309.41 91.5586L309 91.9688L305.09 95.8789L304.68 96.2891L304.27 95.8789L300.387 91.9688L299.977 91.5586L300.387 91.1484ZM318.57 72.5C318.57 72.5547 318.57 72.7005 318.57 72.9375C318.57 73.1745 318.57 73.3659 318.57 73.5117C318.57 73.6393 318.561 73.8216 318.543 74.0586C318.525 74.2956 318.497 74.4961 318.461 74.6602C318.424 74.806 318.361 74.9792 318.27 75.1797C318.197 75.362 318.096 75.5078 317.969 75.6172C317.859 75.7266 317.714 75.8177 317.531 75.8906C317.349 75.9635 317.148 76 316.93 76H316.656C313.284 76 310.759 74.9609 309.082 72.8828C306.986 74.9609 303.868 76 299.73 76H296.887C295.993 76 295.328 75.6628 294.891 74.9883C294.453 74.2956 294.234 73.4661 294.234 72.5V71.9805C294.234 71.3971 294.326 70.8776 294.508 70.4219C294.69 69.9479 294.991 69.556 295.41 69.2461C295.811 68.9362 296.303 68.7812 296.887 68.7812H299.594C303.203 68.7812 305.172 67.8789 305.5 66.0742C305.609 65.4909 305.664 64.7982 305.664 63.9961C305.664 63.1029 305.637 62.2643 305.582 61.4805L305.445 59.2383L305.363 58.1992L306.402 58.0898L310.914 57.543L312.035 57.4336L312.117 58.5547L312.555 64.8984C312.664 66.2839 313.038 67.2773 313.676 67.8789C314.314 68.4805 315.326 68.7812 316.711 68.7812H316.93C317.185 68.7812 317.413 68.8268 317.613 68.918C317.814 68.9909 317.969 69.1185 318.078 69.3008C318.188 69.4831 318.279 69.6562 318.352 69.8203C318.443 69.9661 318.497 70.1849 318.516 70.4766C318.552 70.75 318.57 70.9505 318.57 71.0781C318.57 71.2057 318.57 71.4245 318.57 71.7344C318.57 72.026 318.57 72.1901 318.57 72.2266V72.5ZM333.965 56.1211C335.241 57.4883 336.198 58.9466 336.836 60.4961C337.474 62.0456 337.775 63.6589 337.738 65.3359C337.684 68.9271 336.161 71.6068 333.172 73.375C330.201 75.125 325.962 76 320.457 76H316.547C315.654 76 314.988 75.6628 314.551 74.9883C314.095 74.3138 313.867 73.4844 313.867 72.5V71.9805C313.867 71.0872 314.104 70.3307 314.578 69.7109C315.034 69.0911 315.69 68.7812 316.547 68.7812H320.43C327.211 68.763 330.62 67.3867 330.656 64.6523C330.656 63.1758 329.827 61.6628 328.168 60.1133C326.783 58.819 325.47 57.6432 324.23 56.5859C322.991 55.5104 321.833 54.5534 320.758 53.7148C318.406 51.8737 317.23 49.8776 317.23 47.7266C317.23 46.3047 317.622 45.0833 318.406 44.0625C319.208 43.0417 320.329 42.2578 321.77 41.7109L340.719 34.5195L342.195 33.9453V35.5312V40.4805V41.2188L341.484 41.4922L324.859 47.6992C328.924 51.1628 331.96 53.9701 333.965 56.1211Z" fill="#4F46E5"/>
</svg>
