<svg width="316" height="121" viewBox="0 0 316 121" fill="none" xmlns="http://www.w3.org/2000/svg">
<mask id="path-1-inside-1_303:5" fill="white">
<rect width="316" height="121" rx="6"/>
</mask>
<rect width="316" height="121" rx="6" stroke="black" stroke-width="16" mask="url(#path-1-inside-1_303:5)"/>
<path d="M59.6094 75.9727C57.0938 75.9727 54.4232 75.7083 51.5977 75.1797L50.6953 75.0156V74.0859V69.0547V67.7148L52.0078 67.9883C54.487 68.4987 57.0664 68.7539 59.7461 68.7539C60.8763 68.7539 61.8789 68.7083 62.7539 68.6172C63.6471 68.5078 64.3672 68.3711 64.9141 68.207C65.4792 68.0247 65.9349 67.806 66.2812 67.5508C66.6458 67.2956 66.901 67.0404 67.0469 66.7852C67.1927 66.5117 67.2656 66.2201 67.2656 65.9102C67.2656 65.4909 67.056 64.6432 66.6367 63.3672C66.2174 62.0911 65.625 60.5326 64.8594 58.6914L61.3867 50.4883L60.9766 49.5039L61.9336 49.0664L66.4453 46.9883L67.4844 46.4961L67.9219 47.5898L73.3359 61.3164C74.3385 63.8685 75.3229 65.7552 76.2891 66.9766C77.2552 68.1797 78.0846 68.7812 78.7773 68.7812H79.3242C79.543 68.7812 79.7344 68.8177 79.8984 68.8906C80.0807 68.9635 80.2266 69.0456 80.3359 69.1367C80.4635 69.2279 80.5638 69.3737 80.6367 69.5742C80.7279 69.7565 80.7917 69.9115 80.8281 70.0391C80.8646 70.1484 80.8919 70.3307 80.9102 70.5859C80.9466 70.8229 80.9648 70.987 80.9648 71.0781C80.9648 71.1693 80.9648 71.3424 80.9648 71.5977C80.9648 71.8346 80.9648 71.9622 80.9648 71.9805V72.4727C80.9648 73.1471 80.9284 73.6667 80.8555 74.0312C80.8008 74.5052 80.7096 74.8698 80.582 75.125V75.1523L80.5547 75.1797C80.263 75.7266 79.8529 76 79.3242 76H78.7773C75.7878 76 73.3542 74.7513 71.4766 72.2539C68.7969 74.7331 64.8411 75.9727 59.6094 75.9727ZM94.9102 48.2188L98.793 44.3359L99.2031 43.9258L99.6133 44.3359L103.551 48.2461L103.66 48.3555L103.797 48.2188L107.707 44.3359L108.117 43.9258L108.527 44.3359L112.438 48.2461L112.848 48.6562L112.438 49.0664L108.555 52.9492L108.145 53.3594L107.734 52.9492L103.797 49.0391L103.688 48.9297L103.551 49.0664L99.6406 52.9492L99.2305 53.3594L98.8477 52.9492L94.9102 49.0391L94.5 48.6289L94.9102 48.2188ZM99.3125 40.8906L103.195 36.9805L103.605 36.5703L104.016 36.9805L107.926 40.918L108.336 41.3281L107.926 41.7383L104.043 45.6211L103.633 46.0312L103.223 45.6211L99.3125 41.7109L98.9023 41.3008L99.3125 40.8906ZM100.98 65.6367C101.072 65.181 101.117 64.6159 101.117 63.9414C101.117 63.668 101.108 63.4036 101.09 63.1484C101.09 62.875 101.081 62.6016 101.062 62.3281C101.044 62.0547 101.026 61.7812 101.008 61.5078L100.871 59.8398L100.762 58.7734L101.828 58.6641L106.312 58.1172L107.461 58.0078L107.543 59.1289L107.98 65.4727C107.999 65.819 108.035 66.138 108.09 66.4297C108.163 66.7031 108.236 66.9583 108.309 67.1953C108.4 67.4141 108.509 67.6146 108.637 67.7969C108.783 67.9609 108.938 68.1068 109.102 68.2344C109.266 68.362 109.448 68.4622 109.648 68.5352C109.867 68.6081 110.104 68.6628 110.359 68.6992C110.615 68.7357 110.888 68.7539 111.18 68.7539C112.182 68.7539 112.93 68.4076 113.422 67.7148C113.914 67.0039 114.16 65.7643 114.16 63.9961C114.16 62.2279 113.777 60.0039 113.012 57.3242L112.684 56.2578L113.777 55.957L118.453 54.6992L119.465 54.4258L119.766 55.4375C120.714 58.4271 121.178 61.2161 121.16 63.8047C121.16 63.8411 121.16 63.8685 121.16 63.8867C121.16 63.9049 121.16 63.9323 121.16 63.9688C121.142 68.4349 119.911 71.7435 117.469 73.8945C115.883 75.2799 113.823 75.9727 111.289 75.9727C110.286 75.9727 109.357 75.8633 108.5 75.6445C107.661 75.4258 106.896 75.0977 106.203 74.6602C105.51 74.2044 104.918 73.6393 104.426 72.9648C102.475 74.9883 99.9414 76 96.8242 76C93.306 75.9818 90.7721 74.9883 89.2227 73.0195C87.3633 75.0065 84.4557 76 80.5 76H78.9688C78.0755 76 77.4102 75.6628 76.9727 74.9883C76.5169 74.3138 76.2891 73.4844 76.2891 72.5V71.9805C76.2891 71.0872 76.526 70.3307 77 69.7109C77.4557 69.0911 78.112 68.7812 78.9688 68.7812H80.5547C82.25 68.7812 83.5169 68.526 84.3555 68.0156C85.194 67.487 85.7227 66.694 85.9414 65.6367C86.0326 65.181 86.0781 64.6159 86.0781 63.9414C86.0781 63.6862 86.069 63.431 86.0508 63.1758C86.0508 62.9023 86.0417 62.6289 86.0234 62.3555C86.0052 62.082 85.987 61.7995 85.9688 61.5078L85.8047 59.8398L85.7227 58.7734L86.7617 58.6641L91.2734 58.1172L92.4219 58.0078L92.5039 59.1289L92.9414 65.4727C93.0143 66.6393 93.3516 67.487 93.9531 68.0156C94.5547 68.526 95.5299 68.7812 96.8789 68.7812C98.1185 68.7812 99.0573 68.5352 99.6953 68.043C100.333 67.5508 100.762 66.7487 100.98 65.6367ZM153.344 58.7734L157.336 54.7812L157.746 54.3711L158.156 54.7812L162.148 58.8008L162.559 59.2109L162.148 59.6211L158.184 63.5859L157.773 63.9961L157.363 63.5859L153.344 59.5938L152.934 59.1836L153.344 58.7734ZM176.641 75.3164C176.513 76.3372 176.294 77.3398 175.984 78.3242C175.693 79.3268 175.31 80.3203 174.836 81.3047C171.919 87.2474 166.15 90.2188 157.527 90.2188C151.785 90.2188 147.41 88.8242 144.402 86.0352C141.395 83.2643 139.891 79.181 139.891 73.7852C139.891 69.9023 140.839 65.6732 142.734 61.0977L143.145 60.0859L144.156 60.4961L148.504 62.2734L149.488 62.6836L149.105 63.6953C147.629 67.4323 146.891 70.7773 146.891 73.7305C146.891 76.957 147.757 79.3359 149.488 80.8672C151.238 82.4167 153.982 83.1914 157.719 83.1914C161.802 83.1914 164.81 82.2891 166.742 80.4844C168.674 78.6797 169.65 75.8906 169.668 72.1172C169.668 68.9271 168.875 65.7188 167.289 62.4922L166.77 61.3711L167.918 60.9609L172.648 59.3203L173.715 58.9648L174.043 60.0312L176.039 66.2656C176.331 67.1224 176.805 67.7604 177.461 68.1797C178.117 68.5807 179.056 68.7812 180.277 68.7812H180.797C180.997 68.7812 181.18 68.8086 181.344 68.8633C181.508 68.8997 181.645 68.9727 181.754 69.082C181.863 69.1914 181.954 69.2917 182.027 69.3828C182.118 69.474 182.182 69.6107 182.219 69.793C182.273 69.957 182.319 70.0938 182.355 70.2031C182.392 70.3125 182.41 70.4766 182.41 70.6953C182.428 70.8958 182.438 71.0326 182.438 71.1055C182.456 71.1784 182.456 71.3151 182.438 71.5156C182.438 71.7161 182.438 71.8255 182.438 71.8438V72.5C182.438 72.5729 182.438 72.6914 182.438 72.8555C182.492 74.9518 181.945 76 180.797 76H180.387C178.928 76 177.68 75.7721 176.641 75.3164ZM188.727 47.6992C192.792 51.1628 195.827 53.9701 197.832 56.1211C198.361 56.7044 198.853 57.3333 199.309 58.0078C199.783 58.6823 200.202 59.4115 200.566 60.1953C200.949 60.9609 201.296 61.7812 201.605 62.6562C202.353 64.7891 203.283 66.3477 204.395 67.332C205.525 68.2982 206.874 68.7812 208.441 68.7812H208.879C209.116 68.7812 209.316 68.8177 209.48 68.8906C209.663 68.9635 209.809 69.0456 209.918 69.1367C210.046 69.2279 210.146 69.3737 210.219 69.5742C210.31 69.7565 210.374 69.9115 210.41 70.0391C210.447 70.1484 210.474 70.3307 210.492 70.5859C210.51 70.8229 210.52 70.987 210.52 71.0781C210.538 71.1693 210.538 71.3424 210.52 71.5977C210.52 71.8346 210.52 71.9622 210.52 71.9805V72.5C210.52 72.5547 210.52 72.7279 210.52 73.0195C210.538 73.293 210.538 73.5026 210.52 73.6484C210.52 73.7943 210.501 74.013 210.465 74.3047C210.447 74.5781 210.401 74.7969 210.328 74.9609C210.255 75.125 210.164 75.2982 210.055 75.4805C209.945 75.6628 209.79 75.7995 209.59 75.8906C209.389 75.9635 209.152 76 208.879 76H208.441C204.595 76 201.423 74.6055 198.926 71.8164C196.301 74.6055 191.434 76 184.324 76H180.414C179.521 76 178.855 75.6628 178.418 74.9883C177.962 74.3138 177.734 73.4844 177.734 72.5V71.9805C177.734 71.0872 177.971 70.3307 178.445 69.7109C178.901 69.0911 179.557 68.7812 180.414 68.7812H184.297C191.078 68.763 194.487 67.3867 194.523 64.6523C194.523 63.1758 193.694 61.6628 192.035 60.1133C190.65 58.819 189.337 57.6432 188.098 56.5859C186.858 55.5104 185.701 54.5534 184.625 53.7148C182.273 51.8737 181.098 49.8776 181.098 47.7266C181.098 46.3047 181.49 45.0833 182.273 44.0625C183.076 43.0417 184.197 42.2578 185.637 41.7109L204.586 34.5195L206.062 33.9453V35.5312V40.4805V41.2188L205.352 41.4922L188.727 47.6992ZM230.535 65.6367C230.626 65.181 230.672 64.6159 230.672 63.9414C230.672 63.668 230.663 63.4036 230.645 63.1484C230.645 62.875 230.635 62.6016 230.617 62.3281C230.599 62.0547 230.581 61.7812 230.562 61.5078L230.426 59.8398L230.316 58.7734L231.383 58.6641L235.867 58.1172L237.016 58.0078L237.098 59.1289L237.535 65.4727C237.553 65.819 237.59 66.138 237.645 66.4297C237.717 66.7031 237.79 66.9583 237.863 67.1953C237.954 67.4141 238.064 67.6146 238.191 67.7969C238.337 67.9609 238.492 68.1068 238.656 68.2344C238.82 68.362 239.003 68.4622 239.203 68.5352C239.422 68.6081 239.659 68.6628 239.914 68.6992C240.169 68.7357 240.443 68.7539 240.734 68.7539C241.737 68.7539 242.484 68.4076 242.977 67.7148C243.469 67.0039 243.715 65.7643 243.715 63.9961C243.715 62.2279 243.332 60.0039 242.566 57.3242L242.238 56.2578L243.332 55.957L248.008 54.6992L249.02 54.4258L249.32 55.4375C250.268 58.4271 250.733 61.2161 250.715 63.8047C250.715 63.8411 250.715 63.8685 250.715 63.8867C250.715 63.9049 250.715 63.9323 250.715 63.9688C250.697 68.4349 249.466 71.7435 247.023 73.8945C245.438 75.2799 243.378 75.9727 240.844 75.9727C239.841 75.9727 238.911 75.8633 238.055 75.6445C237.216 75.4258 236.451 75.0977 235.758 74.6602C235.065 74.2044 234.473 73.6393 233.98 72.9648C232.03 74.9883 229.496 76 226.379 76C222.861 75.9818 220.327 74.9883 218.777 73.0195C216.918 75.0065 214.01 76 210.055 76H208.523C207.63 76 206.965 75.6628 206.527 74.9883C206.072 74.3138 205.844 73.4844 205.844 72.5V71.9805C205.844 71.0872 206.081 70.3307 206.555 69.7109C207.01 69.0911 207.667 68.7812 208.523 68.7812H210.109C211.805 68.7812 213.072 68.526 213.91 68.0156C214.749 67.487 215.277 66.694 215.496 65.6367C215.587 65.181 215.633 64.6159 215.633 63.9414C215.633 63.6862 215.624 63.431 215.605 63.1758C215.605 62.9023 215.596 62.6289 215.578 62.3555C215.56 62.082 215.542 61.7995 215.523 61.5078L215.359 59.8398L215.277 58.7734L216.316 58.6641L220.828 58.1172L221.977 58.0078L222.059 59.1289L222.496 65.4727C222.569 66.6393 222.906 67.487 223.508 68.0156C224.109 68.526 225.085 68.7812 226.434 68.7812C227.673 68.7812 228.612 68.5352 229.25 68.043C229.888 67.5508 230.316 66.7487 230.535 65.6367ZM256.84 36.6797H261.57H262.664V37.7734V74.8789V75.9727H261.57H256.84H255.746V74.8789V37.7734V36.6797H256.84Z" fill="black"/>
</svg>
