<svg width="316" height="121" viewBox="0 0 316 121" fill="none" xmlns="http://www.w3.org/2000/svg">
<mask id="path-1-inside-1_303:5" fill="white">
<rect width="316" height="121" rx="6"/>
</mask>
<rect width="316" height="121" rx="6" stroke="#4BD927" stroke-width="16" mask="url(#path-1-inside-1_303:5)"/>
<path d="M59.6094 75.9727C57.0938 75.9727 54.4232 75.7083 51.5977 75.1797L50.6953 75.0156V74.0859V69.0547V67.7148L52.0078 67.9883C54.487 68.4987 57.0664 68.7539 59.7461 68.7539C60.8763 68.7539 61.8789 68.7083 62.7539 68.6172C63.6471 68.5078 64.3672 68.3711 64.9141 68.207C65.4792 68.0247 65.9349 67.806 66.2812 67.5508C66.6458 67.2956 66.901 67.0404 67.0469 66.7852C67.1927 66.5117 67.2656 66.2201 67.2656 65.9102C67.2656 65.4909 67.056 64.6432 66.6367 63.3672C66.2174 62.0911 65.625 60.5326 64.8594 58.6914L61.3867 50.4883L60.9766 49.5039L61.9336 49.0664L66.4453 46.9883L67.4844 46.4961L67.9219 47.5898L73.3359 61.3164C74.3385 63.8685 75.3229 65.7552 76.2891 66.9766C77.2552 68.1797 78.0846 68.7812 78.7773 68.7812H79.3242C79.543 68.7812 79.7344 68.8177 79.8984 68.8906C80.0807 68.9635 80.2266 69.0456 80.3359 69.1367C80.4635 69.2279 80.5638 69.3737 80.6367 69.5742C80.7279 69.7565 80.7917 69.9115 80.8281 70.0391C80.8646 70.1484 80.8919 70.3307 80.9102 70.5859C80.9466 70.8229 80.9648 70.987 80.9648 71.0781C80.9648 71.1693 80.9648 71.3424 80.9648 71.5977C80.9648 71.8346 80.9648 71.9622 80.9648 71.9805V72.4727C80.9648 73.1471 80.9284 73.6667 80.8555 74.0312C80.8008 74.5052 80.7096 74.8698 80.582 75.125V75.1523L80.5547 75.1797C80.263 75.7266 79.8529 76 79.3242 76H78.7773C75.7878 76 73.3542 74.7513 71.4766 72.2539C68.7969 74.7331 64.8411 75.9727 59.6094 75.9727ZM94.9102 48.2188L98.793 44.3359L99.2031 43.9258L99.6133 44.3359L103.551 48.2461L103.66 48.3555L103.797 48.2188L107.707 44.3359L108.117 43.9258L108.527 44.3359L112.438 48.2461L112.848 48.6562L112.438 49.0664L108.555 52.9492L108.145 53.3594L107.734 52.9492L103.797 49.0391L103.688 48.9297L103.551 49.0664L99.6406 52.9492L99.2305 53.3594L98.8477 52.9492L94.9102 49.0391L94.5 48.6289L94.9102 48.2188ZM99.3125 40.8906L103.195 36.9805L103.605 36.5703L104.016 36.9805L107.926 40.918L108.336 41.3281L107.926 41.7383L104.043 45.6211L103.633 46.0312L103.223 45.6211L99.3125 41.7109L98.9023 41.3008L99.3125 40.8906ZM100.98 65.6367C101.072 65.181 101.117 64.6159 101.117 63.9414C101.117 63.668 101.108 63.4036 101.09 63.1484C101.09 62.875 101.081 62.6016 101.062 62.3281C101.044 62.0547 101.026 61.7812 101.008 61.5078L100.871 59.8398L100.762 58.7734L101.828 58.6641L106.312 58.1172L107.461 58.0078L107.543 59.1289L107.98 65.4727C107.999 65.819 108.035 66.138 108.09 66.4297C108.163 66.7031 108.236 66.9583 108.309 67.1953C108.4 67.4141 108.509 67.6146 108.637 67.7969C108.783 67.9609 108.938 68.1068 109.102 68.2344C109.266 68.362 109.448 68.4622 109.648 68.5352C109.867 68.6081 110.104 68.6628 110.359 68.6992C110.615 68.7357 110.888 68.7539 111.18 68.7539C112.182 68.7539 112.93 68.4076 113.422 67.7148C113.914 67.0039 114.16 65.7643 114.16 63.9961C114.16 62.2279 113.777 60.0039 113.012 57.3242L112.684 56.2578L113.777 55.957L118.453 54.6992L119.465 54.4258L119.766 55.4375C120.714 58.4271 121.178 61.2161 121.16 63.8047C121.16 63.8411 121.16 63.8685 121.16 63.8867C121.16 63.9049 121.16 63.9323 121.16 63.9688C121.142 68.4349 119.911 71.7435 117.469 73.8945C115.883 75.2799 113.823 75.9727 111.289 75.9727C110.286 75.9727 109.357 75.8633 108.5 75.6445C107.661 75.4258 106.896 75.0977 106.203 74.6602C105.51 74.2044 104.918 73.6393 104.426 72.9648C102.475 74.9883 99.9414 76 96.8242 76C93.306 75.9818 90.7721 74.9883 89.2227 73.0195C87.3633 75.0065 84.4557 76 80.5 76H78.9688C78.0755 76 77.4102 75.6628 76.9727 74.9883C76.5169 74.3138 76.2891 73.4844 76.2891 72.5V71.9805C76.2891 71.0872 76.526 70.3307 77 69.7109C77.4557 69.0911 78.112 68.7812 78.9688 68.7812H80.5547C82.25 68.7812 83.5169 68.526 84.3555 68.0156C85.194 67.487 85.7227 66.694 85.9414 65.6367C86.0326 65.181 86.0781 64.6159 86.0781 63.9414C86.0781 63.6862 86.069 63.431 86.0508 63.1758C86.0508 62.9023 86.0417 62.6289 86.0234 62.3555C86.0052 62.082 85.987 61.7995 85.9688 61.5078L85.8047 59.8398L85.7227 58.7734L86.7617 58.6641L91.2734 58.1172L92.4219 58.0078L92.5039 59.1289L92.9414 65.4727C93.0143 66.6393 93.3516 67.487 93.9531 68.0156C94.5547 68.526 95.5299 68.7812 96.8789 68.7812C98.1185 68.7812 99.0573 68.5352 99.6953 68.043C100.333 67.5508 100.762 66.7487 100.98 65.6367ZM148.805 75.9727C146.289 75.9727 143.618 75.7083 140.793 75.1797L139.891 75.0156V74.0859V69.0547V67.7148L141.203 67.9883C143.682 68.4987 146.262 68.7539 148.941 68.7539C150.072 68.7539 151.074 68.7083 151.949 68.6172C152.842 68.5078 153.562 68.3711 154.109 68.207C154.674 68.0247 155.13 67.806 155.477 67.5508C155.841 67.2956 156.096 67.0404 156.242 66.7852C156.388 66.5117 156.461 66.2201 156.461 65.9102C156.461 65.4909 156.251 64.6432 155.832 63.3672C155.413 62.0911 154.82 60.5326 154.055 58.6914L150.582 50.4883L150.172 49.5039L151.129 49.0664L155.641 46.9883L156.68 46.4961L157.117 47.5898L162.531 61.3164C163.534 63.8685 164.518 65.7552 165.484 66.9766C166.451 68.1797 167.28 68.7812 167.973 68.7812H168.52C168.738 68.7812 168.93 68.8177 169.094 68.8906C169.276 68.9635 169.422 69.0456 169.531 69.1367C169.659 69.2279 169.759 69.3737 169.832 69.5742C169.923 69.7565 169.987 69.9115 170.023 70.0391C170.06 70.1484 170.087 70.3307 170.105 70.5859C170.142 70.8229 170.16 70.987 170.16 71.0781C170.16 71.1693 170.16 71.3424 170.16 71.5977C170.16 71.8346 170.16 71.9622 170.16 71.9805V72.4727C170.16 73.1471 170.124 73.6667 170.051 74.0312C169.996 74.5052 169.905 74.8698 169.777 75.125V75.1523L169.75 75.1797C169.458 75.7266 169.048 76 168.52 76H167.973C164.983 76 162.549 74.7513 160.672 72.2539C157.992 74.7331 154.036 75.9727 148.805 75.9727ZM170.242 76H168.164C167.271 76 166.605 75.6628 166.168 74.9883C165.712 74.3138 165.484 73.4844 165.484 72.5V71.9805C165.484 71.0872 165.721 70.3307 166.195 69.7109C166.651 69.0911 167.307 68.7812 168.164 68.7812H170.242C172.958 68.7812 174.754 68.5352 175.629 68.043C176.814 67.3503 177.406 65.7643 177.406 63.2852C177.406 61.207 177.087 58.8828 176.449 56.3125L176.176 55.2461L177.242 55L181.699 53.8789L182.684 53.6055L183.012 54.5898C183.923 57.543 184.379 60.4141 184.379 63.2031C184.361 68.0339 182.939 71.5247 180.113 73.6758C179.566 74.0768 178.947 74.4323 178.254 74.7422C177.579 75.0339 176.823 75.2708 175.984 75.4531C175.164 75.6354 174.28 75.7721 173.332 75.8633C172.384 75.9544 171.354 76 170.242 76ZM167.344 84.2578L171.309 80.2656L171.719 79.8555L172.129 80.2656L176.148 84.2852L176.176 84.3125L176.23 84.2578L180.223 80.2656L180.633 79.8555L181.043 80.2656L185.035 84.2852L185.445 84.6953L185.035 85.1055L181.07 89.0703L180.66 89.4805L180.25 89.0703L176.23 85.0781L176.203 85.0508L176.148 85.1055L172.156 89.0703L171.746 89.4805L171.363 89.0703L167.344 85.0781L166.934 84.668L167.344 84.2578ZM197.586 75.9727C195.07 75.9727 192.4 75.7083 189.574 75.1797L188.672 75.0156V74.0859V69.0547V67.7148L189.984 67.9883C192.464 68.4987 195.043 68.7539 197.723 68.7539C198.853 68.7539 199.855 68.7083 200.73 68.6172C201.624 68.5078 202.344 68.3711 202.891 68.207C203.456 68.0247 203.911 67.806 204.258 67.5508C204.622 67.2956 204.878 67.0404 205.023 66.7852C205.169 66.5117 205.242 66.2201 205.242 65.9102C205.242 65.4909 205.033 64.6432 204.613 63.3672C204.194 62.0911 203.602 60.5326 202.836 58.6914L199.363 50.4883L198.953 49.5039L199.91 49.0664L204.422 46.9883L205.461 46.4961L205.898 47.5898L211.312 61.3164C212.315 63.8685 213.299 65.7552 214.266 66.9766C215.232 68.1797 216.061 68.7812 216.754 68.7812H217.301C217.52 68.7812 217.711 68.8177 217.875 68.8906C218.057 68.9635 218.203 69.0456 218.312 69.1367C218.44 69.2279 218.54 69.3737 218.613 69.5742C218.704 69.7565 218.768 69.9115 218.805 70.0391C218.841 70.1484 218.868 70.3307 218.887 70.5859C218.923 70.8229 218.941 70.987 218.941 71.0781C218.941 71.1693 218.941 71.3424 218.941 71.5977C218.941 71.8346 218.941 71.9622 218.941 71.9805V72.4727C218.941 73.1471 218.905 73.6667 218.832 74.0312C218.777 74.5052 218.686 74.8698 218.559 75.125V75.1523L218.531 75.1797C218.24 75.7266 217.829 76 217.301 76H216.754C213.764 76 211.331 74.7513 209.453 72.2539C206.773 74.7331 202.818 75.9727 197.586 75.9727ZM234.418 69.5195C235.147 69.5195 235.712 69.4375 236.113 69.2734C236.514 69.0911 236.797 68.8086 236.961 68.4258C237.143 68.043 237.225 67.5143 237.207 66.8398C237.189 65.9284 237.007 65.0625 236.66 64.2422C236.296 63.4401 235.84 62.8568 235.293 62.4922C234.764 62.1094 234.072 61.918 233.215 61.918C231.41 61.8815 229.924 63.3216 228.758 66.2383C229.469 67.0039 230.152 67.6328 230.809 68.125C231.483 68.6172 232.112 68.9727 232.695 69.1914C233.279 69.4102 233.853 69.5195 234.418 69.5195ZM234.719 76.6016C231.383 76.6016 228.211 75.2526 225.203 72.5547C224.073 73.7031 222.861 74.569 221.566 75.1523C220.272 75.7174 218.914 76 217.492 76H216.918C216.025 76 215.359 75.6628 214.922 74.9883C214.484 74.2956 214.266 73.4661 214.266 72.5V71.9805C214.266 71.0872 214.493 70.3307 214.949 69.7109C215.405 69.0911 216.061 68.7812 216.918 68.7812H217.355C218.668 68.7812 219.835 68.0703 220.855 66.6484C221.475 65.8099 222.122 64.6341 222.797 63.1211C225.367 57.4154 228.831 54.5534 233.188 54.5352C236.487 54.5352 239.103 55.7565 241.035 58.1992C242.366 59.9128 243.305 62.0182 243.852 64.5156C244.016 65.3177 244.207 66.0013 244.426 66.5664C244.663 67.1315 244.918 67.5781 245.191 67.9062C245.483 68.2161 245.775 68.444 246.066 68.5898C246.376 68.7174 246.714 68.7812 247.078 68.7812H247.488C247.707 68.7812 247.908 68.8177 248.09 68.8906C248.272 68.9635 248.418 69.0456 248.527 69.1367C248.655 69.2279 248.755 69.3737 248.828 69.5742C248.901 69.7565 248.956 69.9115 248.992 70.0391C249.047 70.1484 249.083 70.3307 249.102 70.5859C249.12 70.8229 249.129 70.987 249.129 71.0781C249.147 71.1693 249.147 71.3424 249.129 71.5977C249.129 71.8346 249.129 71.9622 249.129 71.9805V72.5C249.129 73.6302 249.102 74.332 249.047 74.6055C248.81 75.5169 248.29 75.9818 247.488 76H247.051C245.027 76 243.314 75.2161 241.91 73.6484C240.142 75.6172 237.745 76.6016 234.719 76.6016ZM249.156 76H247.078C246.185 76 245.52 75.6628 245.082 74.9883C244.626 74.3138 244.398 73.4844 244.398 72.5V71.9805C244.398 71.0872 244.635 70.3307 245.109 69.7109C245.565 69.0911 246.221 68.7812 247.078 68.7812H249.156C251.872 68.7812 253.668 68.5352 254.543 68.043C255.728 67.3503 256.32 65.7643 256.32 63.2852C256.32 61.207 256.001 58.8828 255.363 56.3125L255.09 55.2461L256.156 55L260.613 53.8789L261.598 53.6055L261.926 54.5898C262.837 57.543 263.293 60.4141 263.293 63.2031C263.275 68.0339 261.853 71.5247 259.027 73.6758C258.48 74.0768 257.861 74.4323 257.168 74.7422C256.493 75.0339 255.737 75.2708 254.898 75.4531C254.078 75.6354 253.194 75.7721 252.246 75.8633C251.298 75.9544 250.268 76 249.156 76ZM246.695 45.375L250.66 41.3828L251.07 40.9727L251.48 41.3828L255.5 45.4023L255.527 45.4297L255.582 45.375L259.574 41.3828L259.984 40.9727L260.395 41.3828L264.387 45.4023L264.797 45.8125L264.387 46.2227L260.422 50.1875L260.012 50.5977L259.602 50.1875L255.582 46.1953L255.555 46.168L255.5 46.2227L251.508 50.1875L251.098 50.5977L250.715 50.1875L246.695 46.1953L246.285 45.7852L246.695 45.375Z" fill="#4BD927"/>
</svg>
