<svg width="316" height="121" viewBox="0 0 316 121" fill="none" xmlns="http://www.w3.org/2000/svg">
<mask id="path-1-inside-1_303:5" fill="white">
<rect width="316" height="121" rx="6"/>
</mask>
<rect width="316" height="121" rx="6" stroke="black" stroke-width="16" mask="url(#path-1-inside-1_303:5)"/>
<path d="M64.6094 75.9727C62.0938 75.9727 59.4232 75.7083 56.5977 75.1797L55.6953 75.0156V74.0859V69.0547V67.7148L57.0078 67.9883C59.487 68.4987 62.0664 68.7539 64.7461 68.7539C65.8763 68.7539 66.8789 68.7083 67.7539 68.6172C68.6471 68.5078 69.3672 68.3711 69.9141 68.207C70.4792 68.0247 70.9349 67.806 71.2812 67.5508C71.6458 67.2956 71.901 67.0404 72.0469 66.7852C72.1927 66.5117 72.2656 66.2201 72.2656 65.9102C72.2656 65.4909 72.056 64.6432 71.6367 63.3672C71.2174 62.0911 70.625 60.5326 69.8594 58.6914L66.3867 50.4883L65.9766 49.5039L66.9336 49.0664L71.4453 46.9883L72.4844 46.4961L72.9219 47.5898L78.3359 61.3164C79.3385 63.8685 80.3229 65.7552 81.2891 66.9766C82.2552 68.1797 83.0846 68.7812 83.7773 68.7812H84.3242C84.543 68.7812 84.7344 68.8177 84.8984 68.8906C85.0807 68.9635 85.2266 69.0456 85.3359 69.1367C85.4635 69.2279 85.5638 69.3737 85.6367 69.5742C85.7279 69.7565 85.7917 69.9115 85.8281 70.0391C85.8646 70.1484 85.8919 70.3307 85.9102 70.5859C85.9466 70.8229 85.9648 70.987 85.9648 71.0781C85.9648 71.1693 85.9648 71.3424 85.9648 71.5977C85.9648 71.8346 85.9648 71.9622 85.9648 71.9805V72.4727C85.9648 73.1471 85.9284 73.6667 85.8555 74.0312C85.8008 74.5052 85.7096 74.8698 85.582 75.125V75.1523L85.5547 75.1797C85.263 75.7266 84.8529 76 84.3242 76H83.7773C80.7878 76 78.3542 74.7513 76.4766 72.2539C73.7969 74.7331 69.8411 75.9727 64.6094 75.9727ZM99.9102 48.2188L103.793 44.3359L104.203 43.9258L104.613 44.3359L108.551 48.2461L108.66 48.3555L108.797 48.2188L112.707 44.3359L113.117 43.9258L113.527 44.3359L117.438 48.2461L117.848 48.6562L117.438 49.0664L113.555 52.9492L113.145 53.3594L112.734 52.9492L108.797 49.0391L108.688 48.9297L108.551 49.0664L104.641 52.9492L104.23 53.3594L103.848 52.9492L99.9102 49.0391L99.5 48.6289L99.9102 48.2188ZM104.312 40.8906L108.195 36.9805L108.605 36.5703L109.016 36.9805L112.926 40.918L113.336 41.3281L112.926 41.7383L109.043 45.6211L108.633 46.0312L108.223 45.6211L104.312 41.7109L103.902 41.3008L104.312 40.8906ZM105.98 65.6367C106.072 65.181 106.117 64.6159 106.117 63.9414C106.117 63.668 106.108 63.4036 106.09 63.1484C106.09 62.875 106.081 62.6016 106.062 62.3281C106.044 62.0547 106.026 61.7812 106.008 61.5078L105.871 59.8398L105.762 58.7734L106.828 58.6641L111.312 58.1172L112.461 58.0078L112.543 59.1289L112.98 65.4727C112.999 65.819 113.035 66.138 113.09 66.4297C113.163 66.7031 113.236 66.9583 113.309 67.1953C113.4 67.4141 113.509 67.6146 113.637 67.7969C113.783 67.9609 113.938 68.1068 114.102 68.2344C114.266 68.362 114.448 68.4622 114.648 68.5352C114.867 68.6081 115.104 68.6628 115.359 68.6992C115.615 68.7357 115.888 68.7539 116.18 68.7539C117.182 68.7539 117.93 68.4076 118.422 67.7148C118.914 67.0039 119.16 65.7643 119.16 63.9961C119.16 62.2279 118.777 60.0039 118.012 57.3242L117.684 56.2578L118.777 55.957L123.453 54.6992L124.465 54.4258L124.766 55.4375C125.714 58.4271 126.178 61.2161 126.16 63.8047C126.16 63.8411 126.16 63.8685 126.16 63.8867C126.16 63.9049 126.16 63.9323 126.16 63.9688C126.142 68.4349 124.911 71.7435 122.469 73.8945C120.883 75.2799 118.823 75.9727 116.289 75.9727C115.286 75.9727 114.357 75.8633 113.5 75.6445C112.661 75.4258 111.896 75.0977 111.203 74.6602C110.51 74.2044 109.918 73.6393 109.426 72.9648C107.475 74.9883 104.941 76 101.824 76C98.306 75.9818 95.7721 74.9883 94.2227 73.0195C92.3633 75.0065 89.4557 76 85.5 76H83.9688C83.0755 76 82.4102 75.6628 81.9727 74.9883C81.5169 74.3138 81.2891 73.4844 81.2891 72.5V71.9805C81.2891 71.0872 81.526 70.3307 82 69.7109C82.4557 69.0911 83.112 68.7812 83.9688 68.7812H85.5547C87.25 68.7812 88.5169 68.526 89.3555 68.0156C90.194 67.487 90.7227 66.694 90.9414 65.6367C91.0326 65.181 91.0781 64.6159 91.0781 63.9414C91.0781 63.6862 91.069 63.431 91.0508 63.1758C91.0508 62.9023 91.0417 62.6289 91.0234 62.3555C91.0052 62.082 90.987 61.7995 90.9688 61.5078L90.8047 59.8398L90.7227 58.7734L91.7617 58.6641L96.2734 58.1172L97.4219 58.0078L97.5039 59.1289L97.9414 65.4727C98.0143 66.6393 98.3516 67.487 98.9531 68.0156C99.5547 68.526 100.53 68.7812 101.879 68.7812C103.118 68.7812 104.057 68.5352 104.695 68.043C105.333 67.5508 105.762 66.7487 105.98 65.6367ZM167.531 76C160.148 76 154.516 74.806 150.633 72.418C146.75 70.0299 144.809 66.4297 144.809 61.6172C144.809 58.9922 145.337 56.5039 146.395 54.1523L146.832 53.168L147.844 53.6055L152.137 55.4648L153.121 55.9023L152.738 56.8867C152.447 57.5794 152.228 58.263 152.082 58.9375C151.954 59.5938 151.891 60.2409 151.891 60.8789C151.891 61.5898 151.982 62.2552 152.164 62.875C152.365 63.4948 152.656 64.0781 153.039 64.625C153.422 65.1719 153.905 65.6641 154.488 66.1016C155.09 66.5208 155.81 66.9036 156.648 67.25C157.487 67.5781 158.426 67.8607 159.465 68.0977C160.522 68.3164 161.716 68.4896 163.047 68.6172C164.378 68.7266 165.827 68.7812 167.395 68.7812C171.97 68.7812 175.68 68.4987 178.523 67.9336C181.367 67.3503 183.254 66.5664 184.184 65.582C184.366 65.3815 184.512 65.0716 184.621 64.6523C184.749 64.2148 184.812 63.6589 184.812 62.9844C184.812 62.7839 184.812 62.5924 184.812 62.4102C184.812 62.2279 184.803 62.0638 184.785 61.918C184.785 61.7721 184.785 61.6354 184.785 61.5078L184.621 59.2656L184.566 58.2266L185.578 58.1172L190.09 57.5703L191.238 57.4609L191.32 58.582L191.758 64.4609C191.849 65.7917 192.223 66.8763 192.879 67.7148C193.152 68.0612 193.526 68.3255 194 68.5078C194.492 68.6901 195.112 68.7812 195.859 68.7812H196.215C196.434 68.7812 196.634 68.8177 196.816 68.8906C196.999 68.9635 197.145 69.0456 197.254 69.1367C197.363 69.2279 197.454 69.3737 197.527 69.5742C197.618 69.7565 197.682 69.9115 197.719 70.0391C197.773 70.1484 197.81 70.3307 197.828 70.5859C197.846 70.8229 197.855 70.987 197.855 71.0781C197.855 71.1693 197.855 71.3424 197.855 71.5977C197.855 71.8346 197.855 71.9622 197.855 71.9805V72.5C197.855 72.5365 197.855 72.7096 197.855 73.0195C197.874 73.3112 197.874 73.5299 197.855 73.6758C197.855 73.8034 197.837 74.013 197.801 74.3047C197.783 74.5781 197.737 74.7969 197.664 74.9609C197.591 75.125 197.491 75.2982 197.363 75.4805C197.254 75.6628 197.099 75.7995 196.898 75.8906C196.716 75.9635 196.488 76 196.215 76H195.859C194.018 76 192.378 75.6445 190.938 74.9336C189.497 74.2227 188.312 73.1745 187.383 71.7891C183.81 74.5964 177.229 76 167.641 76H167.531ZM160.148 49.832L164.113 45.8398L164.523 45.4297L164.934 45.8398L168.953 49.8594L168.98 49.8867L169.035 49.832L173.027 45.8398L173.438 45.4297L173.848 45.8398L177.84 49.8594L178.25 50.2695L177.84 50.6797L173.875 54.6445L173.465 55.0547L173.055 54.6445L169.035 50.6523L169.008 50.625L168.953 50.6797L164.961 54.6445L164.551 55.0547L164.168 54.6445L160.148 50.6523L159.738 50.2422L160.148 49.832ZM197.938 76H195.859C194.966 76 194.301 75.6628 193.863 74.9883C193.408 74.3138 193.18 73.4844 193.18 72.5V71.9805C193.18 71.0872 193.417 70.3307 193.891 69.7109C194.346 69.0911 195.003 68.7812 195.859 68.7812H197.938C200.654 68.7812 202.449 68.5352 203.324 68.043C204.509 67.3503 205.102 65.7643 205.102 63.2852C205.102 61.207 204.783 58.8828 204.145 56.3125L203.871 55.2461L204.938 55L209.395 53.8789L210.379 53.6055L210.707 54.5898C211.618 57.543 212.074 60.4141 212.074 63.2031C212.056 68.0339 210.634 71.5247 207.809 73.6758C207.262 74.0768 206.642 74.4323 205.949 74.7422C205.275 75.0339 204.518 75.2708 203.68 75.4531C202.859 75.6354 201.975 75.7721 201.027 75.8633C200.079 75.9544 199.049 76 197.938 76ZM195.039 84.2578L199.004 80.2656L199.414 79.8555L199.824 80.2656L203.844 84.2852L203.871 84.3125L203.926 84.2578L207.918 80.2656L208.328 79.8555L208.738 80.2656L212.73 84.2852L213.141 84.6953L212.73 85.1055L208.766 89.0703L208.355 89.4805L207.945 89.0703L203.926 85.0781L203.898 85.0508L203.844 85.1055L199.852 89.0703L199.441 89.4805L199.059 89.0703L195.039 85.0781L194.629 84.668L195.039 84.2578ZM222.602 48.9023C221.654 47.8268 221.18 46.4596 221.18 44.8008C221.18 43.0508 221.763 41.556 222.93 40.3164C224.297 38.8763 226.047 38.1562 228.18 38.1562C229.656 38.1562 231.042 38.5755 232.336 39.4141L232.582 39.5781V39.8516L232.609 43.4609V44.4727L231.762 43.9258C231.233 43.5794 230.695 43.3151 230.148 43.1328C229.62 42.9688 229.091 42.8867 228.562 42.8867C227.56 42.8867 226.803 43.1419 226.293 43.6523C225.892 44.0716 225.691 44.5729 225.691 45.1562C225.728 45.9948 226.475 46.6784 227.934 47.207C228.079 47.2617 228.198 47.2799 228.289 47.2617C228.562 47.207 229.839 46.9609 232.117 46.5234L232.773 46.3867V47.043V50.4883V50.9258L232.336 51.0078L221.234 53.6875L220.551 53.8516V53.168V50.0781V49.3672L220.988 49.2578L222.602 48.9023ZM230.75 68.5898C230.622 67.2591 230.431 66.1198 230.176 65.1719C229.921 64.224 229.611 63.4766 229.246 62.9297C228.882 62.3828 228.48 61.9909 228.043 61.7539C227.624 61.4987 227.15 61.3711 226.621 61.3711C226.22 61.3711 225.865 61.444 225.555 61.5898C225.245 61.7357 224.944 62 224.652 62.3828C224.379 62.7656 224.133 63.276 223.914 63.9141C223.622 64.7891 223.477 65.6003 223.477 66.3477C223.477 67.2591 223.786 67.9336 224.406 68.3711C225.026 68.7904 226.147 69 227.77 69C228.717 68.9818 229.711 68.8451 230.75 68.5898ZM227.742 76.0547C224.206 76.0547 221.471 75.2708 219.539 73.7031C217.625 72.1172 216.668 69.8021 216.668 66.7578C216.668 64.388 217.178 62.1367 218.199 60.0039C219.129 58.0534 220.332 56.5677 221.809 55.5469C223.303 54.526 225.017 54.0156 226.949 54.0156C228.353 54.0156 229.629 54.2891 230.777 54.8359C231.926 55.3828 232.928 56.1758 233.785 57.2148C234.66 58.2357 235.38 59.4935 235.945 60.9883C237.112 63.9961 237.686 67.3594 237.668 71.0781C237.632 76.474 235.927 80.7122 232.555 83.793C229.201 86.8737 224.306 88.7422 217.871 89.3984L216.941 89.4805L216.723 88.5781L215.547 83.9297L215.246 82.6992L216.504 82.5625C223.65 81.8333 228.189 79.6003 230.121 75.8633C229.483 75.9362 228.982 75.9818 228.617 76C228.271 76.0365 227.979 76.0547 227.742 76.0547ZM257.957 59.9219C259.543 63.5495 260.336 67.0495 260.336 70.4219C260.336 76 258.632 80.3841 255.223 83.5742C251.814 86.7643 246.819 88.7057 240.238 89.3984L239.281 89.5078L239.062 88.5781L237.887 83.9297L237.586 82.6992L238.844 82.5625C243.82 82.0703 247.484 80.8398 249.836 78.8711C252.188 76.9206 253.354 74.2135 253.336 70.75C253.336 68.125 252.661 65.3633 251.312 62.4648L250.793 61.3711L251.941 60.9609L256.59 59.3477L257.547 58.9922L257.957 59.9219Z" fill="black"/>
</svg>
