<svg width="316" height="121" viewBox="0 0 316 121" fill="none" xmlns="http://www.w3.org/2000/svg">
<mask id="path-1-inside-1_303:5" fill="white">
<rect width="316" height="121" rx="6"/>
</mask>
<rect width="316" height="121" rx="6" stroke="#EF4444" stroke-width="16" mask="url(#path-1-inside-1_303:5)"/>
<path d="M42.6094 75.9727C40.0938 75.9727 37.4232 75.7083 34.5977 75.1797L33.6953 75.0156V74.0859V69.0547V67.7148L35.0078 67.9883C37.487 68.4987 40.0664 68.7539 42.7461 68.7539C43.8763 68.7539 44.8789 68.7083 45.7539 68.6172C46.6471 68.5078 47.3672 68.3711 47.9141 68.207C48.4792 68.0247 48.9349 67.806 49.2812 67.5508C49.6458 67.2956 49.901 67.0404 50.0469 66.7852C50.1927 66.5117 50.2656 66.2201 50.2656 65.9102C50.2656 65.4909 50.056 64.6432 49.6367 63.3672C49.2174 62.0911 48.625 60.5326 47.8594 58.6914L44.3867 50.4883L43.9766 49.5039L44.9336 49.0664L49.4453 46.9883L50.4844 46.4961L50.9219 47.5898L56.3359 61.3164C57.3385 63.8685 58.3229 65.7552 59.2891 66.9766C60.2552 68.1797 61.0846 68.7812 61.7773 68.7812H62.3242C62.543 68.7812 62.7344 68.8177 62.8984 68.8906C63.0807 68.9635 63.2266 69.0456 63.3359 69.1367C63.4635 69.2279 63.5638 69.3737 63.6367 69.5742C63.7279 69.7565 63.7917 69.9115 63.8281 70.0391C63.8646 70.1484 63.8919 70.3307 63.9102 70.5859C63.9466 70.8229 63.9648 70.987 63.9648 71.0781C63.9648 71.1693 63.9648 71.3424 63.9648 71.5977C63.9648 71.8346 63.9648 71.9622 63.9648 71.9805V72.4727C63.9648 73.1471 63.9284 73.6667 63.8555 74.0312C63.8008 74.5052 63.7096 74.8698 63.582 75.125V75.1523L63.5547 75.1797C63.263 75.7266 62.8529 76 62.3242 76H61.7773C58.7878 76 56.3542 74.7513 54.4766 72.2539C51.7969 74.7331 47.8411 75.9727 42.6094 75.9727ZM77.9102 48.2188L81.793 44.3359L82.2031 43.9258L82.6133 44.3359L86.5508 48.2461L86.6602 48.3555L86.7969 48.2188L90.707 44.3359L91.1172 43.9258L91.5273 44.3359L95.4375 48.2461L95.8477 48.6562L95.4375 49.0664L91.5547 52.9492L91.1445 53.3594L90.7344 52.9492L86.7969 49.0391L86.6875 48.9297L86.5508 49.0664L82.6406 52.9492L82.2305 53.3594L81.8477 52.9492L77.9102 49.0391L77.5 48.6289L77.9102 48.2188ZM82.3125 40.8906L86.1953 36.9805L86.6055 36.5703L87.0156 36.9805L90.9258 40.918L91.3359 41.3281L90.9258 41.7383L87.043 45.6211L86.6328 46.0312L86.2227 45.6211L82.3125 41.7109L81.9023 41.3008L82.3125 40.8906ZM83.9805 65.6367C84.0716 65.181 84.1172 64.6159 84.1172 63.9414C84.1172 63.668 84.1081 63.4036 84.0898 63.1484C84.0898 62.875 84.0807 62.6016 84.0625 62.3281C84.0443 62.0547 84.026 61.7812 84.0078 61.5078L83.8711 59.8398L83.7617 58.7734L84.8281 58.6641L89.3125 58.1172L90.4609 58.0078L90.543 59.1289L90.9805 65.4727C90.9987 65.819 91.0352 66.138 91.0898 66.4297C91.1628 66.7031 91.2357 66.9583 91.3086 67.1953C91.3997 67.4141 91.5091 67.6146 91.6367 67.7969C91.7826 67.9609 91.9375 68.1068 92.1016 68.2344C92.2656 68.362 92.4479 68.4622 92.6484 68.5352C92.8672 68.6081 93.1042 68.6628 93.3594 68.6992C93.6146 68.7357 93.888 68.7539 94.1797 68.7539C95.1823 68.7539 95.9297 68.4076 96.4219 67.7148C96.9141 67.0039 97.1602 65.7643 97.1602 63.9961C97.1602 62.2279 96.7773 60.0039 96.0117 57.3242L95.6836 56.2578L96.7773 55.957L101.453 54.6992L102.465 54.4258L102.766 55.4375C103.714 58.4271 104.178 61.2161 104.16 63.8047C104.16 63.8411 104.16 63.8685 104.16 63.8867C104.16 63.9049 104.16 63.9323 104.16 63.9688C104.142 68.4349 102.911 71.7435 100.469 73.8945C98.8828 75.2799 96.8229 75.9727 94.2891 75.9727C93.2865 75.9727 92.3568 75.8633 91.5 75.6445C90.6615 75.4258 89.8958 75.0977 89.2031 74.6602C88.5104 74.2044 87.918 73.6393 87.4258 72.9648C85.4753 74.9883 82.9414 76 79.8242 76C76.306 75.9818 73.7721 74.9883 72.2227 73.0195C70.3633 75.0065 67.4557 76 63.5 76H61.9688C61.0755 76 60.4102 75.6628 59.9727 74.9883C59.5169 74.3138 59.2891 73.4844 59.2891 72.5V71.9805C59.2891 71.0872 59.526 70.3307 60 69.7109C60.4557 69.0911 61.112 68.7812 61.9688 68.7812H63.5547C65.25 68.7812 66.5169 68.526 67.3555 68.0156C68.194 67.487 68.7227 66.694 68.9414 65.6367C69.0326 65.181 69.0781 64.6159 69.0781 63.9414C69.0781 63.6862 69.069 63.431 69.0508 63.1758C69.0508 62.9023 69.0417 62.6289 69.0234 62.3555C69.0052 62.082 68.987 61.7995 68.9688 61.5078L68.8047 59.8398L68.7227 58.7734L69.7617 58.6641L74.2734 58.1172L75.4219 58.0078L75.5039 59.1289L75.9414 65.4727C76.0143 66.6393 76.3516 67.487 76.9531 68.0156C77.5547 68.526 78.5299 68.7812 79.8789 68.7812C81.1185 68.7812 82.0573 68.5352 82.6953 68.043C83.3333 67.5508 83.7617 66.7487 83.9805 65.6367ZM145.531 76C138.148 76 132.516 74.806 128.633 72.418C124.75 70.0299 122.809 66.4297 122.809 61.6172C122.809 58.9922 123.337 56.5039 124.395 54.1523L124.832 53.168L125.844 53.6055L130.137 55.4648L131.121 55.9023L130.738 56.8867C130.447 57.5794 130.228 58.263 130.082 58.9375C129.954 59.5938 129.891 60.2409 129.891 60.8789C129.891 61.5898 129.982 62.2552 130.164 62.875C130.365 63.4948 130.656 64.0781 131.039 64.625C131.422 65.1719 131.905 65.6641 132.488 66.1016C133.09 66.5208 133.81 66.9036 134.648 67.25C135.487 67.5781 136.426 67.8607 137.465 68.0977C138.522 68.3164 139.716 68.4896 141.047 68.6172C142.378 68.7266 143.827 68.7812 145.395 68.7812C149.97 68.7812 153.68 68.4987 156.523 67.9336C159.367 67.3503 161.254 66.5664 162.184 65.582C162.366 65.3815 162.512 65.0716 162.621 64.6523C162.749 64.2148 162.812 63.6589 162.812 62.9844C162.812 62.7839 162.812 62.5924 162.812 62.4102C162.812 62.2279 162.803 62.0638 162.785 61.918C162.785 61.7721 162.785 61.6354 162.785 61.5078L162.621 59.2656L162.566 58.2266L163.578 58.1172L168.09 57.5703L169.238 57.4609L169.32 58.582L169.758 64.4609C169.849 65.7917 170.223 66.8763 170.879 67.7148C171.152 68.0612 171.526 68.3255 172 68.5078C172.492 68.6901 173.112 68.7812 173.859 68.7812H174.215C174.434 68.7812 174.634 68.8177 174.816 68.8906C174.999 68.9635 175.145 69.0456 175.254 69.1367C175.363 69.2279 175.454 69.3737 175.527 69.5742C175.618 69.7565 175.682 69.9115 175.719 70.0391C175.773 70.1484 175.81 70.3307 175.828 70.5859C175.846 70.8229 175.855 70.987 175.855 71.0781C175.855 71.1693 175.855 71.3424 175.855 71.5977C175.855 71.8346 175.855 71.9622 175.855 71.9805V72.5C175.855 72.5365 175.855 72.7096 175.855 73.0195C175.874 73.3112 175.874 73.5299 175.855 73.6758C175.855 73.8034 175.837 74.013 175.801 74.3047C175.783 74.5781 175.737 74.7969 175.664 74.9609C175.591 75.125 175.491 75.2982 175.363 75.4805C175.254 75.6628 175.099 75.7995 174.898 75.8906C174.716 75.9635 174.488 76 174.215 76H173.859C172.018 76 170.378 75.6445 168.938 74.9336C167.497 74.2227 166.312 73.1745 165.383 71.7891C161.81 74.5964 155.229 76 145.641 76H145.531ZM138.148 49.832L142.113 45.8398L142.523 45.4297L142.934 45.8398L146.953 49.8594L146.98 49.8867L147.035 49.832L151.027 45.8398L151.438 45.4297L151.848 45.8398L155.84 49.8594L156.25 50.2695L155.84 50.6797L151.875 54.6445L151.465 55.0547L151.055 54.6445L147.035 50.6523L147.008 50.625L146.953 50.6797L142.961 54.6445L142.551 55.0547L142.168 54.6445L138.148 50.6523L137.738 50.2422L138.148 49.832ZM189.801 48.2188L193.684 44.3359L194.094 43.9258L194.504 44.3359L198.441 48.2461L198.551 48.3555L198.688 48.2188L202.598 44.3359L203.008 43.9258L203.418 44.3359L207.328 48.2461L207.738 48.6562L207.328 49.0664L203.445 52.9492L203.035 53.3594L202.625 52.9492L198.688 49.0391L198.578 48.9297L198.441 49.0664L194.531 52.9492L194.121 53.3594L193.738 52.9492L189.801 49.0391L189.391 48.6289L189.801 48.2188ZM194.203 40.8906L198.086 36.9805L198.496 36.5703L198.906 36.9805L202.816 40.918L203.227 41.3281L202.816 41.7383L198.934 45.6211L198.523 46.0312L198.113 45.6211L194.203 41.7109L193.793 41.3008L194.203 40.8906ZM202.871 65.4727C202.926 66.2747 203.072 66.9219 203.309 67.4141C203.564 67.888 203.91 68.2344 204.348 68.4531C204.803 68.6536 205.396 68.7539 206.125 68.7539C207.164 68.7539 207.921 68.4349 208.395 67.7969C208.887 67.1589 209.124 66.0286 209.105 64.4062C209.105 63.0026 209.069 61.8451 208.996 60.9336L208.832 59.2656L208.75 58.2266L209.789 58.0898L214.301 57.5703L215.422 57.4336L215.531 58.5547L215.969 63.7227C216.042 64.6523 216.178 65.4453 216.379 66.1016C216.598 66.7578 216.871 67.2865 217.199 67.6875C217.546 68.0703 217.938 68.3529 218.375 68.5352C218.831 68.6992 219.35 68.7812 219.934 68.7812H220.426C220.663 68.7812 220.863 68.8177 221.027 68.8906C221.21 68.9635 221.355 69.0456 221.465 69.1367C221.592 69.2279 221.693 69.3737 221.766 69.5742C221.857 69.7565 221.921 69.9115 221.957 70.0391C221.993 70.1484 222.021 70.3307 222.039 70.5859C222.076 70.8229 222.094 70.987 222.094 71.0781C222.094 71.1693 222.085 71.3424 222.066 71.5977C222.066 71.8346 222.066 71.9622 222.066 71.9805V72.5C222.066 73.6302 222.039 74.3229 221.984 74.5781C221.766 75.5078 221.246 75.9818 220.426 76H219.988C216.762 76 214.456 75.0521 213.07 73.1562C212.268 74.1224 211.293 74.8424 210.145 75.3164C209.014 75.7721 207.729 76 206.289 76C204.794 76 203.454 75.7448 202.27 75.2344C201.103 74.7057 200.137 73.9401 199.371 72.9375C197.402 74.9792 194.85 76 191.715 76C188.197 75.9818 185.663 74.9883 184.113 73.0195C182.254 75.0065 179.346 76 175.391 76H173.859C172.966 76 172.301 75.6628 171.863 74.9883C171.408 74.3138 171.18 73.4844 171.18 72.5V71.9805C171.18 71.0872 171.417 70.3307 171.891 69.7109C172.346 69.0911 173.003 68.7812 173.859 68.7812H175.445C178.617 68.7812 180.422 67.7331 180.859 65.6367C180.932 65.2721 180.969 64.707 180.969 63.9414C180.969 63.194 180.932 62.3828 180.859 61.5078L180.695 59.8398L180.613 58.7734L181.652 58.6641L186.164 58.1172L187.312 58.0078L187.395 59.1289L187.832 65.4727C187.905 66.6393 188.242 67.487 188.844 68.0156C189.445 68.526 190.421 68.7812 191.77 68.7812C192.408 68.7812 192.954 68.7266 193.41 68.6172C193.884 68.4896 194.285 68.2982 194.613 68.043C194.941 67.7695 195.206 67.4414 195.406 67.0586C195.625 66.6758 195.789 66.2018 195.898 65.6367C195.971 65.2721 196.008 64.707 196.008 63.9414C196.008 63.1393 195.971 62.3281 195.898 61.5078L195.762 59.8398L195.652 58.7734L196.719 58.6641L201.203 58.1172L202.352 58.0078L202.434 59.1289L202.871 65.4727ZM237.434 56.1211C238.71 57.4883 239.667 58.9466 240.305 60.4961C240.943 62.0456 241.243 63.6589 241.207 65.3359C241.152 68.9271 239.63 71.6068 236.641 73.375C233.669 75.125 229.431 76 223.926 76H220.016C219.122 76 218.457 75.6628 218.02 74.9883C217.564 74.3138 217.336 73.4844 217.336 72.5V71.9805C217.336 71.0872 217.573 70.3307 218.047 69.7109C218.503 69.0911 219.159 68.7812 220.016 68.7812H223.898C230.68 68.763 234.089 67.3867 234.125 64.6523C234.125 63.1758 233.296 61.6628 231.637 60.1133C230.251 58.819 228.939 57.6432 227.699 56.5859C226.46 55.5104 225.302 54.5534 224.227 53.7148C221.875 51.8737 220.699 49.8776 220.699 47.7266C220.699 46.3047 221.091 45.0833 221.875 44.0625C222.677 43.0417 223.798 42.2578 225.238 41.7109L244.188 34.5195L245.664 33.9453V35.5312V40.4805V41.2188L244.953 41.4922L228.328 47.6992C232.393 51.1628 235.428 53.9701 237.434 56.1211ZM245.035 31.5117L223.188 39.9609L222.395 40.2617V39.4141V35.9141V35.5039L222.777 35.3672L244.625 26.918L245.418 26.6172V27.4922V30.9648V31.375L245.035 31.5117ZM258.68 60.0586L260.211 65.3359C260.576 66.5573 261.086 67.4414 261.742 67.9883C262.398 68.5169 263.273 68.7812 264.367 68.7812H265.133C265.315 68.7812 265.488 68.8086 265.652 68.8633C265.816 68.8997 265.953 68.9727 266.062 69.082C266.172 69.1914 266.263 69.2917 266.336 69.3828C266.427 69.474 266.5 69.6107 266.555 69.793C266.609 69.957 266.646 70.0938 266.664 70.2031C266.701 70.2943 266.719 70.4492 266.719 70.668C266.737 70.8867 266.746 71.0326 266.746 71.1055C266.764 71.1784 266.773 71.3151 266.773 71.5156C266.773 71.7161 266.773 71.8255 266.773 71.8438V72.5C266.773 72.5182 266.773 72.6823 266.773 72.9922C266.792 73.3021 266.792 73.5299 266.773 73.6758C266.773 73.8034 266.755 74.013 266.719 74.3047C266.701 74.5964 266.655 74.8242 266.582 74.9883C266.509 75.1341 266.409 75.2982 266.281 75.4805C266.172 75.6628 266.017 75.7995 265.816 75.8906C265.616 75.9635 265.388 76 265.133 76H264.668C262.918 76 261.523 75.7812 260.484 75.3438C259.628 79.4271 257.54 82.6354 254.223 84.9688C250.923 87.3203 246.493 88.7969 240.934 89.3984L239.977 89.5078L239.758 88.5781L238.582 83.9297L238.281 82.6992L239.539 82.5625C244.516 82.0703 248.18 80.8398 250.531 78.8711C252.883 76.9206 254.049 74.2044 254.031 70.7227C254.031 68.1523 253.348 65.3997 251.98 62.4648L251.461 61.3711L252.609 60.9609L257.258 59.3477L258.352 58.9648L258.68 60.0586ZM266.773 76H264.695C263.802 76 263.137 75.6628 262.699 74.9883C262.243 74.3138 262.016 73.4844 262.016 72.5V71.9805C262.016 71.0872 262.253 70.3307 262.727 69.7109C263.182 69.0911 263.839 68.7812 264.695 68.7812H266.773C269.49 68.7812 271.285 68.5352 272.16 68.043C273.345 67.3503 273.938 65.7643 273.938 63.2852C273.938 61.207 273.618 58.8828 272.98 56.3125L272.707 55.2461L273.773 55L278.23 53.8789L279.215 53.6055L279.543 54.5898C280.454 57.543 280.91 60.4141 280.91 63.2031C280.892 68.0339 279.47 71.5247 276.645 73.6758C276.098 74.0768 275.478 74.4323 274.785 74.7422C274.111 75.0339 273.354 75.2708 272.516 75.4531C271.695 75.6354 270.811 75.7721 269.863 75.8633C268.915 75.9544 267.885 76 266.773 76ZM267.812 84.2578L271.805 80.2656L272.215 79.8555L272.625 80.2656L276.617 84.2852L277.027 84.6953L276.617 85.1055L272.652 89.0703L272.242 89.4805L271.832 89.0703L267.812 85.0781L267.402 84.668L267.812 84.2578Z" fill="#EF4444"/>
</svg>
