<svg width="362" height="121" viewBox="0 0 362 121" fill="none" xmlns="http://www.w3.org/2000/svg">
<mask id="path-1-inside-1_303:5" fill="white">
<rect width="362" height="121" rx="6"/>
</mask>
<rect width="362" height="121" rx="6" stroke="black" stroke-width="16" mask="url(#path-1-inside-1_303:5)"/>
<path d="M36.6094 75.9727C34.0938 75.9727 31.4232 75.7083 28.5977 75.1797L27.6953 75.0156V74.0859V69.0547V67.7148L29.0078 67.9883C31.487 68.4987 34.0664 68.7539 36.7461 68.7539C37.8763 68.7539 38.8789 68.7083 39.7539 68.6172C40.6471 68.5078 41.3672 68.3711 41.9141 68.207C42.4792 68.0247 42.9349 67.806 43.2812 67.5508C43.6458 67.2956 43.901 67.0404 44.0469 66.7852C44.1927 66.5117 44.2656 66.2201 44.2656 65.9102C44.2656 65.4909 44.056 64.6432 43.6367 63.3672C43.2174 62.0911 42.625 60.5326 41.8594 58.6914L38.3867 50.4883L37.9766 49.5039L38.9336 49.0664L43.4453 46.9883L44.4844 46.4961L44.9219 47.5898L50.3359 61.3164C51.3385 63.8685 52.3229 65.7552 53.2891 66.9766C54.2552 68.1797 55.0846 68.7812 55.7773 68.7812H56.3242C56.543 68.7812 56.7344 68.8177 56.8984 68.8906C57.0807 68.9635 57.2266 69.0456 57.3359 69.1367C57.4635 69.2279 57.5638 69.3737 57.6367 69.5742C57.7279 69.7565 57.7917 69.9115 57.8281 70.0391C57.8646 70.1484 57.8919 70.3307 57.9102 70.5859C57.9466 70.8229 57.9648 70.987 57.9648 71.0781C57.9648 71.1693 57.9648 71.3424 57.9648 71.5977C57.9648 71.8346 57.9648 71.9622 57.9648 71.9805V72.4727C57.9648 73.1471 57.9284 73.6667 57.8555 74.0312C57.8008 74.5052 57.7096 74.8698 57.582 75.125V75.1523L57.5547 75.1797C57.263 75.7266 56.8529 76 56.3242 76H55.7773C52.7878 76 50.3542 74.7513 48.4766 72.2539C45.7969 74.7331 41.8411 75.9727 36.6094 75.9727ZM71.9102 48.2188L75.793 44.3359L76.2031 43.9258L76.6133 44.3359L80.5508 48.2461L80.6602 48.3555L80.7969 48.2188L84.707 44.3359L85.1172 43.9258L85.5273 44.3359L89.4375 48.2461L89.8477 48.6562L89.4375 49.0664L85.5547 52.9492L85.1445 53.3594L84.7344 52.9492L80.7969 49.0391L80.6875 48.9297L80.5508 49.0664L76.6406 52.9492L76.2305 53.3594L75.8477 52.9492L71.9102 49.0391L71.5 48.6289L71.9102 48.2188ZM76.3125 40.8906L80.1953 36.9805L80.6055 36.5703L81.0156 36.9805L84.9258 40.918L85.3359 41.3281L84.9258 41.7383L81.043 45.6211L80.6328 46.0312L80.2227 45.6211L76.3125 41.7109L75.9023 41.3008L76.3125 40.8906ZM77.9805 65.6367C78.0716 65.181 78.1172 64.6159 78.1172 63.9414C78.1172 63.668 78.1081 63.4036 78.0898 63.1484C78.0898 62.875 78.0807 62.6016 78.0625 62.3281C78.0443 62.0547 78.026 61.7812 78.0078 61.5078L77.8711 59.8398L77.7617 58.7734L78.8281 58.6641L83.3125 58.1172L84.4609 58.0078L84.543 59.1289L84.9805 65.4727C84.9987 65.819 85.0352 66.138 85.0898 66.4297C85.1628 66.7031 85.2357 66.9583 85.3086 67.1953C85.3997 67.4141 85.5091 67.6146 85.6367 67.7969C85.7826 67.9609 85.9375 68.1068 86.1016 68.2344C86.2656 68.362 86.4479 68.4622 86.6484 68.5352C86.8672 68.6081 87.1042 68.6628 87.3594 68.6992C87.6146 68.7357 87.888 68.7539 88.1797 68.7539C89.1823 68.7539 89.9297 68.4076 90.4219 67.7148C90.9141 67.0039 91.1602 65.7643 91.1602 63.9961C91.1602 62.2279 90.7773 60.0039 90.0117 57.3242L89.6836 56.2578L90.7773 55.957L95.4531 54.6992L96.4648 54.4258L96.7656 55.4375C97.7135 58.4271 98.1784 61.2161 98.1602 63.8047C98.1602 63.8411 98.1602 63.8685 98.1602 63.8867C98.1602 63.9049 98.1602 63.9323 98.1602 63.9688C98.1419 68.4349 96.9115 71.7435 94.4688 73.8945C92.8828 75.2799 90.8229 75.9727 88.2891 75.9727C87.2865 75.9727 86.3568 75.8633 85.5 75.6445C84.6615 75.4258 83.8958 75.0977 83.2031 74.6602C82.5104 74.2044 81.918 73.6393 81.4258 72.9648C79.4753 74.9883 76.9414 76 73.8242 76C70.306 75.9818 67.7721 74.9883 66.2227 73.0195C64.3633 75.0065 61.4557 76 57.5 76H55.9688C55.0755 76 54.4102 75.6628 53.9727 74.9883C53.5169 74.3138 53.2891 73.4844 53.2891 72.5V71.9805C53.2891 71.0872 53.526 70.3307 54 69.7109C54.4557 69.0911 55.112 68.7812 55.9688 68.7812H57.5547C59.25 68.7812 60.5169 68.526 61.3555 68.0156C62.194 67.487 62.7227 66.694 62.9414 65.6367C63.0326 65.181 63.0781 64.6159 63.0781 63.9414C63.0781 63.6862 63.069 63.431 63.0508 63.1758C63.0508 62.9023 63.0417 62.6289 63.0234 62.3555C63.0052 62.082 62.987 61.7995 62.9688 61.5078L62.8047 59.8398L62.7227 58.7734L63.7617 58.6641L68.2734 58.1172L69.4219 58.0078L69.5039 59.1289L69.9414 65.4727C70.0143 66.6393 70.3516 67.487 70.9531 68.0156C71.5547 68.526 72.5299 68.7812 73.8789 68.7812C75.1185 68.7812 76.0573 68.5352 76.6953 68.043C77.3333 67.5508 77.7617 66.7487 77.9805 65.6367ZM133.871 59.9219C135.457 63.5495 136.25 67.0495 136.25 70.4219C136.25 76 134.546 80.3841 131.137 83.5742C127.728 86.7643 122.733 88.7057 116.152 89.3984L115.195 89.5078L114.977 88.5781L113.801 83.9297L113.5 82.6992L114.758 82.5625C119.734 82.0703 123.398 80.8398 125.75 78.8711C128.102 76.9206 129.268 74.2135 129.25 70.75C129.25 68.125 128.576 65.3633 127.227 62.4648L126.707 61.3711L127.855 60.9609L132.504 59.3477L133.461 58.9922L133.871 59.9219ZM140.762 68.0703C142.986 68.526 145.109 68.7539 147.133 68.7539C153.148 68.7539 156.156 67.4688 156.156 64.8984C156.156 63.2943 155.263 61.4805 153.477 59.457C151.69 57.4336 148.974 55.2734 145.328 52.9766L144.371 52.375L145 51.4453L147.734 47.2891L148.309 46.4141L149.211 46.9609C158.581 52.5391 163.266 58.4909 163.266 64.8164C163.266 66.3112 163.038 67.6602 162.582 68.8633C162.126 70.0664 161.461 71.1055 160.586 71.9805C159.711 72.8555 158.626 73.5938 157.332 74.1953C156.056 74.7786 154.598 75.2161 152.957 75.5078C151.316 75.7995 149.493 75.9453 147.488 75.9453C144.736 75.9453 142.339 75.7174 140.297 75.2617L139.449 75.0703V74.1953V69.1367V67.7969L140.762 68.0703ZM182.16 72.4727C182.178 73.6576 182.133 74.4414 182.023 74.8242C181.75 75.6081 181.249 76 180.52 76H179.945C176.117 76 173.21 74.888 171.223 72.6641C169.236 70.4219 168.242 67.2135 168.242 63.0391V37.7734V36.6797H169.336H174.094H175.188V37.7734V62.9844C175.188 65.0443 175.57 66.5299 176.336 67.4414C177.12 68.3346 178.35 68.7812 180.027 68.7812H180.52C180.738 68.7812 180.93 68.8177 181.094 68.8906C181.276 68.9635 181.431 69.0456 181.559 69.1367C181.668 69.2279 181.759 69.3737 181.832 69.5742C181.923 69.7565 181.987 69.9115 182.023 70.0391C182.06 70.1484 182.087 70.3307 182.105 70.5859C182.142 70.8229 182.16 70.987 182.16 71.0781C182.16 71.1693 182.16 71.3424 182.16 71.5977C182.16 71.8346 182.16 71.9622 182.16 71.9805V72.4727ZM201.738 68.7812H203.926C208.811 68.7812 212.284 68.3164 214.344 67.3867C215.146 67.0404 215.793 66.6484 216.285 66.2109C216.777 65.7734 217.133 65.2904 217.352 64.7617C217.57 64.2331 217.689 63.6315 217.707 62.957C217.707 62.0273 217.461 61.2435 216.969 60.6055C216.112 59.4935 214.891 58.9284 213.305 58.9102C212.284 58.9284 211.181 59.2747 209.996 59.9492C208.829 60.6237 207.535 61.7083 206.113 63.2031C204.71 64.6797 203.251 66.5391 201.738 68.7812ZM189.844 72.6641C187.693 74.888 184.621 76 180.629 76H180.164C179.271 76 178.605 75.6628 178.168 74.9883C177.712 74.3138 177.484 73.4844 177.484 72.5V71.9805C177.484 71.069 177.721 70.3125 178.195 69.7109C178.669 69.0911 179.335 68.7812 180.191 68.7812H180.629C181.595 68.7812 182.434 68.7174 183.145 68.5898C183.855 68.4622 184.421 68.2799 184.84 68.043C185.277 67.7878 185.605 67.5052 185.824 67.1953C186.061 66.8672 186.216 66.4935 186.289 66.0742C186.49 65.0352 186.517 63.5039 186.371 61.4805L186.234 59.2383L186.152 58.1992L187.191 58.0898L191.703 57.543L192.824 57.4336L192.906 58.5547L193.398 64.8984C193.417 65.1719 193.444 65.4271 193.48 65.6641C193.517 65.901 193.553 66.1198 193.59 66.3203C193.645 66.5026 193.699 66.6758 193.754 66.8398C193.809 67.0039 193.863 67.1497 193.918 67.2773C193.991 67.3867 194.055 67.4779 194.109 67.5508C196.26 64.0326 198.375 61.0977 200.453 58.7461C202.531 56.3763 204.646 54.5716 206.797 53.332C208.948 52.0924 211.09 51.4818 213.223 51.5C215.301 51.5 217.151 51.901 218.773 52.7031C220.414 53.5052 221.79 54.6992 222.902 56.2852C224.233 58.2174 224.889 60.332 224.871 62.6289C224.871 63.7044 224.743 64.8346 224.488 66.0195C222.939 72.6732 216.03 76 203.762 76H202.367C199.323 76 196.753 75.7357 194.656 75.207C192.578 74.6784 190.974 73.8307 189.844 72.6641ZM252.461 75.9727C249.945 75.9727 247.275 75.7083 244.449 75.1797L243.547 75.0156V74.0859V69.0547V67.7148L244.859 67.9883C247.339 68.4987 249.918 68.7539 252.598 68.7539C253.728 68.7539 254.73 68.7083 255.605 68.6172C256.499 68.5078 257.219 68.3711 257.766 68.207C258.331 68.0247 258.786 67.806 259.133 67.5508C259.497 67.2956 259.753 67.0404 259.898 66.7852C260.044 66.5117 260.117 66.2201 260.117 65.9102C260.117 65.4909 259.908 64.6432 259.488 63.3672C259.069 62.0911 258.477 60.5326 257.711 58.6914L254.238 50.4883L253.828 49.5039L254.785 49.0664L259.297 46.9883L260.336 46.4961L260.773 47.5898L266.188 61.3164C267.19 63.8685 268.174 65.7552 269.141 66.9766C270.107 68.1797 270.936 68.7812 271.629 68.7812H272.176C272.395 68.7812 272.586 68.8177 272.75 68.8906C272.932 68.9635 273.078 69.0456 273.188 69.1367C273.315 69.2279 273.415 69.3737 273.488 69.5742C273.579 69.7565 273.643 69.9115 273.68 70.0391C273.716 70.1484 273.743 70.3307 273.762 70.5859C273.798 70.8229 273.816 70.987 273.816 71.0781C273.816 71.1693 273.816 71.3424 273.816 71.5977C273.816 71.8346 273.816 71.9622 273.816 71.9805V72.4727C273.816 73.1471 273.78 73.6667 273.707 74.0312C273.652 74.5052 273.561 74.8698 273.434 75.125V75.1523L273.406 75.1797C273.115 75.7266 272.704 76 272.176 76H271.629C268.639 76 266.206 74.7513 264.328 72.2539C261.648 74.7331 257.693 75.9727 252.461 75.9727ZM293.477 72.5C293.477 72.5547 293.477 72.7005 293.477 72.9375C293.477 73.1745 293.477 73.3659 293.477 73.5117C293.477 73.6393 293.467 73.8216 293.449 74.0586C293.431 74.2956 293.404 74.4961 293.367 74.6602C293.331 74.806 293.267 74.9792 293.176 75.1797C293.103 75.362 293.003 75.5078 292.875 75.6172C292.766 75.7266 292.62 75.8177 292.438 75.8906C292.255 75.9635 292.055 76 291.836 76H291.562C288.19 76 285.665 74.9609 283.988 72.8828C281.892 74.9609 278.775 76 274.637 76H271.793C270.9 76 270.234 75.6628 269.797 74.9883C269.359 74.2956 269.141 73.4661 269.141 72.5V71.9805C269.141 71.3971 269.232 70.8776 269.414 70.4219C269.596 69.9479 269.897 69.556 270.316 69.2461C270.717 68.9362 271.21 68.7812 271.793 68.7812H274.5C278.109 68.7812 280.078 67.8789 280.406 66.0742C280.516 65.4909 280.57 64.7982 280.57 63.9961C280.57 63.1029 280.543 62.2643 280.488 61.4805L280.352 59.2383L280.27 58.1992L281.309 58.0898L285.82 57.543L286.941 57.4336L287.023 58.5547L287.461 64.8984C287.57 66.2839 287.944 67.2773 288.582 67.8789C289.22 68.4805 290.232 68.7812 291.617 68.7812H291.836C292.091 68.7812 292.319 68.8268 292.52 68.918C292.72 68.9909 292.875 69.1185 292.984 69.3008C293.094 69.4831 293.185 69.6562 293.258 69.8203C293.349 69.9661 293.404 70.1849 293.422 70.4766C293.458 70.75 293.477 70.9505 293.477 71.0781C293.477 71.2057 293.477 71.4245 293.477 71.7344C293.477 72.026 293.477 72.1901 293.477 72.2266V72.5ZM277.727 47.6992L281.719 43.707L282.129 43.2969L282.539 43.707L286.531 47.7266L286.941 48.1367L286.531 48.5469L282.566 52.5117L282.156 52.9219L281.746 52.5117L277.727 48.5195L277.316 48.1094L277.727 47.6992ZM313.465 65.6367C313.556 65.181 313.602 64.6159 313.602 63.9414C313.602 63.668 313.592 63.4036 313.574 63.1484C313.574 62.875 313.565 62.6016 313.547 62.3281C313.529 62.0547 313.51 61.7812 313.492 61.5078L313.355 59.8398L313.246 58.7734L314.312 58.6641L318.797 58.1172L319.945 58.0078L320.027 59.1289L320.465 65.4727C320.483 65.819 320.52 66.138 320.574 66.4297C320.647 66.7031 320.72 66.9583 320.793 67.1953C320.884 67.4141 320.993 67.6146 321.121 67.7969C321.267 67.9609 321.422 68.1068 321.586 68.2344C321.75 68.362 321.932 68.4622 322.133 68.5352C322.352 68.6081 322.589 68.6628 322.844 68.6992C323.099 68.7357 323.372 68.7539 323.664 68.7539C324.667 68.7539 325.414 68.4076 325.906 67.7148C326.398 67.0039 326.645 65.7643 326.645 63.9961C326.645 62.2279 326.262 60.0039 325.496 57.3242L325.168 56.2578L326.262 55.957L330.938 54.6992L331.949 54.4258L332.25 55.4375C333.198 58.4271 333.663 61.2161 333.645 63.8047C333.645 63.8411 333.645 63.8685 333.645 63.8867C333.645 63.9049 333.645 63.9323 333.645 63.9688C333.626 68.4349 332.396 71.7435 329.953 73.8945C328.367 75.2799 326.307 75.9727 323.773 75.9727C322.771 75.9727 321.841 75.8633 320.984 75.6445C320.146 75.4258 319.38 75.0977 318.688 74.6602C317.995 74.2044 317.402 73.6393 316.91 72.9648C314.96 74.9883 312.426 76 309.309 76C305.79 75.9818 303.257 74.9883 301.707 73.0195C299.848 75.0065 296.94 76 292.984 76H291.453C290.56 76 289.895 75.6628 289.457 74.9883C289.001 74.3138 288.773 73.4844 288.773 72.5V71.9805C288.773 71.0872 289.01 70.3307 289.484 69.7109C289.94 69.0911 290.596 68.7812 291.453 68.7812H293.039C294.734 68.7812 296.001 68.526 296.84 68.0156C297.678 67.487 298.207 66.694 298.426 65.6367C298.517 65.181 298.562 64.6159 298.562 63.9414C298.562 63.6862 298.553 63.431 298.535 63.1758C298.535 62.9023 298.526 62.6289 298.508 62.3555C298.49 62.082 298.471 61.7995 298.453 61.5078L298.289 59.8398L298.207 58.7734L299.246 58.6641L303.758 58.1172L304.906 58.0078L304.988 59.1289L305.426 65.4727C305.499 66.6393 305.836 67.487 306.438 68.0156C307.039 68.526 308.014 68.7812 309.363 68.7812C310.603 68.7812 311.542 68.5352 312.18 68.043C312.818 67.5508 313.246 66.7487 313.465 65.6367Z" fill="black"/>
</svg>
