<svg width="316" height="121" viewBox="0 0 316 121" fill="none" xmlns="http://www.w3.org/2000/svg">
<mask id="path-1-inside-1_303:5" fill="white">
<rect width="316" height="121" rx="6"/>
</mask>
<rect width="316" height="121" rx="6" stroke="#EF4444" stroke-width="16" mask="url(#path-1-inside-1_303:5)"/>
<path d="M70.9414 63.8047C70.9414 58.099 75.6172 53.7148 84.9688 50.6523L84.9141 50.3516L84.7227 49.3125L85.7617 49.0938L90.2188 48.1641L91.3398 47.9453L91.5039 49.0938L93.7734 65.2539C93.9375 66.5117 94.3294 67.4141 94.9492 67.9609C95.569 68.5078 96.5078 68.7812 97.7656 68.7812H98.3125C98.4766 68.7812 98.6315 68.8086 98.7773 68.8633C98.9414 68.8997 99.069 68.9544 99.1602 69.0273C99.2695 69.082 99.3698 69.1732 99.4609 69.3008C99.5521 69.4102 99.625 69.5195 99.6797 69.6289C99.7344 69.7201 99.7799 69.8477 99.8164 70.0117C99.8529 70.1576 99.8802 70.2852 99.8984 70.3945C99.9167 70.4857 99.9258 70.6224 99.9258 70.8047C99.944 70.987 99.9531 71.1146 99.9531 71.1875C99.9531 71.2604 99.9531 71.3789 99.9531 71.543C99.9531 71.707 99.9531 71.8073 99.9531 71.8438V72.5C99.9531 72.5365 99.9531 72.7096 99.9531 73.0195C99.9714 73.3112 99.9714 73.5299 99.9531 73.6758C99.9531 73.8034 99.9349 74.013 99.8984 74.3047C99.8802 74.5964 99.8346 74.8242 99.7617 74.9883C99.6888 75.1341 99.5885 75.2982 99.4609 75.4805C99.3516 75.6628 99.1966 75.7995 98.9961 75.8906C98.7956 75.9635 98.5677 76 98.3125 76H97.6562C95.3047 76 93.3177 75.5443 91.6953 74.6328C90.0911 73.7214 88.9336 72.3633 88.2227 70.5586C86.181 71.9622 83.9297 72.6641 81.4688 72.6641C76.9844 72.6641 73.8398 71.1602 72.0352 68.1523C71.6706 67.5326 71.3971 66.8581 71.2148 66.1289C71.0326 65.3997 70.9414 64.625 70.9414 63.8047ZM86.0352 57.4336C84.5951 57.9805 83.3464 58.5456 82.2891 59.1289C81.2318 59.694 80.3932 60.2318 79.7734 60.7422C79.1719 61.2526 78.7253 61.7357 78.4336 62.1914C78.1419 62.6471 77.9961 63.0755 77.9961 63.4766C77.9961 64.2604 78.224 64.8346 78.6797 65.1992C79.1536 65.5456 80.0195 65.7188 81.2773 65.7188C82.4987 65.7188 83.7201 65.3451 84.9414 64.5977C85.6341 64.1784 86.1081 63.6497 86.3633 63.0117C86.6185 62.3555 86.6641 61.5169 86.5 60.4961L86.0352 57.4336ZM100.008 76H97.9297C97.0365 76 96.3711 75.6628 95.9336 74.9883C95.4779 74.3138 95.25 73.4844 95.25 72.5V71.9805C95.25 71.0872 95.487 70.3307 95.9609 69.7109C96.4167 69.0911 97.0729 68.7812 97.9297 68.7812H100.008C102.724 68.7812 104.52 68.5352 105.395 68.043C106.579 67.3503 107.172 65.7643 107.172 63.2852C107.172 61.207 106.853 58.8828 106.215 56.3125L105.941 55.2461L107.008 55L111.465 53.8789L112.449 53.6055L112.777 54.5898C113.689 57.543 114.145 60.4141 114.145 63.2031C114.126 68.0339 112.704 71.5247 109.879 73.6758C109.332 74.0768 108.712 74.4323 108.02 74.7422C107.345 75.0339 106.589 75.2708 105.75 75.4531C104.93 75.6354 104.046 75.7721 103.098 75.8633C102.15 75.9544 101.12 76 100.008 76ZM102.605 45.3477L106.598 41.3555L107.008 40.9453L107.418 41.3555L111.41 45.375L111.82 45.7852L111.41 46.1953L107.445 50.1602L107.035 50.5703L106.625 50.1602L102.605 46.168L102.195 45.7578L102.605 45.3477ZM132.957 72.4727C132.975 73.6576 132.93 74.4414 132.82 74.8242C132.547 75.6081 132.046 76 131.316 76H130.742C126.914 76 124.007 74.888 122.02 72.6641C120.033 70.4219 119.039 67.2135 119.039 63.0391V37.7734V36.6797H120.133H124.891H125.984V37.7734V62.9844C125.984 65.0443 126.367 66.5299 127.133 67.4414C127.917 68.3346 129.147 68.7812 130.824 68.7812H131.316C131.535 68.7812 131.727 68.8177 131.891 68.8906C132.073 68.9635 132.228 69.0456 132.355 69.1367C132.465 69.2279 132.556 69.3737 132.629 69.5742C132.72 69.7565 132.784 69.9115 132.82 70.0391C132.857 70.1484 132.884 70.3307 132.902 70.5859C132.939 70.8229 132.957 70.987 132.957 71.0781C132.957 71.1693 132.957 71.3424 132.957 71.5977C132.957 71.8346 132.957 71.9622 132.957 71.9805V72.4727ZM148.406 69.5195C149.427 69.5195 150.138 69.3281 150.539 68.9453C150.94 68.5443 151.141 67.8516 151.141 66.8672C151.141 66.6484 151.132 66.4479 151.113 66.2656C151.113 66.0651 151.095 65.8737 151.059 65.6914C151.04 65.5091 151.013 65.3359 150.977 65.1719C150.94 64.9896 150.895 64.8255 150.84 64.6797C150.785 64.5339 150.73 64.388 150.676 64.2422C150.493 63.8229 150.293 63.4674 150.074 63.1758C149.855 62.8841 149.609 62.6471 149.336 62.4648C149.062 62.2643 148.753 62.1276 148.406 62.0547C148.078 61.9635 147.714 61.918 147.312 61.918C145.453 61.918 143.949 63.3581 142.801 66.2383C144.806 68.4258 146.674 69.5195 148.406 69.5195ZM139.191 72.582C136.931 74.8607 134.37 76 131.508 76H130.934C130.04 76 129.375 75.6628 128.938 74.9883C128.5 74.2956 128.281 73.4661 128.281 72.5V71.9805C128.281 71.0872 128.509 70.3307 128.965 69.7109C129.421 69.0911 130.077 68.7812 130.934 68.7812H131.371C132.501 68.7812 133.677 68.0521 134.898 66.5938C135.464 65.9193 136.102 64.7708 136.812 63.1484C139.401 57.4245 142.865 54.5534 147.203 54.5352C148.862 54.5352 150.357 54.8451 151.688 55.4648C153.036 56.0664 154.203 56.9779 155.188 58.1992C157.065 60.5508 158.004 63.3034 158.004 66.457C158.004 69.556 157.311 71.9258 155.926 73.5664C155.671 73.8398 155.406 74.1042 155.133 74.3594C154.859 74.6146 154.568 74.8516 154.258 75.0703C153.948 75.2708 153.629 75.4531 153.301 75.6172C152.973 75.7812 152.626 75.9271 152.262 76.0547C151.915 76.1823 151.551 76.2826 151.168 76.3555C150.803 76.4466 150.421 76.5104 150.02 76.5469C149.618 76.5833 149.208 76.6016 148.789 76.6016C145.289 76.6016 142.09 75.2617 139.191 72.582ZM173.672 60.0586L175.203 65.3359C175.568 66.5573 176.078 67.4414 176.734 67.9883C177.391 68.5169 178.266 68.7812 179.359 68.7812H180.125C180.307 68.7812 180.48 68.8086 180.645 68.8633C180.809 68.8997 180.945 68.9727 181.055 69.082C181.164 69.1914 181.255 69.2917 181.328 69.3828C181.419 69.474 181.492 69.6107 181.547 69.793C181.602 69.957 181.638 70.0938 181.656 70.2031C181.693 70.2943 181.711 70.4492 181.711 70.668C181.729 70.8867 181.738 71.0326 181.738 71.1055C181.757 71.1784 181.766 71.3151 181.766 71.5156C181.766 71.7161 181.766 71.8255 181.766 71.8438V72.5C181.766 72.5182 181.766 72.6823 181.766 72.9922C181.784 73.3021 181.784 73.5299 181.766 73.6758C181.766 73.8034 181.747 74.013 181.711 74.3047C181.693 74.5964 181.647 74.8242 181.574 74.9883C181.501 75.1341 181.401 75.2982 181.273 75.4805C181.164 75.6628 181.009 75.7995 180.809 75.8906C180.608 75.9635 180.38 76 180.125 76H179.66C177.91 76 176.516 75.7812 175.477 75.3438C174.62 79.4271 172.533 82.6354 169.215 84.9688C165.915 87.3203 161.486 88.7969 155.926 89.3984L154.969 89.5078L154.75 88.5781L153.574 83.9297L153.273 82.6992L154.531 82.5625C159.508 82.0703 163.172 80.8398 165.523 78.8711C167.875 76.9206 169.042 74.2044 169.023 70.7227C169.023 68.1523 168.34 65.3997 166.973 62.4648L166.453 61.3711L167.602 60.9609L172.25 59.3477L173.344 58.9648L173.672 60.0586ZM202.957 62.1367C202.483 61.9544 201.945 61.7448 201.344 61.5078C200.742 61.2526 200.077 60.9792 199.348 60.6875C195.902 59.3021 193.605 58.6094 192.457 58.6094C190.743 58.6094 189.331 59.3203 188.219 60.7422L187.453 61.7539L186.906 62.4375L186.113 62.0547L181.902 59.9766L180.836 59.457L181.465 58.418L181.902 57.6797C183.142 55.638 184.655 54.0977 186.441 53.0586C188.228 52.0013 190.242 51.4635 192.484 51.4453C194.964 51.4453 197.889 52.2656 201.262 53.9062C206.822 56.6042 211.087 58.0169 214.059 58.1445L215.098 58.1992V59.2656L215.043 63.9961V65.0078L214.031 65.0898C212.828 65.181 211.315 65.6549 209.492 66.5117C209.693 67.1862 210.303 67.7331 211.324 68.1523C212.345 68.5716 213.867 68.7812 215.891 68.7812H217.094C217.276 68.7812 217.449 68.8086 217.613 68.8633C217.777 68.8997 217.914 68.9727 218.023 69.082C218.133 69.1914 218.224 69.2917 218.297 69.3828C218.388 69.474 218.461 69.6107 218.516 69.793C218.57 69.957 218.607 70.0938 218.625 70.2031C218.661 70.3125 218.68 70.4766 218.68 70.6953C218.698 70.8958 218.707 71.0326 218.707 71.1055C218.725 71.1784 218.734 71.3151 218.734 71.5156C218.734 71.7161 218.734 71.8255 218.734 71.8438V72.5C218.734 72.5182 218.734 72.6823 218.734 72.9922C218.734 73.3021 218.734 73.5208 218.734 73.6484C218.734 73.776 218.716 73.9948 218.68 74.3047C218.661 74.5964 218.616 74.8151 218.543 74.9609C218.47 75.1068 218.37 75.2799 218.242 75.4805C218.133 75.6628 217.978 75.7995 217.777 75.8906C217.577 75.9635 217.34 76 217.066 76H215.453C213.357 76 211.516 75.763 209.93 75.2891C208.344 74.7969 207.022 74.0404 205.965 73.0195C204.926 71.9987 204.206 70.7227 203.805 69.1914C203.695 69.2461 203.586 69.3008 203.477 69.3555C203.367 69.4102 203.258 69.4648 203.148 69.5195C203.057 69.5742 202.957 69.6289 202.848 69.6836C194.882 73.8945 187.599 76 181 76H179.688C178.794 76 178.129 75.6628 177.691 74.9883C177.236 74.3138 177.008 73.4844 177.008 72.5V71.9805C177.008 71.0872 177.245 70.3307 177.719 69.7109C178.174 69.0911 178.831 68.7812 179.688 68.7812H181.328C187.125 68.7812 194.335 66.5664 202.957 62.1367ZM234.102 69.5195C235.122 69.5195 235.833 69.3281 236.234 68.9453C236.635 68.5443 236.836 67.8516 236.836 66.8672C236.836 66.6484 236.827 66.4479 236.809 66.2656C236.809 66.0651 236.79 65.8737 236.754 65.6914C236.736 65.5091 236.708 65.3359 236.672 65.1719C236.635 64.9896 236.59 64.8255 236.535 64.6797C236.48 64.5339 236.426 64.388 236.371 64.2422C236.189 63.8229 235.988 63.4674 235.77 63.1758C235.551 62.8841 235.305 62.6471 235.031 62.4648C234.758 62.2643 234.448 62.1276 234.102 62.0547C233.773 61.9635 233.409 61.918 233.008 61.918C231.148 61.918 229.645 63.3581 228.496 66.2383C230.501 68.4258 232.37 69.5195 234.102 69.5195ZM224.887 72.582C222.626 74.8607 220.065 76 217.203 76H216.629C215.736 76 215.07 75.6628 214.633 74.9883C214.195 74.2956 213.977 73.4661 213.977 72.5V71.9805C213.977 71.0872 214.204 70.3307 214.66 69.7109C215.116 69.0911 215.772 68.7812 216.629 68.7812H217.066C218.197 68.7812 219.372 68.0521 220.594 66.5938C221.159 65.9193 221.797 64.7708 222.508 63.1484C225.096 57.4245 228.56 54.5534 232.898 54.5352C234.557 54.5352 236.052 54.8451 237.383 55.4648C238.732 56.0664 239.898 56.9779 240.883 58.1992C242.76 60.5508 243.699 63.3034 243.699 66.457C243.699 69.556 243.007 71.9258 241.621 73.5664C241.366 73.8398 241.102 74.1042 240.828 74.3594C240.555 74.6146 240.263 74.8516 239.953 75.0703C239.643 75.2708 239.324 75.4531 238.996 75.6172C238.668 75.7812 238.322 75.9271 237.957 76.0547C237.611 76.1823 237.246 76.2826 236.863 76.3555C236.499 76.4466 236.116 76.5104 235.715 76.5469C235.314 76.5833 234.904 76.6016 234.484 76.6016C230.984 76.6016 227.785 75.2617 224.887 72.582Z" fill="#EF4444"/>
</svg>
