<svg width="316" height="121" viewBox="0 0 316 121" fill="none" xmlns="http://www.w3.org/2000/svg">
<mask id="path-1-inside-1_303:5" fill="white">
<rect width="316" height="121" rx="6"/>
</mask>
<rect width="316" height="121" rx="6" stroke="#4F46E5" stroke-width="16" mask="url(#path-1-inside-1_303:5)"/>
<path d="M77.6094 75.9727C75.0938 75.9727 72.4232 75.7083 69.5977 75.1797L68.6953 75.0156V74.0859V69.0547V67.7148L70.0078 67.9883C72.487 68.4987 75.0664 68.7539 77.7461 68.7539C78.8763 68.7539 79.8789 68.7083 80.7539 68.6172C81.6471 68.5078 82.3672 68.3711 82.9141 68.207C83.4792 68.0247 83.9349 67.806 84.2812 67.5508C84.6458 67.2956 84.901 67.0404 85.0469 66.7852C85.1927 66.5117 85.2656 66.2201 85.2656 65.9102C85.2656 65.4909 85.056 64.6432 84.6367 63.3672C84.2174 62.0911 83.625 60.5326 82.8594 58.6914L79.3867 50.4883L78.9766 49.5039L79.9336 49.0664L84.4453 46.9883L85.4844 46.4961L85.9219 47.5898L91.3359 61.3164C92.3385 63.8685 93.3229 65.7552 94.2891 66.9766C95.2552 68.1797 96.0846 68.7812 96.7773 68.7812H97.3242C97.543 68.7812 97.7344 68.8177 97.8984 68.8906C98.0807 68.9635 98.2266 69.0456 98.3359 69.1367C98.4635 69.2279 98.5638 69.3737 98.6367 69.5742C98.7279 69.7565 98.7917 69.9115 98.8281 70.0391C98.8646 70.1484 98.8919 70.3307 98.9102 70.5859C98.9466 70.8229 98.9648 70.987 98.9648 71.0781C98.9648 71.1693 98.9648 71.3424 98.9648 71.5977C98.9648 71.8346 98.9648 71.9622 98.9648 71.9805V72.4727C98.9648 73.1471 98.9284 73.6667 98.8555 74.0312C98.8008 74.5052 98.7096 74.8698 98.582 75.125V75.1523L98.5547 75.1797C98.263 75.7266 97.8529 76 97.3242 76H96.7773C93.7878 76 91.3542 74.7513 89.4766 72.2539C86.7969 74.7331 82.8411 75.9727 77.6094 75.9727ZM112.91 48.2188L116.793 44.3359L117.203 43.9258L117.613 44.3359L121.551 48.2461L121.66 48.3555L121.797 48.2188L125.707 44.3359L126.117 43.9258L126.527 44.3359L130.438 48.2461L130.848 48.6562L130.438 49.0664L126.555 52.9492L126.145 53.3594L125.734 52.9492L121.797 49.0391L121.688 48.9297L121.551 49.0664L117.641 52.9492L117.23 53.3594L116.848 52.9492L112.91 49.0391L112.5 48.6289L112.91 48.2188ZM117.312 40.8906L121.195 36.9805L121.605 36.5703L122.016 36.9805L125.926 40.918L126.336 41.3281L125.926 41.7383L122.043 45.6211L121.633 46.0312L121.223 45.6211L117.312 41.7109L116.902 41.3008L117.312 40.8906ZM118.98 65.6367C119.072 65.181 119.117 64.6159 119.117 63.9414C119.117 63.668 119.108 63.4036 119.09 63.1484C119.09 62.875 119.081 62.6016 119.062 62.3281C119.044 62.0547 119.026 61.7812 119.008 61.5078L118.871 59.8398L118.762 58.7734L119.828 58.6641L124.312 58.1172L125.461 58.0078L125.543 59.1289L125.98 65.4727C125.999 65.819 126.035 66.138 126.09 66.4297C126.163 66.7031 126.236 66.9583 126.309 67.1953C126.4 67.4141 126.509 67.6146 126.637 67.7969C126.783 67.9609 126.938 68.1068 127.102 68.2344C127.266 68.362 127.448 68.4622 127.648 68.5352C127.867 68.6081 128.104 68.6628 128.359 68.6992C128.615 68.7357 128.888 68.7539 129.18 68.7539C130.182 68.7539 130.93 68.4076 131.422 67.7148C131.914 67.0039 132.16 65.7643 132.16 63.9961C132.16 62.2279 131.777 60.0039 131.012 57.3242L130.684 56.2578L131.777 55.957L136.453 54.6992L137.465 54.4258L137.766 55.4375C138.714 58.4271 139.178 61.2161 139.16 63.8047C139.16 63.8411 139.16 63.8685 139.16 63.8867C139.16 63.9049 139.16 63.9323 139.16 63.9688C139.142 68.4349 137.911 71.7435 135.469 73.8945C133.883 75.2799 131.823 75.9727 129.289 75.9727C128.286 75.9727 127.357 75.8633 126.5 75.6445C125.661 75.4258 124.896 75.0977 124.203 74.6602C123.51 74.2044 122.918 73.6393 122.426 72.9648C120.475 74.9883 117.941 76 114.824 76C111.306 75.9818 108.772 74.9883 107.223 73.0195C105.363 75.0065 102.456 76 98.5 76H96.9688C96.0755 76 95.4102 75.6628 94.9727 74.9883C94.5169 74.3138 94.2891 73.4844 94.2891 72.5V71.9805C94.2891 71.0872 94.526 70.3307 95 69.7109C95.4557 69.0911 96.112 68.7812 96.9688 68.7812H98.5547C100.25 68.7812 101.517 68.526 102.355 68.0156C103.194 67.487 103.723 66.694 103.941 65.6367C104.033 65.181 104.078 64.6159 104.078 63.9414C104.078 63.6862 104.069 63.431 104.051 63.1758C104.051 62.9023 104.042 62.6289 104.023 62.3555C104.005 62.082 103.987 61.7995 103.969 61.5078L103.805 59.8398L103.723 58.7734L104.762 58.6641L109.273 58.1172L110.422 58.0078L110.504 59.1289L110.941 65.4727C111.014 66.6393 111.352 67.487 111.953 68.0156C112.555 68.526 113.53 68.7812 114.879 68.7812C116.118 68.7812 117.057 68.5352 117.695 68.043C118.333 67.5508 118.762 66.7487 118.98 65.6367ZM180.531 76C173.148 76 167.516 74.806 163.633 72.418C159.75 70.0299 157.809 66.4297 157.809 61.6172C157.809 58.9922 158.337 56.5039 159.395 54.1523L159.832 53.168L160.844 53.6055L165.137 55.4648L166.121 55.9023L165.738 56.8867C165.447 57.5794 165.228 58.263 165.082 58.9375C164.954 59.5938 164.891 60.2409 164.891 60.8789C164.891 61.5898 164.982 62.2552 165.164 62.875C165.365 63.4948 165.656 64.0781 166.039 64.625C166.422 65.1719 166.905 65.6641 167.488 66.1016C168.09 66.5208 168.81 66.9036 169.648 67.25C170.487 67.5781 171.426 67.8607 172.465 68.0977C173.522 68.3164 174.716 68.4896 176.047 68.6172C177.378 68.7266 178.827 68.7812 180.395 68.7812C184.97 68.7812 188.68 68.4987 191.523 67.9336C194.367 67.3503 196.254 66.5664 197.184 65.582C197.366 65.3815 197.512 65.0716 197.621 64.6523C197.749 64.2148 197.812 63.6589 197.812 62.9844C197.812 62.7839 197.812 62.5924 197.812 62.4102C197.812 62.2279 197.803 62.0638 197.785 61.918C197.785 61.7721 197.785 61.6354 197.785 61.5078L197.621 59.2656L197.566 58.2266L198.578 58.1172L203.09 57.5703L204.238 57.4609L204.32 58.582L204.758 64.4609C204.849 65.7917 205.223 66.8763 205.879 67.7148C206.152 68.0612 206.526 68.3255 207 68.5078C207.492 68.6901 208.112 68.7812 208.859 68.7812H209.215C209.434 68.7812 209.634 68.8177 209.816 68.8906C209.999 68.9635 210.145 69.0456 210.254 69.1367C210.363 69.2279 210.454 69.3737 210.527 69.5742C210.618 69.7565 210.682 69.9115 210.719 70.0391C210.773 70.1484 210.81 70.3307 210.828 70.5859C210.846 70.8229 210.855 70.987 210.855 71.0781C210.855 71.1693 210.855 71.3424 210.855 71.5977C210.855 71.8346 210.855 71.9622 210.855 71.9805V72.5C210.855 72.5365 210.855 72.7096 210.855 73.0195C210.874 73.3112 210.874 73.5299 210.855 73.6758C210.855 73.8034 210.837 74.013 210.801 74.3047C210.783 74.5781 210.737 74.7969 210.664 74.9609C210.591 75.125 210.491 75.2982 210.363 75.4805C210.254 75.6628 210.099 75.7995 209.898 75.8906C209.716 75.9635 209.488 76 209.215 76H208.859C207.018 76 205.378 75.6445 203.938 74.9336C202.497 74.2227 201.312 73.1745 200.383 71.7891C196.81 74.5964 190.229 76 180.641 76H180.531ZM173.148 49.832L177.113 45.8398L177.523 45.4297L177.934 45.8398L181.953 49.8594L181.98 49.8867L182.035 49.832L186.027 45.8398L186.438 45.4297L186.848 45.8398L190.84 49.8594L191.25 50.2695L190.84 50.6797L186.875 54.6445L186.465 55.0547L186.055 54.6445L182.035 50.6523L182.008 50.625L181.953 50.6797L177.961 54.6445L177.551 55.0547L177.168 54.6445L173.148 50.6523L172.738 50.2422L173.148 49.832ZM230.516 72.5C230.516 72.5547 230.516 72.7005 230.516 72.9375C230.516 73.1745 230.516 73.3659 230.516 73.5117C230.516 73.6393 230.507 73.8216 230.488 74.0586C230.47 74.2956 230.443 74.4961 230.406 74.6602C230.37 74.806 230.306 74.9792 230.215 75.1797C230.142 75.362 230.042 75.5078 229.914 75.6172C229.805 75.7266 229.659 75.8177 229.477 75.8906C229.294 75.9635 229.094 76 228.875 76H228.602C225.229 76 222.704 74.9609 221.027 72.8828C218.931 74.9609 215.814 76 211.676 76H208.832C207.939 76 207.273 75.6628 206.836 74.9883C206.398 74.2956 206.18 73.4661 206.18 72.5V71.9805C206.18 71.3971 206.271 70.8776 206.453 70.4219C206.635 69.9479 206.936 69.556 207.355 69.2461C207.757 68.9362 208.249 68.7812 208.832 68.7812H211.539C215.148 68.7812 217.117 67.8789 217.445 66.0742C217.555 65.4909 217.609 64.7982 217.609 63.9961C217.609 63.1029 217.582 62.2643 217.527 61.4805L217.391 59.2383L217.309 58.1992L218.348 58.0898L222.859 57.543L223.98 57.4336L224.062 58.5547L224.5 64.8984C224.609 66.2839 224.983 67.2773 225.621 67.8789C226.259 68.4805 227.271 68.7812 228.656 68.7812H228.875C229.13 68.7812 229.358 68.8268 229.559 68.918C229.759 68.9909 229.914 69.1185 230.023 69.3008C230.133 69.4831 230.224 69.6562 230.297 69.8203C230.388 69.9661 230.443 70.1849 230.461 70.4766C230.497 70.75 230.516 70.9505 230.516 71.0781C230.516 71.2057 230.516 71.4245 230.516 71.7344C230.516 72.026 230.516 72.1901 230.516 72.2266V72.5ZM213.043 84.2578L217.035 80.2656L217.445 79.8555L217.855 80.2656L221.848 84.2852L222.258 84.6953L221.848 85.1055L217.883 89.0703L217.473 89.4805L217.062 89.0703L213.043 85.0781L212.633 84.668L213.043 84.2578ZM230.57 76H228.492C227.599 76 226.934 75.6628 226.496 74.9883C226.04 74.3138 225.812 73.4844 225.812 72.5V71.9805C225.812 71.0872 226.049 70.3307 226.523 69.7109C226.979 69.0911 227.635 68.7812 228.492 68.7812H230.57C233.286 68.7812 235.082 68.5352 235.957 68.043C237.142 67.3503 237.734 65.7643 237.734 63.2852C237.734 61.207 237.415 58.8828 236.777 56.3125L236.504 55.2461L237.57 55L242.027 53.8789L243.012 53.6055L243.34 54.5898C244.251 57.543 244.707 60.4141 244.707 63.2031C244.689 68.0339 243.267 71.5247 240.441 73.6758C239.895 74.0768 239.275 74.4323 238.582 74.7422C237.908 75.0339 237.151 75.2708 236.312 75.4531C235.492 75.6354 234.608 75.7721 233.66 75.8633C232.712 75.9544 231.682 76 230.57 76ZM227.699 45.7578L231.582 41.875L231.992 41.4648L232.402 41.875L236.34 45.7852L236.449 45.8945L236.586 45.7578L240.496 41.875L240.906 41.4648L241.316 41.875L245.227 45.7852L245.637 46.1953L245.227 46.6055L241.344 50.4883L240.934 50.8984L240.523 50.4883L236.586 46.5781L236.477 46.4688L236.34 46.6055L232.43 50.4883L232.02 50.8984L231.637 50.4883L227.699 46.5781L227.289 46.168L227.699 45.7578ZM232.102 38.4297L235.984 34.5195L236.395 34.1094L236.805 34.5195L240.715 38.457L241.125 38.8672L240.715 39.2773L236.832 43.1602L236.422 43.5703L236.012 43.1602L232.102 39.25L231.691 38.8398L232.102 38.4297Z" fill="#4F46E5"/>
</svg>
