<svg width="316" height="121" viewBox="0 0 316 121" fill="none" xmlns="http://www.w3.org/2000/svg">
<mask id="path-1-inside-1_303:5" fill="white">
<rect width="316" height="121" rx="6"/>
</mask>
<rect width="316" height="121" rx="6" stroke="#4F46E5" stroke-width="16" mask="url(#path-1-inside-1_303:5)"/>
<path d="M109.695 73.7852C109.695 75.7721 110.105 77.4128 110.926 78.707C111.728 80.0013 113.004 80.9766 114.754 81.6328C116.522 82.3073 118.783 82.6536 121.535 82.6719C124.616 82.6719 127.359 82.1159 129.766 81.0039C130.969 80.4388 132.026 79.6914 132.938 78.7617C133.703 77.9779 134.104 77.0573 134.141 76C134.141 75.8724 134.132 75.7904 134.113 75.7539C134.059 75.6081 133.712 75.5352 133.074 75.5352L129.984 75.5078C127.487 75.4896 125.555 74.9336 124.188 73.8398C122.784 72.7096 122.082 71.0872 122.082 68.9727C122.082 65.2357 123.276 62.0729 125.664 59.4844C128.69 56.1667 132.928 54.5078 138.379 54.5078H138.953H140.047V55.6289V60.8789V61.9727H138.953H138.352C135.654 61.9727 133.448 62.5742 131.734 63.7773C130.167 64.8711 129.328 66.2565 129.219 67.9336C129.219 68.1159 129.237 68.2161 129.273 68.2344C129.365 68.3255 129.62 68.3711 130.039 68.3711H133.293C134.879 68.3529 136.228 68.5898 137.34 69.082C138.47 69.5742 139.336 70.3125 139.938 71.2969C140.557 72.2812 140.867 73.4844 140.867 74.9062C140.867 77.75 140.147 80.2292 138.707 82.3438C137.267 84.4583 135.152 86.1536 132.363 87.4297C130.741 88.1771 129.018 88.7331 127.195 89.0977C125.354 89.4622 123.422 89.6445 121.398 89.6445C115.328 89.6445 110.698 88.3138 107.508 85.6523C104.318 82.9909 102.723 79.0625 102.723 73.8672C102.723 69.8021 104.026 64.8255 106.633 58.9375L107.07 57.9805L108.055 58.3906L112.375 60.168L113.414 60.6055L112.977 61.6172C110.789 66.5573 109.695 70.6133 109.695 73.7852ZM161.348 59.9219C162.934 63.5495 163.727 67.0495 163.727 70.4219C163.727 76 162.022 80.3841 158.613 83.5742C155.204 86.7643 150.21 88.7057 143.629 89.3984L142.672 89.5078L142.453 88.5781L141.277 83.9297L140.977 82.6992L142.234 82.5625C147.211 82.0703 150.875 80.8398 153.227 78.8711C155.578 76.9206 156.745 74.2135 156.727 70.75C156.727 68.125 156.052 65.3633 154.703 62.4648L154.184 61.3711L155.332 60.9609L159.98 59.3477L160.938 58.9922L161.348 59.9219ZM181.309 68.7812C180.816 63.8594 179.449 61.3893 177.207 61.3711C176.605 61.3711 176.086 61.5625 175.648 61.9453C175.211 62.3281 174.828 62.9844 174.5 63.9141C174.208 64.7708 174.062 65.582 174.062 66.3477C174.062 66.8945 174.172 67.3411 174.391 67.6875C174.609 68.0156 175.02 68.2799 175.621 68.4805C176.223 68.681 177.043 68.7812 178.082 68.7812H181.309ZM188.062 68.8086H189.895C190.15 68.8086 190.378 68.8542 190.578 68.9453C190.779 69.0182 190.934 69.1458 191.043 69.3281C191.171 69.5104 191.271 69.6745 191.344 69.8203C191.417 69.9661 191.462 70.1849 191.48 70.4766C191.517 70.7682 191.535 70.9779 191.535 71.1055C191.553 71.2331 191.553 71.4518 191.535 71.7617C191.535 72.0534 191.535 72.2083 191.535 72.2266V72.5C191.535 72.5911 191.535 72.7188 191.535 72.8828C191.553 73.0286 191.544 73.3112 191.508 73.7305C191.471 74.1315 191.398 74.487 191.289 74.7969C191.198 75.1068 191.025 75.3893 190.77 75.6445C190.533 75.8815 190.241 76 189.895 76L187.734 75.9727C186.841 79.9102 184.763 82.9909 181.5 85.2148C178.255 87.457 173.917 88.8516 168.484 89.3984L167.555 89.4805L167.336 88.5781L166.16 83.875L165.859 82.6719L167.09 82.5352C174.345 81.7513 178.893 79.5729 180.734 76H178.355C174.801 76 172.057 75.2161 170.125 73.6484C168.211 72.0807 167.254 69.7839 167.254 66.7578C167.254 64.388 167.764 62.1367 168.785 60.0039C169.405 58.7096 170.143 57.625 171 56.75C171.857 55.8568 172.832 55.1823 173.926 54.7266C175.038 54.2526 176.241 54.0156 177.535 54.0156C180.579 54.0156 182.967 55.2917 184.699 57.8438C186.449 60.3958 187.57 64.0508 188.062 68.8086ZM201.926 65.8281C198.736 65.8281 196.266 65.1081 194.516 63.668C192.766 62.2096 191.872 60.0951 191.836 57.3242C191.836 57.0508 191.845 56.7773 191.863 56.5039C191.882 56.2122 191.909 55.9297 191.945 55.6562C191.982 55.3828 192.027 55.1094 192.082 54.8359C192.374 53.3229 192.793 51.9648 193.34 50.7617C193.905 49.5404 194.616 48.4922 195.473 47.6172C197.204 45.8307 199.355 44.9375 201.926 44.9375C202.783 44.9375 203.594 45.0469 204.359 45.2656C205.143 45.4844 205.872 45.8034 206.547 46.2227C209.883 48.3919 211.888 52.4661 212.562 58.4453C212.617 59.0651 212.663 59.6667 212.699 60.25C212.736 60.8151 212.754 61.3802 212.754 61.9453C212.754 67.4688 211.378 71.2604 208.625 73.3203C206.237 75.1068 202.172 76 196.43 76H189.539C188.646 76 187.98 75.6628 187.543 74.9883C187.087 74.3138 186.859 73.4844 186.859 72.5V71.9805C186.859 71.0872 187.096 70.3307 187.57 69.7109C188.026 69.0911 188.682 68.7812 189.539 68.7812H196.73C199.611 68.7812 201.807 68.4805 203.32 67.8789C204.852 67.2773 205.781 66.457 206.109 65.418C205.672 65.5091 205.216 65.5911 204.742 65.6641C204.286 65.7188 203.822 65.7643 203.348 65.8008C202.892 65.819 202.418 65.8281 201.926 65.8281ZM198.535 56.5859C198.535 57.3698 198.799 57.9531 199.328 58.3359C199.875 58.7188 200.859 58.901 202.281 58.8828C202.846 58.8828 203.411 58.8464 203.977 58.7734C204.56 58.7005 205.143 58.6003 205.727 58.4727C205.581 57.6523 205.408 56.9049 205.207 56.2305C205.025 55.556 204.806 54.9362 204.551 54.3711C204.35 53.9336 204.141 53.569 203.922 53.2773C203.703 52.9674 203.475 52.7214 203.238 52.5391C203.02 52.3568 202.783 52.2292 202.527 52.1562C202.29 52.0833 202.026 52.0469 201.734 52.0469C201.06 52.0469 200.486 52.2656 200.012 52.7031C199.538 53.1406 199.137 53.888 198.809 54.9453C198.736 55.1458 198.681 55.3464 198.645 55.5469C198.608 55.7292 198.581 55.9115 198.562 56.0938C198.544 56.2578 198.535 56.4219 198.535 56.5859ZM196.785 36.7891L200.777 32.7969L201.188 32.3867L201.598 32.7969L205.59 36.8164L206 37.2266L205.59 37.6367L201.625 41.6016L201.215 42.0117L200.805 41.6016L196.785 37.6094L196.375 37.1992L196.785 36.7891Z" fill="#4F46E5"/>
</svg>
