<svg width="316" height="121" viewBox="0 0 316 121" fill="none" xmlns="http://www.w3.org/2000/svg">
<mask id="path-1-inside-1_303:5" fill="white">
<rect width="316" height="121" rx="6"/>
</mask>
<rect width="316" height="121" rx="6" stroke="#4F46E5" stroke-width="16" mask="url(#path-1-inside-1_303:5)"/>
<path d="M42.6953 73.7852C42.6953 75.7721 43.1055 77.4128 43.9258 78.707C44.7279 80.0013 46.0039 80.9766 47.7539 81.6328C49.5221 82.3073 51.7826 82.6536 54.5352 82.6719C57.6159 82.6719 60.3594 82.1159 62.7656 81.0039C63.9688 80.4388 65.026 79.6914 65.9375 78.7617C66.7031 77.9779 67.1042 77.0573 67.1406 76C67.1406 75.8724 67.1315 75.7904 67.1133 75.7539C67.0586 75.6081 66.7122 75.5352 66.0742 75.5352L62.9844 75.5078C60.487 75.4896 58.5547 74.9336 57.1875 73.8398C55.7839 72.7096 55.082 71.0872 55.082 68.9727C55.082 65.2357 56.276 62.0729 58.6641 59.4844C61.6901 56.1667 65.9284 54.5078 71.3789 54.5078H71.9531H73.0469V55.6289V60.8789V61.9727H71.9531H71.3516C68.6536 61.9727 66.4479 62.5742 64.7344 63.7773C63.1667 64.8711 62.3281 66.2565 62.2188 67.9336C62.2188 68.1159 62.237 68.2161 62.2734 68.2344C62.3646 68.3255 62.6198 68.3711 63.0391 68.3711H66.293C67.8789 68.3529 69.2279 68.5898 70.3398 69.082C71.4701 69.5742 72.3359 70.3125 72.9375 71.2969C73.5573 72.2812 73.8672 73.4844 73.8672 74.9062C73.8672 77.75 73.1471 80.2292 71.707 82.3438C70.2669 84.4583 68.1523 86.1536 65.3633 87.4297C63.7409 88.1771 62.0182 88.7331 60.1953 89.0977C58.3542 89.4622 56.4219 89.6445 54.3984 89.6445C48.3281 89.6445 43.6979 88.3138 40.5078 85.6523C37.3177 82.9909 35.7227 79.0625 35.7227 73.8672C35.7227 69.8021 37.026 64.8255 39.6328 58.9375L40.0703 57.9805L41.0547 58.3906L45.375 60.168L46.4141 60.6055L45.9766 61.6172C43.7891 66.5573 42.6953 70.6133 42.6953 73.7852ZM94.3477 59.9219C95.9336 63.5495 96.7266 67.0495 96.7266 70.4219C96.7266 76 95.0221 80.3841 91.6133 83.5742C88.2044 86.7643 83.2096 88.7057 76.6289 89.3984L75.6719 89.5078L75.4531 88.5781L74.2773 83.9297L73.9766 82.6992L75.2344 82.5625C80.2109 82.0703 83.875 80.8398 86.2266 78.8711C88.5781 76.9206 89.7448 74.2135 89.7266 70.75C89.7266 68.125 89.0521 65.3633 87.7031 62.4648L87.1836 61.3711L88.332 60.9609L92.9805 59.3477L93.9375 58.9922L94.3477 59.9219ZM114.309 68.7812C113.816 63.8594 112.449 61.3893 110.207 61.3711C109.605 61.3711 109.086 61.5625 108.648 61.9453C108.211 62.3281 107.828 62.9844 107.5 63.9141C107.208 64.7708 107.062 65.582 107.062 66.3477C107.062 66.8945 107.172 67.3411 107.391 67.6875C107.609 68.0156 108.02 68.2799 108.621 68.4805C109.223 68.681 110.043 68.7812 111.082 68.7812H114.309ZM121.062 68.8086H122.895C123.15 68.8086 123.378 68.8542 123.578 68.9453C123.779 69.0182 123.934 69.1458 124.043 69.3281C124.171 69.5104 124.271 69.6745 124.344 69.8203C124.417 69.9661 124.462 70.1849 124.48 70.4766C124.517 70.7682 124.535 70.9779 124.535 71.1055C124.553 71.2331 124.553 71.4518 124.535 71.7617C124.535 72.0534 124.535 72.2083 124.535 72.2266V72.5C124.535 72.5911 124.535 72.7188 124.535 72.8828C124.553 73.0286 124.544 73.3112 124.508 73.7305C124.471 74.1315 124.398 74.487 124.289 74.7969C124.198 75.1068 124.025 75.3893 123.77 75.6445C123.533 75.8815 123.241 76 122.895 76L120.734 75.9727C119.841 79.9102 117.763 82.9909 114.5 85.2148C111.255 87.457 106.917 88.8516 101.484 89.3984L100.555 89.4805L100.336 88.5781L99.1602 83.875L98.8594 82.6719L100.09 82.5352C107.345 81.7513 111.893 79.5729 113.734 76H111.355C107.801 76 105.057 75.2161 103.125 73.6484C101.211 72.0807 100.254 69.7839 100.254 66.7578C100.254 64.388 100.764 62.1367 101.785 60.0039C102.405 58.7096 103.143 57.625 104 56.75C104.857 55.8568 105.832 55.1823 106.926 54.7266C108.038 54.2526 109.241 54.0156 110.535 54.0156C113.579 54.0156 115.967 55.2917 117.699 57.8438C119.449 60.3958 120.57 64.0508 121.062 68.8086ZM134.926 65.8281C131.736 65.8281 129.266 65.1081 127.516 63.668C125.766 62.2096 124.872 60.0951 124.836 57.3242C124.836 57.0508 124.845 56.7773 124.863 56.5039C124.882 56.2122 124.909 55.9297 124.945 55.6562C124.982 55.3828 125.027 55.1094 125.082 54.8359C125.374 53.3229 125.793 51.9648 126.34 50.7617C126.905 49.5404 127.616 48.4922 128.473 47.6172C130.204 45.8307 132.355 44.9375 134.926 44.9375C135.783 44.9375 136.594 45.0469 137.359 45.2656C138.143 45.4844 138.872 45.8034 139.547 46.2227C142.883 48.3919 144.888 52.4661 145.562 58.4453C145.617 59.0651 145.663 59.6667 145.699 60.25C145.736 60.8151 145.754 61.3802 145.754 61.9453C145.754 67.4688 144.378 71.2604 141.625 73.3203C139.237 75.1068 135.172 76 129.43 76H122.539C121.646 76 120.98 75.6628 120.543 74.9883C120.087 74.3138 119.859 73.4844 119.859 72.5V71.9805C119.859 71.0872 120.096 70.3307 120.57 69.7109C121.026 69.0911 121.682 68.7812 122.539 68.7812H129.73C132.611 68.7812 134.807 68.4805 136.32 67.8789C137.852 67.2773 138.781 66.457 139.109 65.418C138.672 65.5091 138.216 65.5911 137.742 65.6641C137.286 65.7188 136.822 65.7643 136.348 65.8008C135.892 65.819 135.418 65.8281 134.926 65.8281ZM131.535 56.5859C131.535 57.3698 131.799 57.9531 132.328 58.3359C132.875 58.7188 133.859 58.901 135.281 58.8828C135.846 58.8828 136.411 58.8464 136.977 58.7734C137.56 58.7005 138.143 58.6003 138.727 58.4727C138.581 57.6523 138.408 56.9049 138.207 56.2305C138.025 55.556 137.806 54.9362 137.551 54.3711C137.35 53.9336 137.141 53.569 136.922 53.2773C136.703 52.9674 136.475 52.7214 136.238 52.5391C136.02 52.3568 135.783 52.2292 135.527 52.1562C135.29 52.0833 135.026 52.0469 134.734 52.0469C134.06 52.0469 133.486 52.2656 133.012 52.7031C132.538 53.1406 132.137 53.888 131.809 54.9453C131.736 55.1458 131.681 55.3464 131.645 55.5469C131.608 55.7292 131.581 55.9115 131.562 56.0938C131.544 56.2578 131.535 56.4219 131.535 56.5859ZM129.785 36.7891L133.777 32.7969L134.188 32.3867L134.598 32.7969L138.59 36.8164L139 37.2266L138.59 37.6367L134.625 41.6016L134.215 42.0117L133.805 41.6016L129.785 37.6094L129.375 37.1992L129.785 36.7891ZM204.543 68.7812C204.78 68.7812 204.98 68.8177 205.145 68.8906C205.327 68.9635 205.473 69.0456 205.582 69.1367C205.71 69.2279 205.81 69.3737 205.883 69.5742C205.974 69.7565 206.038 69.9115 206.074 70.0391C206.111 70.1484 206.138 70.3307 206.156 70.5859C206.193 70.8229 206.211 70.987 206.211 71.0781C206.211 71.1693 206.211 71.3424 206.211 71.5977C206.211 71.8346 206.211 71.9622 206.211 71.9805V72.5C206.211 72.5182 206.211 72.6823 206.211 72.9922C206.211 73.3021 206.211 73.5299 206.211 73.6758C206.211 73.8034 206.193 74.013 206.156 74.3047C206.138 74.5964 206.092 74.8151 206.02 74.9609C205.947 75.1068 205.846 75.2799 205.719 75.4805C205.609 75.6628 205.454 75.7995 205.254 75.8906C205.053 75.9635 204.816 76 204.543 76H202.219C202.492 76.6198 202.629 77.2852 202.629 77.9961C202.611 81.1862 200.797 83.9479 197.188 86.2812C193.214 88.8698 188.529 90.1641 183.133 90.1641C177.062 90.1641 172.432 88.8789 169.242 86.3086C166.052 83.7383 164.457 79.9375 164.457 74.9062C164.457 70.8594 165.414 66.7578 167.328 62.6016L167.766 61.6445L168.75 62.0547L173.07 63.832L174.082 64.2422L173.672 65.2539C172.177 69.0456 171.43 72.1536 171.43 74.5781C171.43 77.4766 172.359 79.6276 174.219 81.0312C176.096 82.4531 179.059 83.1641 183.105 83.1641C186.15 83.1641 188.884 82.6081 191.309 81.4961C193.204 80.6393 194.544 79.6276 195.328 78.4609C195.62 78.0052 195.766 77.5951 195.766 77.2305C195.766 77.0299 195.738 76.8659 195.684 76.7383C195.629 76.6107 195.52 76.4831 195.355 76.3555C195.191 76.2279 194.936 76.1276 194.59 76.0547C194.243 76 193.797 75.9727 193.25 75.9727H189.066H189.012H188.957C188.137 75.8815 187.471 75.5352 186.961 74.9336C186.451 74.3138 186.077 73.5299 185.84 72.582C185.73 72.1263 185.648 71.7526 185.594 71.4609C185.557 71.1693 185.539 70.8867 185.539 70.6133C185.539 69.6836 185.876 69.0911 186.551 68.8359L186.742 68.7812H186.934H204.543ZM205.582 76H204.215C203.322 76 202.656 75.6628 202.219 74.9883C201.763 74.3138 201.535 73.4844 201.535 72.5V71.9805C201.535 71.069 201.763 70.3125 202.219 69.7109C202.693 69.0911 203.358 68.7812 204.215 68.7812H205.637C207.132 68.7812 208.344 68.6081 209.273 68.2617C210.185 67.9154 210.841 67.4141 211.242 66.7578C211.643 66.1016 211.844 65.2539 211.844 64.2148L211.98 37.7734V36.6797H213.074H217.805H218.898V37.7734V64.2148C218.898 65.2904 219.062 66.1654 219.391 66.8398C219.701 67.4961 220.211 67.9883 220.922 68.3164C221.615 68.6263 222.544 68.7812 223.711 68.7812H224.176C224.449 68.7812 224.695 68.8268 224.914 68.918C225.133 69.0091 225.297 69.1549 225.406 69.3555C225.534 69.5378 225.634 69.7201 225.707 69.9023C225.78 70.0846 225.835 70.3125 225.871 70.5859C225.889 70.8776 225.908 71.0964 225.926 71.2422C225.926 71.388 225.926 71.5885 225.926 71.8438C225.926 71.8984 225.926 71.944 225.926 71.9805V72.5C225.926 72.5365 225.926 72.6185 225.926 72.7461C225.926 73.0742 225.926 73.3477 225.926 73.5664C225.908 73.7669 225.871 74.0404 225.816 74.3867C225.762 74.7331 225.68 75.0065 225.57 75.207C225.461 75.4076 225.288 75.5898 225.051 75.7539C224.814 75.918 224.522 76 224.176 76H223.766C220.065 76 217.185 74.9154 215.125 72.7461C213.047 74.9154 209.866 76 205.582 76ZM223.055 84.2578L227.02 80.2656L227.43 79.8555L227.84 80.2656L231.859 84.2852L231.887 84.3125L231.941 84.2578L235.934 80.2656L236.344 79.8555L236.754 80.2656L240.746 84.2852L241.156 84.6953L240.746 85.1055L236.781 89.0703L236.371 89.4805L235.961 89.0703L231.941 85.0781L231.914 85.0508L231.859 85.1055L227.867 89.0703L227.457 89.4805L227.074 89.0703L223.055 85.0781L222.645 84.668L223.055 84.2578ZM245.531 72.5C245.531 72.5547 245.531 72.7005 245.531 72.9375C245.531 73.1745 245.531 73.3659 245.531 73.5117C245.531 73.6393 245.522 73.8216 245.504 74.0586C245.486 74.2956 245.458 74.4961 245.422 74.6602C245.385 74.806 245.322 74.9792 245.23 75.1797C245.158 75.362 245.057 75.5078 244.93 75.6172C244.82 75.7266 244.674 75.8177 244.492 75.8906C244.31 75.9635 244.109 76 243.891 76H243.617C240.245 76 237.72 74.9609 236.043 72.8828C233.947 74.9609 230.829 76 226.691 76H223.848C222.954 76 222.289 75.6628 221.852 74.9883C221.414 74.2956 221.195 73.4661 221.195 72.5V71.9805C221.195 71.3971 221.286 70.8776 221.469 70.4219C221.651 69.9479 221.952 69.556 222.371 69.2461C222.772 68.9362 223.264 68.7812 223.848 68.7812H226.555C230.164 68.7812 232.133 67.8789 232.461 66.0742C232.57 65.4909 232.625 64.7982 232.625 63.9961C232.625 63.1029 232.598 62.2643 232.543 61.4805L232.406 59.2383L232.324 58.1992L233.363 58.0898L237.875 57.543L238.996 57.4336L239.078 58.5547L239.516 64.8984C239.625 66.2839 239.999 67.2773 240.637 67.8789C241.275 68.4805 242.286 68.7812 243.672 68.7812H243.891C244.146 68.7812 244.374 68.8268 244.574 68.918C244.775 68.9909 244.93 69.1185 245.039 69.3008C245.148 69.4831 245.24 69.6562 245.312 69.8203C245.404 69.9661 245.458 70.1849 245.477 70.4766C245.513 70.75 245.531 70.9505 245.531 71.0781C245.531 71.2057 245.531 71.4245 245.531 71.7344C245.531 72.026 245.531 72.1901 245.531 72.2266V72.5ZM254.062 41.5469L258.055 37.5547L258.465 37.1445L258.875 37.5547L262.867 41.5742L263.277 41.9844L262.867 42.3945L258.902 46.3594L258.492 46.7695L258.082 46.3594L254.062 42.3672L253.652 41.957L254.062 41.5469ZM243.508 76C242.615 76 241.949 75.6628 241.512 74.9883C241.056 74.3138 240.828 73.4844 240.828 72.5V71.9805C240.828 71.0872 241.065 70.3307 241.539 69.7109C241.995 69.0911 242.651 68.7812 243.508 68.7812H245.148C250.945 68.7812 258.155 66.5664 266.777 62.1367C265.848 61.7721 264.645 61.2891 263.168 60.6875C259.723 59.3021 257.426 58.6094 256.277 58.6094C254.564 58.6094 253.151 59.3203 252.039 60.7422L251.273 61.7539L250.727 62.4375L249.934 62.0547L245.723 59.9766L244.656 59.457L245.285 58.418L245.723 57.6797C246.962 55.638 248.475 54.0977 250.262 53.0586C252.048 52.0013 254.062 51.4635 256.305 51.4453C258.784 51.4453 261.71 52.2656 265.082 53.9062C270.642 56.6042 274.908 58.0169 277.879 58.1445L278.918 58.1992V59.2656L278.863 63.9961V65.0078L277.879 65.0898C275.91 65.2539 272.173 66.7852 266.668 69.6836C258.702 73.8945 251.419 76 244.82 76H243.508Z" fill="#4F46E5"/>
</svg>
