<svg width="165" height="121" viewBox="0 0 165 121" fill="none" xmlns="http://www.w3.org/2000/svg">
<mask id="path-1-inside-1_303:5" fill="white">
<rect width="165" height="121" rx="6"/>
</mask>
<rect width="165" height="121" rx="6" stroke="black" stroke-width="16" mask="url(#path-1-inside-1_303:5)"/>
<path d="M84.8086 68.7812C85.0456 68.7812 85.2461 68.8177 85.4102 68.8906C85.5924 68.9635 85.7383 69.0456 85.8477 69.1367C85.9753 69.2279 86.0755 69.3737 86.1484 69.5742C86.2396 69.7565 86.3034 69.9115 86.3398 70.0391C86.3763 70.1484 86.4036 70.3307 86.4219 70.5859C86.4583 70.8229 86.4766 70.987 86.4766 71.0781C86.4766 71.1693 86.4766 71.3424 86.4766 71.5977C86.4766 71.8346 86.4766 71.9622 86.4766 71.9805V72.5C86.4766 72.5182 86.4766 72.6823 86.4766 72.9922C86.4766 73.3021 86.4766 73.5299 86.4766 73.6758C86.4766 73.8034 86.4583 74.013 86.4219 74.3047C86.4036 74.5964 86.3581 74.8151 86.2852 74.9609C86.2122 75.1068 86.112 75.2799 85.9844 75.4805C85.875 75.6628 85.7201 75.7995 85.5195 75.8906C85.319 75.9635 85.082 76 84.8086 76H82.4844C82.7578 76.6198 82.8945 77.2852 82.8945 77.9961C82.8763 81.1862 81.0625 83.9479 77.4531 86.2812C73.4792 88.8698 68.7943 90.1641 63.3984 90.1641C57.3281 90.1641 52.6979 88.8789 49.5078 86.3086C46.3177 83.7383 44.7227 79.9375 44.7227 74.9062C44.7227 70.8594 45.6797 66.7578 47.5938 62.6016L48.0312 61.6445L49.0156 62.0547L53.3359 63.832L54.3477 64.2422L53.9375 65.2539C52.4427 69.0456 51.6953 72.1536 51.6953 74.5781C51.6953 77.4766 52.625 79.6276 54.4844 81.0312C56.362 82.4531 59.3242 83.1641 63.3711 83.1641C66.4154 83.1641 69.1497 82.6081 71.5742 81.4961C73.4701 80.6393 74.8099 79.6276 75.5938 78.4609C75.8854 78.0052 76.0312 77.5951 76.0312 77.2305C76.0312 77.0299 76.0039 76.8659 75.9492 76.7383C75.8945 76.6107 75.7852 76.4831 75.6211 76.3555C75.457 76.2279 75.2018 76.1276 74.8555 76.0547C74.5091 76 74.0625 75.9727 73.5156 75.9727H69.332H69.2773H69.2227C68.4023 75.8815 67.737 75.5352 67.2266 74.9336C66.7161 74.3138 66.3424 73.5299 66.1055 72.582C65.9961 72.1263 65.9141 71.7526 65.8594 71.4609C65.8229 71.1693 65.8047 70.8867 65.8047 70.6133C65.8047 69.6836 66.1419 69.0911 66.8164 68.8359L67.0078 68.7812H67.1992H84.8086ZM86.5859 76H84.5078C83.6146 76 82.9492 75.6628 82.5117 74.9883C82.056 74.3138 81.8281 73.4844 81.8281 72.5V71.9805C81.8281 71.0872 82.0651 70.3307 82.5391 69.7109C82.9948 69.0911 83.651 68.7812 84.5078 68.7812H86.5859C89.3021 68.7812 91.0977 68.5352 91.9727 68.043C93.1576 67.3503 93.75 65.7643 93.75 63.2852C93.75 61.207 93.431 58.8828 92.793 56.3125L92.5195 55.2461L93.5859 55L98.043 53.8789L99.0273 53.6055L99.3555 54.5898C100.267 57.543 100.723 60.4141 100.723 63.2031C100.704 68.0339 99.2826 71.5247 96.457 73.6758C95.9102 74.0768 95.2904 74.4323 94.5977 74.7422C93.9232 75.0339 93.1667 75.2708 92.3281 75.4531C91.5078 75.6354 90.6237 75.7721 89.6758 75.8633C88.7279 75.9544 87.6979 76 86.5859 76ZM89.1836 45.3477L93.1758 41.3555L93.5859 40.9453L93.9961 41.3555L97.9883 45.375L98.3984 45.7852L97.9883 46.1953L94.0234 50.1602L93.6133 50.5703L93.2031 50.1602L89.1836 46.168L88.7734 45.7578L89.1836 45.3477ZM109.172 40.6445H113.902H114.996V41.6289V74.9883V75.9727H113.902H109.172H108.078V74.9883V41.6289V40.6445H109.172ZM109.199 35.832C108.288 35.7044 107.413 35.8411 106.574 36.2422C105.736 36.625 104.915 37.2812 104.113 38.2109L103.73 38.6758L103.32 38.2383L100.531 34.7656L100.23 34.4648L100.477 34.082C102.773 30.8008 105.581 29.4245 108.898 29.9531L112.973 30.6094C114.632 30.8828 116.518 30.4818 118.633 29.4062L119.125 29.1602L119.371 29.6797L121.176 33.9453L121.367 34.3828L120.957 34.6562C118.514 36.1875 115.871 36.7526 113.027 36.3516L109.199 35.832Z" fill="black"/>
</svg>
