<svg width="316" height="121" viewBox="0 0 316 121" fill="none" xmlns="http://www.w3.org/2000/svg">
<mask id="path-1-inside-1_303:5" fill="white">
<rect width="316" height="121" rx="6"/>
</mask>
<rect width="316" height="121" rx="6" stroke="#EF4444" stroke-width="16" mask="url(#path-1-inside-1_303:5)"/>
<path d="M50.6094 75.9727C48.0938 75.9727 45.4232 75.7083 42.5977 75.1797L41.6953 75.0156V74.0859V69.0547V67.7148L43.0078 67.9883C45.487 68.4987 48.0664 68.7539 50.7461 68.7539C51.8763 68.7539 52.8789 68.7083 53.7539 68.6172C54.6471 68.5078 55.3672 68.3711 55.9141 68.207C56.4792 68.0247 56.9349 67.806 57.2812 67.5508C57.6458 67.2956 57.901 67.0404 58.0469 66.7852C58.1927 66.5117 58.2656 66.2201 58.2656 65.9102C58.2656 65.4909 58.056 64.6432 57.6367 63.3672C57.2174 62.0911 56.625 60.5326 55.8594 58.6914L52.3867 50.4883L51.9766 49.5039L52.9336 49.0664L57.4453 46.9883L58.4844 46.4961L58.9219 47.5898L64.3359 61.3164C65.3385 63.8685 66.3229 65.7552 67.2891 66.9766C68.2552 68.1797 69.0846 68.7812 69.7773 68.7812H70.3242C70.543 68.7812 70.7344 68.8177 70.8984 68.8906C71.0807 68.9635 71.2266 69.0456 71.3359 69.1367C71.4635 69.2279 71.5638 69.3737 71.6367 69.5742C71.7279 69.7565 71.7917 69.9115 71.8281 70.0391C71.8646 70.1484 71.8919 70.3307 71.9102 70.5859C71.9466 70.8229 71.9648 70.987 71.9648 71.0781C71.9648 71.1693 71.9648 71.3424 71.9648 71.5977C71.9648 71.8346 71.9648 71.9622 71.9648 71.9805V72.4727C71.9648 73.1471 71.9284 73.6667 71.8555 74.0312C71.8008 74.5052 71.7096 74.8698 71.582 75.125V75.1523L71.5547 75.1797C71.263 75.7266 70.8529 76 70.3242 76H69.7773C66.7878 76 64.3542 74.7513 62.4766 72.2539C59.7969 74.7331 55.8411 75.9727 50.6094 75.9727ZM85.9102 48.2188L89.793 44.3359L90.2031 43.9258L90.6133 44.3359L94.5508 48.2461L94.6602 48.3555L94.7969 48.2188L98.707 44.3359L99.1172 43.9258L99.5273 44.3359L103.438 48.2461L103.848 48.6562L103.438 49.0664L99.5547 52.9492L99.1445 53.3594L98.7344 52.9492L94.7969 49.0391L94.6875 48.9297L94.5508 49.0664L90.6406 52.9492L90.2305 53.3594L89.8477 52.9492L85.9102 49.0391L85.5 48.6289L85.9102 48.2188ZM90.3125 40.8906L94.1953 36.9805L94.6055 36.5703L95.0156 36.9805L98.9258 40.918L99.3359 41.3281L98.9258 41.7383L95.043 45.6211L94.6328 46.0312L94.2227 45.6211L90.3125 41.7109L89.9023 41.3008L90.3125 40.8906ZM91.9805 65.6367C92.0716 65.181 92.1172 64.6159 92.1172 63.9414C92.1172 63.668 92.1081 63.4036 92.0898 63.1484C92.0898 62.875 92.0807 62.6016 92.0625 62.3281C92.0443 62.0547 92.026 61.7812 92.0078 61.5078L91.8711 59.8398L91.7617 58.7734L92.8281 58.6641L97.3125 58.1172L98.4609 58.0078L98.543 59.1289L98.9805 65.4727C98.9987 65.819 99.0352 66.138 99.0898 66.4297C99.1628 66.7031 99.2357 66.9583 99.3086 67.1953C99.3997 67.4141 99.5091 67.6146 99.6367 67.7969C99.7826 67.9609 99.9375 68.1068 100.102 68.2344C100.266 68.362 100.448 68.4622 100.648 68.5352C100.867 68.6081 101.104 68.6628 101.359 68.6992C101.615 68.7357 101.888 68.7539 102.18 68.7539C103.182 68.7539 103.93 68.4076 104.422 67.7148C104.914 67.0039 105.16 65.7643 105.16 63.9961C105.16 62.2279 104.777 60.0039 104.012 57.3242L103.684 56.2578L104.777 55.957L109.453 54.6992L110.465 54.4258L110.766 55.4375C111.714 58.4271 112.178 61.2161 112.16 63.8047C112.16 63.8411 112.16 63.8685 112.16 63.8867C112.16 63.9049 112.16 63.9323 112.16 63.9688C112.142 68.4349 110.911 71.7435 108.469 73.8945C106.883 75.2799 104.823 75.9727 102.289 75.9727C101.286 75.9727 100.357 75.8633 99.5 75.6445C98.6615 75.4258 97.8958 75.0977 97.2031 74.6602C96.5104 74.2044 95.918 73.6393 95.4258 72.9648C93.4753 74.9883 90.9414 76 87.8242 76C84.306 75.9818 81.7721 74.9883 80.2227 73.0195C78.3633 75.0065 75.4557 76 71.5 76H69.9688C69.0755 76 68.4102 75.6628 67.9727 74.9883C67.5169 74.3138 67.2891 73.4844 67.2891 72.5V71.9805C67.2891 71.0872 67.526 70.3307 68 69.7109C68.4557 69.0911 69.112 68.7812 69.9688 68.7812H71.5547C73.25 68.7812 74.5169 68.526 75.3555 68.0156C76.194 67.487 76.7227 66.694 76.9414 65.6367C77.0326 65.181 77.0781 64.6159 77.0781 63.9414C77.0781 63.6862 77.069 63.431 77.0508 63.1758C77.0508 62.9023 77.0417 62.6289 77.0234 62.3555C77.0052 62.082 76.987 61.7995 76.9688 61.5078L76.8047 59.8398L76.7227 58.7734L77.7617 58.6641L82.2734 58.1172L83.4219 58.0078L83.5039 59.1289L83.9414 65.4727C84.0143 66.6393 84.3516 67.487 84.9531 68.0156C85.5547 68.526 86.5299 68.7812 87.8789 68.7812C89.1185 68.7812 90.0573 68.5352 90.6953 68.043C91.3333 67.5508 91.7617 66.7487 91.9805 65.6367ZM147.023 61.043C150.068 60.5508 152.702 60.2956 154.926 60.2773C156.676 60.2773 158.38 60.3685 160.039 60.5508L161.16 60.6875L160.996 61.7812L160.395 66.5664L160.258 67.5781L159.273 67.5234C157.724 67.4688 156.685 67.4505 156.156 67.4688C149.849 67.651 145.21 68.6992 142.238 70.6133C139.285 72.5091 137.809 75.2617 137.809 78.8711C137.809 82.8451 139.832 85.4245 143.879 86.6094C145.775 87.1562 148.126 87.4297 150.934 87.4297C154.561 87.4297 158.125 86.6003 161.625 84.9414L162.883 84.3398L163.184 85.707L164.168 90.6016L164.332 91.4219L163.566 91.7773C159.793 93.6367 155.473 94.5664 150.605 94.5664C144.225 94.5664 139.358 93.263 136.004 90.6562C132.65 88.0495 130.973 84.1849 130.973 79.0625C130.973 75.5443 131.747 72.4818 133.297 69.875C134.846 67.2682 137.125 65.181 140.133 63.6133C139.24 62.4102 138.565 61.1706 138.109 59.8945C137.672 58.6003 137.453 57.2695 137.453 55.9023C137.453 54.4987 137.727 53.1042 138.273 51.7188C138.82 50.3698 139.632 49.1302 140.707 48C142.767 45.8125 145.62 44.7188 149.266 44.7188C152.273 44.7188 155.5 45.8945 158.945 48.2461L159.711 48.7656L159.328 49.6133L157.496 53.6875L156.977 54.8086L155.938 54.1797C153.385 52.6667 151.253 51.9102 149.539 51.9102C147.607 51.9102 146.203 52.6302 145.328 54.0703C144.891 54.7812 144.672 55.5104 144.672 56.2578C144.672 56.9141 144.845 57.5977 145.191 58.3086C145.52 58.9648 146.13 59.8763 147.023 61.043ZM181.613 68.7812C181.121 63.8594 179.754 61.3893 177.512 61.3711C176.91 61.3711 176.391 61.5625 175.953 61.9453C175.516 62.3281 175.133 62.9844 174.805 63.9141C174.513 64.7708 174.367 65.582 174.367 66.3477C174.367 66.8945 174.477 67.3411 174.695 67.6875C174.914 68.0156 175.324 68.2799 175.926 68.4805C176.527 68.681 177.348 68.7812 178.387 68.7812H181.613ZM188.367 68.8086H190.199C190.454 68.8086 190.682 68.8542 190.883 68.9453C191.083 69.0182 191.238 69.1458 191.348 69.3281C191.475 69.5104 191.576 69.6745 191.648 69.8203C191.721 69.9661 191.767 70.1849 191.785 70.4766C191.822 70.7682 191.84 70.9779 191.84 71.1055C191.858 71.2331 191.858 71.4518 191.84 71.7617C191.84 72.0534 191.84 72.2083 191.84 72.2266V72.5C191.84 72.5911 191.84 72.7188 191.84 72.8828C191.858 73.0286 191.849 73.3112 191.812 73.7305C191.776 74.1315 191.703 74.487 191.594 74.7969C191.503 75.1068 191.329 75.3893 191.074 75.6445C190.837 75.8815 190.546 76 190.199 76L188.039 75.9727C187.146 79.9102 185.068 82.9909 181.805 85.2148C178.56 87.457 174.221 88.8516 168.789 89.3984L167.859 89.4805L167.641 88.5781L166.465 83.875L166.164 82.6719L167.395 82.5352C174.65 81.7513 179.198 79.5729 181.039 76H178.66C175.105 76 172.362 75.2161 170.43 73.6484C168.516 72.0807 167.559 69.7839 167.559 66.7578C167.559 64.388 168.069 62.1367 169.09 60.0039C169.71 58.7096 170.448 57.625 171.305 56.75C172.161 55.8568 173.137 55.1823 174.23 54.7266C175.342 54.2526 176.546 54.0156 177.84 54.0156C180.884 54.0156 183.272 55.2917 185.004 57.8438C186.754 60.3958 187.875 64.0508 188.367 68.8086ZM204.965 84.2578L208.957 80.2656L209.367 79.8555L209.777 80.2656L213.77 84.2852L214.18 84.6953L213.77 85.1055L209.805 89.0703L209.395 89.4805L208.984 89.0703L204.965 85.0781L204.555 84.668L204.965 84.2578ZM189.844 76C188.951 76 188.285 75.6628 187.848 74.9883C187.392 74.3138 187.164 73.4844 187.164 72.5V71.9805C187.164 71.0872 187.401 70.3307 187.875 69.7109C188.331 69.0911 188.987 68.7812 189.844 68.7812H191.484C197.281 68.7812 204.491 66.5664 213.113 62.1367C212.184 61.7721 210.98 61.2891 209.504 60.6875C206.059 59.3021 203.762 58.6094 202.613 58.6094C200.9 58.6094 199.487 59.3203 198.375 60.7422L197.609 61.7539L197.062 62.4375L196.27 62.0547L192.059 59.9766L190.992 59.457L191.621 58.418L192.059 57.6797C193.298 55.638 194.811 54.0977 196.598 53.0586C198.384 52.0013 200.398 51.4635 202.641 51.4453C205.12 51.4453 208.046 52.2656 211.418 53.9062C216.978 56.6042 221.243 58.0169 224.215 58.1445L225.254 58.1992V59.2656L225.199 63.9961V65.0078L224.215 65.0898C222.246 65.2539 218.509 66.7852 213.004 69.6836C205.038 73.8945 197.755 76 191.156 76H189.844ZM240.43 60.0586L241.961 65.3359C242.326 66.5573 242.836 67.4414 243.492 67.9883C244.148 68.5169 245.023 68.7812 246.117 68.7812H246.883C247.065 68.7812 247.238 68.8086 247.402 68.8633C247.566 68.8997 247.703 68.9727 247.812 69.082C247.922 69.1914 248.013 69.2917 248.086 69.3828C248.177 69.474 248.25 69.6107 248.305 69.793C248.359 69.957 248.396 70.0938 248.414 70.2031C248.451 70.2943 248.469 70.4492 248.469 70.668C248.487 70.8867 248.496 71.0326 248.496 71.1055C248.514 71.1784 248.523 71.3151 248.523 71.5156C248.523 71.7161 248.523 71.8255 248.523 71.8438V72.5C248.523 72.5182 248.523 72.6823 248.523 72.9922C248.542 73.3021 248.542 73.5299 248.523 73.6758C248.523 73.8034 248.505 74.013 248.469 74.3047C248.451 74.5964 248.405 74.8242 248.332 74.9883C248.259 75.1341 248.159 75.2982 248.031 75.4805C247.922 75.6628 247.767 75.7995 247.566 75.8906C247.366 75.9635 247.138 76 246.883 76H246.418C244.668 76 243.273 75.7812 242.234 75.3438C241.378 79.4271 239.29 82.6354 235.973 84.9688C232.673 87.3203 228.243 88.7969 222.684 89.3984L221.727 89.5078L221.508 88.5781L220.332 83.9297L220.031 82.6992L221.289 82.5625C226.266 82.0703 229.93 80.8398 232.281 78.8711C234.633 76.9206 235.799 74.2044 235.781 70.7227C235.781 68.1523 235.098 65.3997 233.73 62.4648L233.211 61.3711L234.359 60.9609L239.008 59.3477L240.102 58.9648L240.43 60.0586ZM263.891 69.5195C264.911 69.5195 265.622 69.3281 266.023 68.9453C266.424 68.5443 266.625 67.8516 266.625 66.8672C266.625 66.6484 266.616 66.4479 266.598 66.2656C266.598 66.0651 266.579 65.8737 266.543 65.6914C266.525 65.5091 266.497 65.3359 266.461 65.1719C266.424 64.9896 266.379 64.8255 266.324 64.6797C266.27 64.5339 266.215 64.388 266.16 64.2422C265.978 63.8229 265.777 63.4674 265.559 63.1758C265.34 62.8841 265.094 62.6471 264.82 62.4648C264.547 62.2643 264.237 62.1276 263.891 62.0547C263.562 61.9635 263.198 61.918 262.797 61.918C260.938 61.918 259.434 63.3581 258.285 66.2383C260.29 68.4258 262.159 69.5195 263.891 69.5195ZM254.676 72.582C252.415 74.8607 249.854 76 246.992 76H246.418C245.525 76 244.859 75.6628 244.422 74.9883C243.984 74.2956 243.766 73.4661 243.766 72.5V71.9805C243.766 71.0872 243.993 70.3307 244.449 69.7109C244.905 69.0911 245.561 68.7812 246.418 68.7812H246.855C247.986 68.7812 249.161 68.0521 250.383 66.5938C250.948 65.9193 251.586 64.7708 252.297 63.1484C254.885 57.4245 258.349 54.5534 262.688 54.5352C264.346 54.5352 265.841 54.8451 267.172 55.4648C268.521 56.0664 269.688 56.9779 270.672 58.1992C272.549 60.5508 273.488 63.3034 273.488 66.457C273.488 69.556 272.796 71.9258 271.41 73.5664C271.155 73.8398 270.891 74.1042 270.617 74.3594C270.344 74.6146 270.052 74.8516 269.742 75.0703C269.432 75.2708 269.113 75.4531 268.785 75.6172C268.457 75.7812 268.111 75.9271 267.746 76.0547C267.4 76.1823 267.035 76.2826 266.652 76.3555C266.288 76.4466 265.905 76.5104 265.504 76.5469C265.103 76.5833 264.693 76.6016 264.273 76.6016C260.773 76.6016 257.574 75.2617 254.676 72.582Z" fill="#EF4444"/>
</svg>
