<svg width="316" height="121" viewBox="0 0 316 121" fill="none" xmlns="http://www.w3.org/2000/svg">
<mask id="path-1-inside-1_303:5" fill="white">
<rect width="316" height="121" rx="6"/>
</mask>
<rect width="316" height="121" rx="6" stroke="#4BD927" stroke-width="16" mask="url(#path-1-inside-1_303:5)"/>
<path d="M72.6094 75.9727C70.0938 75.9727 67.4232 75.7083 64.5977 75.1797L63.6953 75.0156V74.0859V69.0547V67.7148L65.0078 67.9883C67.487 68.4987 70.0664 68.7539 72.7461 68.7539C73.8763 68.7539 74.8789 68.7083 75.7539 68.6172C76.6471 68.5078 77.3672 68.3711 77.9141 68.207C78.4792 68.0247 78.9349 67.806 79.2812 67.5508C79.6458 67.2956 79.901 67.0404 80.0469 66.7852C80.1927 66.5117 80.2656 66.2201 80.2656 65.9102C80.2656 65.4909 80.056 64.6432 79.6367 63.3672C79.2174 62.0911 78.625 60.5326 77.8594 58.6914L74.3867 50.4883L73.9766 49.5039L74.9336 49.0664L79.4453 46.9883L80.4844 46.4961L80.9219 47.5898L86.3359 61.3164C87.3385 63.8685 88.3229 65.7552 89.2891 66.9766C90.2552 68.1797 91.0846 68.7812 91.7773 68.7812H92.3242C92.543 68.7812 92.7344 68.8177 92.8984 68.8906C93.0807 68.9635 93.2266 69.0456 93.3359 69.1367C93.4635 69.2279 93.5638 69.3737 93.6367 69.5742C93.7279 69.7565 93.7917 69.9115 93.8281 70.0391C93.8646 70.1484 93.8919 70.3307 93.9102 70.5859C93.9466 70.8229 93.9648 70.987 93.9648 71.0781C93.9648 71.1693 93.9648 71.3424 93.9648 71.5977C93.9648 71.8346 93.9648 71.9622 93.9648 71.9805V72.4727C93.9648 73.1471 93.9284 73.6667 93.8555 74.0312C93.8008 74.5052 93.7096 74.8698 93.582 75.125V75.1523L93.5547 75.1797C93.263 75.7266 92.8529 76 92.3242 76H91.7773C88.7878 76 86.3542 74.7513 84.4766 72.2539C81.7969 74.7331 77.8411 75.9727 72.6094 75.9727ZM107.91 48.2188L111.793 44.3359L112.203 43.9258L112.613 44.3359L116.551 48.2461L116.66 48.3555L116.797 48.2188L120.707 44.3359L121.117 43.9258L121.527 44.3359L125.438 48.2461L125.848 48.6562L125.438 49.0664L121.555 52.9492L121.145 53.3594L120.734 52.9492L116.797 49.0391L116.688 48.9297L116.551 49.0664L112.641 52.9492L112.23 53.3594L111.848 52.9492L107.91 49.0391L107.5 48.6289L107.91 48.2188ZM112.312 40.8906L116.195 36.9805L116.605 36.5703L117.016 36.9805L120.926 40.918L121.336 41.3281L120.926 41.7383L117.043 45.6211L116.633 46.0312L116.223 45.6211L112.312 41.7109L111.902 41.3008L112.312 40.8906ZM113.98 65.6367C114.072 65.181 114.117 64.6159 114.117 63.9414C114.117 63.668 114.108 63.4036 114.09 63.1484C114.09 62.875 114.081 62.6016 114.062 62.3281C114.044 62.0547 114.026 61.7812 114.008 61.5078L113.871 59.8398L113.762 58.7734L114.828 58.6641L119.312 58.1172L120.461 58.0078L120.543 59.1289L120.98 65.4727C120.999 65.819 121.035 66.138 121.09 66.4297C121.163 66.7031 121.236 66.9583 121.309 67.1953C121.4 67.4141 121.509 67.6146 121.637 67.7969C121.783 67.9609 121.938 68.1068 122.102 68.2344C122.266 68.362 122.448 68.4622 122.648 68.5352C122.867 68.6081 123.104 68.6628 123.359 68.6992C123.615 68.7357 123.888 68.7539 124.18 68.7539C125.182 68.7539 125.93 68.4076 126.422 67.7148C126.914 67.0039 127.16 65.7643 127.16 63.9961C127.16 62.2279 126.777 60.0039 126.012 57.3242L125.684 56.2578L126.777 55.957L131.453 54.6992L132.465 54.4258L132.766 55.4375C133.714 58.4271 134.178 61.2161 134.16 63.8047C134.16 63.8411 134.16 63.8685 134.16 63.8867C134.16 63.9049 134.16 63.9323 134.16 63.9688C134.142 68.4349 132.911 71.7435 130.469 73.8945C128.883 75.2799 126.823 75.9727 124.289 75.9727C123.286 75.9727 122.357 75.8633 121.5 75.6445C120.661 75.4258 119.896 75.0977 119.203 74.6602C118.51 74.2044 117.918 73.6393 117.426 72.9648C115.475 74.9883 112.941 76 109.824 76C106.306 75.9818 103.772 74.9883 102.223 73.0195C100.363 75.0065 97.4557 76 93.5 76H91.9688C91.0755 76 90.4102 75.6628 89.9727 74.9883C89.5169 74.3138 89.2891 73.4844 89.2891 72.5V71.9805C89.2891 71.0872 89.526 70.3307 90 69.7109C90.4557 69.0911 91.112 68.7812 91.9688 68.7812H93.5547C95.25 68.7812 96.5169 68.526 97.3555 68.0156C98.194 67.487 98.7227 66.694 98.9414 65.6367C99.0326 65.181 99.0781 64.6159 99.0781 63.9414C99.0781 63.6862 99.069 63.431 99.0508 63.1758C99.0508 62.9023 99.0417 62.6289 99.0234 62.3555C99.0052 62.082 98.987 61.7995 98.9688 61.5078L98.8047 59.8398L98.7227 58.7734L99.7617 58.6641L104.273 58.1172L105.422 58.0078L105.504 59.1289L105.941 65.4727C106.014 66.6393 106.352 67.487 106.953 68.0156C107.555 68.526 108.53 68.7812 109.879 68.7812C111.118 68.7812 112.057 68.5352 112.695 68.043C113.333 67.5508 113.762 66.7487 113.98 65.6367ZM169.023 61.043C172.068 60.5508 174.702 60.2956 176.926 60.2773C178.676 60.2773 180.38 60.3685 182.039 60.5508L183.16 60.6875L182.996 61.7812L182.395 66.5664L182.258 67.5781L181.273 67.5234C179.724 67.4688 178.685 67.4505 178.156 67.4688C171.849 67.651 167.21 68.6992 164.238 70.6133C161.285 72.5091 159.809 75.2617 159.809 78.8711C159.809 82.8451 161.832 85.4245 165.879 86.6094C167.775 87.1562 170.126 87.4297 172.934 87.4297C176.561 87.4297 180.125 86.6003 183.625 84.9414L184.883 84.3398L185.184 85.707L186.168 90.6016L186.332 91.4219L185.566 91.7773C181.793 93.6367 177.473 94.5664 172.605 94.5664C166.225 94.5664 161.358 93.263 158.004 90.6562C154.65 88.0495 152.973 84.1849 152.973 79.0625C152.973 75.5443 153.747 72.4818 155.297 69.875C156.846 67.2682 159.125 65.181 162.133 63.6133C161.24 62.4102 160.565 61.1706 160.109 59.8945C159.672 58.6003 159.453 57.2695 159.453 55.9023C159.453 54.4987 159.727 53.1042 160.273 51.7188C160.82 50.3698 161.632 49.1302 162.707 48C164.767 45.8125 167.62 44.7188 171.266 44.7188C174.273 44.7188 177.5 45.8945 180.945 48.2461L181.711 48.7656L181.328 49.6133L179.496 53.6875L178.977 54.8086L177.938 54.1797C175.385 52.6667 173.253 51.9102 171.539 51.9102C169.607 51.9102 168.203 52.6302 167.328 54.0703C166.891 54.7812 166.672 55.5104 166.672 56.2578C166.672 56.9141 166.845 57.5977 167.191 58.3086C167.52 58.9648 168.13 59.8763 169.023 61.043ZM166.07 36.8438L170.062 32.8516L170.473 32.4414L170.883 32.8516L174.875 36.8711L175.285 37.2812L174.875 37.6914L170.91 41.6562L170.5 42.0664L170.09 41.6562L166.07 37.6641L165.66 37.2539L166.07 36.8438ZM206.43 67.332C207.888 66.6211 209 65.4544 209.766 63.832C210.513 62.2096 210.887 60.0677 210.887 57.4062V37.7734V36.6797H211.98H216.711H217.805V37.7734V59.8945C217.805 63.0664 218.206 65.3359 219.008 66.7031C219.81 68.0885 220.967 68.7812 222.48 68.7812H223.164C223.383 68.7812 223.583 68.8177 223.766 68.8906C223.948 68.9635 224.094 69.0456 224.203 69.1367C224.312 69.2279 224.413 69.3737 224.504 69.5742C224.577 69.7565 224.641 69.9023 224.695 70.0117C224.732 70.1393 224.759 70.3307 224.777 70.5859C224.796 70.8229 224.805 70.987 224.805 71.0781C224.823 71.1693 224.823 71.3424 224.805 71.5977C224.805 71.707 224.805 71.8346 224.805 71.9805V72.5C224.805 73.612 224.777 74.3138 224.723 74.6055C224.486 75.5352 223.966 76 223.164 76H222.098C220.038 76 218.251 75.5625 216.738 74.6875C215.243 73.8125 214.104 72.5365 213.32 70.8594C210.039 74.2318 205.062 75.918 198.391 75.918C195.802 75.918 193.706 75.7721 192.102 75.4805L191.199 75.3164V74.3867V69.4375V68.207L192.43 68.3438C194.945 68.6719 197.406 68.7995 199.812 68.7266C198.646 64.9167 195.1 56.1484 189.176 42.4219L188.793 41.5195L189.641 41.0547L194.125 38.457L195.219 37.8555L195.684 39.0039C201.535 53.1133 205.117 62.556 206.43 67.332ZM224.859 76H222.781C221.888 76 221.223 75.6628 220.785 74.9883C220.329 74.3138 220.102 73.4844 220.102 72.5V71.9805C220.102 71.0872 220.339 70.3307 220.812 69.7109C221.268 69.0911 221.924 68.7812 222.781 68.7812H224.859C227.576 68.7812 229.371 68.5352 230.246 68.043C231.431 67.3503 232.023 65.7643 232.023 63.2852C232.023 61.207 231.704 58.8828 231.066 56.3125L230.793 55.2461L231.859 55L236.316 53.8789L237.301 53.6055L237.629 54.5898C238.54 57.543 238.996 60.4141 238.996 63.2031C238.978 68.0339 237.556 71.5247 234.73 73.6758C234.184 74.0768 233.564 74.4323 232.871 74.7422C232.197 75.0339 231.44 75.2708 230.602 75.4531C229.781 75.6354 228.897 75.7721 227.949 75.8633C227.001 75.9544 225.971 76 224.859 76ZM225.898 84.2578L229.891 80.2656L230.301 79.8555L230.711 80.2656L234.703 84.2852L235.113 84.6953L234.703 85.1055L230.738 89.0703L230.328 89.4805L229.918 89.0703L225.898 85.0781L225.488 84.668L225.898 84.2578ZM245.012 36.6797H249.742H250.836V37.7734V74.8789V75.9727H249.742H245.012H243.918V74.8789V37.7734V36.6797H245.012Z" fill="#4BD927"/>
</svg>
