<svg width="316" height="121" viewBox="0 0 316 121" fill="none" xmlns="http://www.w3.org/2000/svg">
<mask id="path-1-inside-1_303:5" fill="white">
<rect width="316" height="121" rx="6"/>
</mask>
<rect width="316" height="121" rx="6" stroke="black" stroke-width="16" mask="url(#path-1-inside-1_303:5)"/>
<path d="M41.6094 75.9727C39.0938 75.9727 36.4232 75.7083 33.5977 75.1797L32.6953 75.0156V74.0859V69.0547V67.7148L34.0078 67.9883C36.487 68.4987 39.0664 68.7539 41.7461 68.7539C42.8763 68.7539 43.8789 68.7083 44.7539 68.6172C45.6471 68.5078 46.3672 68.3711 46.9141 68.207C47.4792 68.0247 47.9349 67.806 48.2812 67.5508C48.6458 67.2956 48.901 67.0404 49.0469 66.7852C49.1927 66.5117 49.2656 66.2201 49.2656 65.9102C49.2656 65.4909 49.056 64.6432 48.6367 63.3672C48.2174 62.0911 47.625 60.5326 46.8594 58.6914L43.3867 50.4883L42.9766 49.5039L43.9336 49.0664L48.4453 46.9883L49.4844 46.4961L49.9219 47.5898L55.3359 61.3164C56.3385 63.8685 57.3229 65.7552 58.2891 66.9766C59.2552 68.1797 60.0846 68.7812 60.7773 68.7812H61.3242C61.543 68.7812 61.7344 68.8177 61.8984 68.8906C62.0807 68.9635 62.2266 69.0456 62.3359 69.1367C62.4635 69.2279 62.5638 69.3737 62.6367 69.5742C62.7279 69.7565 62.7917 69.9115 62.8281 70.0391C62.8646 70.1484 62.8919 70.3307 62.9102 70.5859C62.9466 70.8229 62.9648 70.987 62.9648 71.0781C62.9648 71.1693 62.9648 71.3424 62.9648 71.5977C62.9648 71.8346 62.9648 71.9622 62.9648 71.9805V72.4727C62.9648 73.1471 62.9284 73.6667 62.8555 74.0312C62.8008 74.5052 62.7096 74.8698 62.582 75.125V75.1523L62.5547 75.1797C62.263 75.7266 61.8529 76 61.3242 76H60.7773C57.7878 76 55.3542 74.7513 53.4766 72.2539C50.7969 74.7331 46.8411 75.9727 41.6094 75.9727ZM76.9102 48.2188L80.793 44.3359L81.2031 43.9258L81.6133 44.3359L85.5508 48.2461L85.6602 48.3555L85.7969 48.2188L89.707 44.3359L90.1172 43.9258L90.5273 44.3359L94.4375 48.2461L94.8477 48.6562L94.4375 49.0664L90.5547 52.9492L90.1445 53.3594L89.7344 52.9492L85.7969 49.0391L85.6875 48.9297L85.5508 49.0664L81.6406 52.9492L81.2305 53.3594L80.8477 52.9492L76.9102 49.0391L76.5 48.6289L76.9102 48.2188ZM81.3125 40.8906L85.1953 36.9805L85.6055 36.5703L86.0156 36.9805L89.9258 40.918L90.3359 41.3281L89.9258 41.7383L86.043 45.6211L85.6328 46.0312L85.2227 45.6211L81.3125 41.7109L80.9023 41.3008L81.3125 40.8906ZM82.9805 65.6367C83.0716 65.181 83.1172 64.6159 83.1172 63.9414C83.1172 63.668 83.1081 63.4036 83.0898 63.1484C83.0898 62.875 83.0807 62.6016 83.0625 62.3281C83.0443 62.0547 83.026 61.7812 83.0078 61.5078L82.8711 59.8398L82.7617 58.7734L83.8281 58.6641L88.3125 58.1172L89.4609 58.0078L89.543 59.1289L89.9805 65.4727C89.9987 65.819 90.0352 66.138 90.0898 66.4297C90.1628 66.7031 90.2357 66.9583 90.3086 67.1953C90.3997 67.4141 90.5091 67.6146 90.6367 67.7969C90.7826 67.9609 90.9375 68.1068 91.1016 68.2344C91.2656 68.362 91.4479 68.4622 91.6484 68.5352C91.8672 68.6081 92.1042 68.6628 92.3594 68.6992C92.6146 68.7357 92.888 68.7539 93.1797 68.7539C94.1823 68.7539 94.9297 68.4076 95.4219 67.7148C95.9141 67.0039 96.1602 65.7643 96.1602 63.9961C96.1602 62.2279 95.7773 60.0039 95.0117 57.3242L94.6836 56.2578L95.7773 55.957L100.453 54.6992L101.465 54.4258L101.766 55.4375C102.714 58.4271 103.178 61.2161 103.16 63.8047C103.16 63.8411 103.16 63.8685 103.16 63.8867C103.16 63.9049 103.16 63.9323 103.16 63.9688C103.142 68.4349 101.911 71.7435 99.4688 73.8945C97.8828 75.2799 95.8229 75.9727 93.2891 75.9727C92.2865 75.9727 91.3568 75.8633 90.5 75.6445C89.6615 75.4258 88.8958 75.0977 88.2031 74.6602C87.5104 74.2044 86.918 73.6393 86.4258 72.9648C84.4753 74.9883 81.9414 76 78.8242 76C75.306 75.9818 72.7721 74.9883 71.2227 73.0195C69.3633 75.0065 66.4557 76 62.5 76H60.9688C60.0755 76 59.4102 75.6628 58.9727 74.9883C58.5169 74.3138 58.2891 73.4844 58.2891 72.5V71.9805C58.2891 71.0872 58.526 70.3307 59 69.7109C59.4557 69.0911 60.112 68.7812 60.9688 68.7812H62.5547C64.25 68.7812 65.5169 68.526 66.3555 68.0156C67.194 67.487 67.7227 66.694 67.9414 65.6367C68.0326 65.181 68.0781 64.6159 68.0781 63.9414C68.0781 63.6862 68.069 63.431 68.0508 63.1758C68.0508 62.9023 68.0417 62.6289 68.0234 62.3555C68.0052 62.082 67.987 61.7995 67.9688 61.5078L67.8047 59.8398L67.7227 58.7734L68.7617 58.6641L73.2734 58.1172L74.4219 58.0078L74.5039 59.1289L74.9414 65.4727C75.0143 66.6393 75.3516 67.487 75.9531 68.0156C76.5547 68.526 77.5299 68.7812 78.8789 68.7812C80.1185 68.7812 81.0573 68.5352 81.6953 68.043C82.3333 67.5508 82.7617 66.7487 82.9805 65.6367ZM144.531 76C137.148 76 131.516 74.806 127.633 72.418C123.75 70.0299 121.809 66.4297 121.809 61.6172C121.809 58.9922 122.337 56.5039 123.395 54.1523L123.832 53.168L124.844 53.6055L129.137 55.4648L130.121 55.9023L129.738 56.8867C129.447 57.5794 129.228 58.263 129.082 58.9375C128.954 59.5938 128.891 60.2409 128.891 60.8789C128.891 61.5898 128.982 62.2552 129.164 62.875C129.365 63.4948 129.656 64.0781 130.039 64.625C130.422 65.1719 130.905 65.6641 131.488 66.1016C132.09 66.5208 132.81 66.9036 133.648 67.25C134.487 67.5781 135.426 67.8607 136.465 68.0977C137.522 68.3164 138.716 68.4896 140.047 68.6172C141.378 68.7266 142.827 68.7812 144.395 68.7812C148.97 68.7812 152.68 68.4987 155.523 67.9336C158.367 67.3503 160.254 66.5664 161.184 65.582C161.366 65.3815 161.512 65.0716 161.621 64.6523C161.749 64.2148 161.812 63.6589 161.812 62.9844C161.812 62.7839 161.812 62.5924 161.812 62.4102C161.812 62.2279 161.803 62.0638 161.785 61.918C161.785 61.7721 161.785 61.6354 161.785 61.5078L161.621 59.2656L161.566 58.2266L162.578 58.1172L167.09 57.5703L168.238 57.4609L168.32 58.582L168.758 64.4609C168.849 65.7917 169.223 66.8763 169.879 67.7148C170.152 68.0612 170.526 68.3255 171 68.5078C171.492 68.6901 172.112 68.7812 172.859 68.7812H173.215C173.434 68.7812 173.634 68.8177 173.816 68.8906C173.999 68.9635 174.145 69.0456 174.254 69.1367C174.363 69.2279 174.454 69.3737 174.527 69.5742C174.618 69.7565 174.682 69.9115 174.719 70.0391C174.773 70.1484 174.81 70.3307 174.828 70.5859C174.846 70.8229 174.855 70.987 174.855 71.0781C174.855 71.1693 174.855 71.3424 174.855 71.5977C174.855 71.8346 174.855 71.9622 174.855 71.9805V72.5C174.855 72.5365 174.855 72.7096 174.855 73.0195C174.874 73.3112 174.874 73.5299 174.855 73.6758C174.855 73.8034 174.837 74.013 174.801 74.3047C174.783 74.5781 174.737 74.7969 174.664 74.9609C174.591 75.125 174.491 75.2982 174.363 75.4805C174.254 75.6628 174.099 75.7995 173.898 75.8906C173.716 75.9635 173.488 76 173.215 76H172.859C171.018 76 169.378 75.6445 167.938 74.9336C166.497 74.2227 165.312 73.1745 164.383 71.7891C160.81 74.5964 154.229 76 144.641 76H144.531ZM137.148 49.832L141.113 45.8398L141.523 45.4297L141.934 45.8398L145.953 49.8594L145.98 49.8867L146.035 49.832L150.027 45.8398L150.438 45.4297L150.848 45.8398L154.84 49.8594L155.25 50.2695L154.84 50.6797L150.875 54.6445L150.465 55.0547L150.055 54.6445L146.035 50.6523L146.008 50.625L145.953 50.6797L141.961 54.6445L141.551 55.0547L141.168 54.6445L137.148 50.6523L136.738 50.2422L137.148 49.832ZM185.246 65.8281C182.056 65.8281 179.586 65.1081 177.836 63.668C176.086 62.2096 175.193 60.0951 175.156 57.3242C175.156 57.0508 175.165 56.7773 175.184 56.5039C175.202 56.2122 175.229 55.9297 175.266 55.6562C175.302 55.3828 175.348 55.1094 175.402 54.8359C175.694 53.3229 176.113 51.9648 176.66 50.7617C177.225 49.5404 177.936 48.4922 178.793 47.6172C180.525 45.8307 182.676 44.9375 185.246 44.9375C186.103 44.9375 186.914 45.0469 187.68 45.2656C188.464 45.4844 189.193 45.8034 189.867 46.2227C193.203 48.3919 195.208 52.4661 195.883 58.4453C195.938 59.0651 195.983 59.6667 196.02 60.25C196.056 60.8151 196.074 61.3802 196.074 61.9453C196.074 67.4688 194.698 71.2604 191.945 73.3203C189.557 75.1068 185.492 76 179.75 76H172.859C171.966 76 171.301 75.6628 170.863 74.9883C170.408 74.3138 170.18 73.4844 170.18 72.5V71.9805C170.18 71.0872 170.417 70.3307 170.891 69.7109C171.346 69.0911 172.003 68.7812 172.859 68.7812H180.051C182.931 68.7812 185.128 68.4805 186.641 67.8789C188.172 67.2773 189.102 66.457 189.43 65.418C188.992 65.5091 188.536 65.5911 188.062 65.6641C187.607 65.7188 187.142 65.7643 186.668 65.8008C186.212 65.819 185.738 65.8281 185.246 65.8281ZM181.855 56.5859C181.855 57.3698 182.12 57.9531 182.648 58.3359C183.195 58.7188 184.18 58.901 185.602 58.8828C186.167 58.8828 186.732 58.8464 187.297 58.7734C187.88 58.7005 188.464 58.6003 189.047 58.4727C188.901 57.6523 188.728 56.9049 188.527 56.2305C188.345 55.556 188.126 54.9362 187.871 54.3711C187.671 53.9336 187.461 53.569 187.242 53.2773C187.023 52.9674 186.796 52.7214 186.559 52.5391C186.34 52.3568 186.103 52.2292 185.848 52.1562C185.611 52.0833 185.346 52.0469 185.055 52.0469C184.38 52.0469 183.806 52.2656 183.332 52.7031C182.858 53.1406 182.457 53.888 182.129 54.9453C182.056 55.1458 182.001 55.3464 181.965 55.5469C181.928 55.7292 181.901 55.9115 181.883 56.0938C181.865 56.2578 181.855 56.4219 181.855 56.5859ZM180.105 36.7891L184.098 32.7969L184.508 32.3867L184.918 32.7969L188.91 36.8164L189.32 37.2266L188.91 37.6367L184.945 41.6016L184.535 42.0117L184.125 41.6016L180.105 37.6094L179.695 37.1992L180.105 36.7891ZM214.941 72.4727C214.96 73.6576 214.914 74.4414 214.805 74.8242C214.531 75.6081 214.03 76 213.301 76H212.727C208.898 76 205.991 74.888 204.004 72.6641C202.017 70.4219 201.023 67.2135 201.023 63.0391V37.7734V36.6797H202.117H206.875H207.969V37.7734V62.9844C207.969 65.0443 208.352 66.5299 209.117 67.4414C209.901 68.3346 211.132 68.7812 212.809 68.7812H213.301C213.52 68.7812 213.711 68.8177 213.875 68.8906C214.057 68.9635 214.212 69.0456 214.34 69.1367C214.449 69.2279 214.54 69.3737 214.613 69.5742C214.704 69.7565 214.768 69.9115 214.805 70.0391C214.841 70.1484 214.868 70.3307 214.887 70.5859C214.923 70.8229 214.941 70.987 214.941 71.0781C214.941 71.1693 214.941 71.3424 214.941 71.5977C214.941 71.8346 214.941 71.9622 214.941 71.9805V72.4727ZM215.023 76H212.945C212.052 76 211.387 75.6628 210.949 74.9883C210.493 74.3138 210.266 73.4844 210.266 72.5V71.9805C210.266 71.0872 210.503 70.3307 210.977 69.7109C211.432 69.0911 212.089 68.7812 212.945 68.7812H215.023C217.74 68.7812 219.535 68.5352 220.41 68.043C221.595 67.3503 222.188 65.7643 222.188 63.2852C222.188 61.207 221.868 58.8828 221.23 56.3125L220.957 55.2461L222.023 55L226.48 53.8789L227.465 53.6055L227.793 54.5898C228.704 57.543 229.16 60.4141 229.16 63.2031C229.142 68.0339 227.72 71.5247 224.895 73.6758C224.348 74.0768 223.728 74.4323 223.035 74.7422C222.361 75.0339 221.604 75.2708 220.766 75.4531C219.945 75.6354 219.061 75.7721 218.113 75.8633C217.165 75.9544 216.135 76 215.023 76ZM212.125 84.2578L216.09 80.2656L216.5 79.8555L216.91 80.2656L220.93 84.2852L220.957 84.3125L221.012 84.2578L225.004 80.2656L225.414 79.8555L225.824 80.2656L229.816 84.2852L230.227 84.6953L229.816 85.1055L225.852 89.0703L225.441 89.4805L225.031 89.0703L221.012 85.0781L220.984 85.0508L220.93 85.1055L216.938 89.0703L216.527 89.4805L216.145 89.0703L212.125 85.0781L211.715 84.668L212.125 84.2578ZM252.074 59.9219C253.66 63.5495 254.453 67.0495 254.453 70.4219C254.453 76 252.749 80.3841 249.34 83.5742C245.931 86.7643 240.936 88.7057 234.355 89.3984L233.398 89.5078L233.18 88.5781L232.004 83.9297L231.703 82.6992L232.961 82.5625C237.938 82.0703 241.602 80.8398 243.953 78.8711C246.305 76.9206 247.471 74.2135 247.453 70.75C247.453 68.125 246.779 65.3633 245.43 62.4648L244.91 61.3711L246.059 60.9609L250.707 59.3477L251.664 58.9922L252.074 59.9219ZM258.965 68.0703C261.189 68.526 263.312 68.7539 265.336 68.7539C271.352 68.7539 274.359 67.4688 274.359 64.8984C274.359 63.2943 273.466 61.4805 271.68 59.457C269.893 57.4336 267.177 55.2734 263.531 52.9766L262.574 52.375L263.203 51.4453L265.938 47.2891L266.512 46.4141L267.414 46.9609C276.784 52.5391 281.469 58.4909 281.469 64.8164C281.469 66.3112 281.241 67.6602 280.785 68.8633C280.329 70.0664 279.664 71.1055 278.789 71.9805C277.914 72.8555 276.829 73.5938 275.535 74.1953C274.259 74.7786 272.801 75.2161 271.16 75.5078C269.52 75.7995 267.697 75.9453 265.691 75.9453C262.939 75.9453 260.542 75.7174 258.5 75.2617L257.652 75.0703V74.1953V69.1367V67.7969L258.965 68.0703Z" fill="#3C3C3C"/>
</svg>
