<svg width="316" height="121" viewBox="0 0 316 121" fill="none" xmlns="http://www.w3.org/2000/svg">
<mask id="path-1-inside-1_303:5" fill="white">
<rect width="316" height="121" rx="6"/>
</mask>
<rect width="316" height="121" rx="6" stroke="#4BD927" stroke-width="16" mask="url(#path-1-inside-1_303:5)"/>
<path d="M41.6094 75.9727C39.0938 75.9727 36.4232 75.7083 33.5977 75.1797L32.6953 75.0156V74.0859V69.0547V67.7148L34.0078 67.9883C36.487 68.4987 39.0664 68.7539 41.7461 68.7539C42.8763 68.7539 43.8789 68.7083 44.7539 68.6172C45.6471 68.5078 46.3672 68.3711 46.9141 68.207C47.4792 68.0247 47.9349 67.806 48.2812 67.5508C48.6458 67.2956 48.901 67.0404 49.0469 66.7852C49.1927 66.5117 49.2656 66.2201 49.2656 65.9102C49.2656 65.4909 49.056 64.6432 48.6367 63.3672C48.2174 62.0911 47.625 60.5326 46.8594 58.6914L43.3867 50.4883L42.9766 49.5039L43.9336 49.0664L48.4453 46.9883L49.4844 46.4961L49.9219 47.5898L55.3359 61.3164C56.3385 63.8685 57.3229 65.7552 58.2891 66.9766C59.2552 68.1797 60.0846 68.7812 60.7773 68.7812H61.3242C61.543 68.7812 61.7344 68.8177 61.8984 68.8906C62.0807 68.9635 62.2266 69.0456 62.3359 69.1367C62.4635 69.2279 62.5638 69.3737 62.6367 69.5742C62.7279 69.7565 62.7917 69.9115 62.8281 70.0391C62.8646 70.1484 62.8919 70.3307 62.9102 70.5859C62.9466 70.8229 62.9648 70.987 62.9648 71.0781C62.9648 71.1693 62.9648 71.3424 62.9648 71.5977C62.9648 71.8346 62.9648 71.9622 62.9648 71.9805V72.4727C62.9648 73.1471 62.9284 73.6667 62.8555 74.0312C62.8008 74.5052 62.7096 74.8698 62.582 75.125V75.1523L62.5547 75.1797C62.263 75.7266 61.8529 76 61.3242 76H60.7773C57.7878 76 55.3542 74.7513 53.4766 72.2539C50.7969 74.7331 46.8411 75.9727 41.6094 75.9727ZM76.9102 48.2188L80.793 44.3359L81.2031 43.9258L81.6133 44.3359L85.5508 48.2461L85.6602 48.3555L85.7969 48.2188L89.707 44.3359L90.1172 43.9258L90.5273 44.3359L94.4375 48.2461L94.8477 48.6562L94.4375 49.0664L90.5547 52.9492L90.1445 53.3594L89.7344 52.9492L85.7969 49.0391L85.6875 48.9297L85.5508 49.0664L81.6406 52.9492L81.2305 53.3594L80.8477 52.9492L76.9102 49.0391L76.5 48.6289L76.9102 48.2188ZM81.3125 40.8906L85.1953 36.9805L85.6055 36.5703L86.0156 36.9805L89.9258 40.918L90.3359 41.3281L89.9258 41.7383L86.043 45.6211L85.6328 46.0312L85.2227 45.6211L81.3125 41.7109L80.9023 41.3008L81.3125 40.8906ZM82.9805 65.6367C83.0716 65.181 83.1172 64.6159 83.1172 63.9414C83.1172 63.668 83.1081 63.4036 83.0898 63.1484C83.0898 62.875 83.0807 62.6016 83.0625 62.3281C83.0443 62.0547 83.026 61.7812 83.0078 61.5078L82.8711 59.8398L82.7617 58.7734L83.8281 58.6641L88.3125 58.1172L89.4609 58.0078L89.543 59.1289L89.9805 65.4727C89.9987 65.819 90.0352 66.138 90.0898 66.4297C90.1628 66.7031 90.2357 66.9583 90.3086 67.1953C90.3997 67.4141 90.5091 67.6146 90.6367 67.7969C90.7826 67.9609 90.9375 68.1068 91.1016 68.2344C91.2656 68.362 91.4479 68.4622 91.6484 68.5352C91.8672 68.6081 92.1042 68.6628 92.3594 68.6992C92.6146 68.7357 92.888 68.7539 93.1797 68.7539C94.1823 68.7539 94.9297 68.4076 95.4219 67.7148C95.9141 67.0039 96.1602 65.7643 96.1602 63.9961C96.1602 62.2279 95.7773 60.0039 95.0117 57.3242L94.6836 56.2578L95.7773 55.957L100.453 54.6992L101.465 54.4258L101.766 55.4375C102.714 58.4271 103.178 61.2161 103.16 63.8047C103.16 63.8411 103.16 63.8685 103.16 63.8867C103.16 63.9049 103.16 63.9323 103.16 63.9688C103.142 68.4349 101.911 71.7435 99.4688 73.8945C97.8828 75.2799 95.8229 75.9727 93.2891 75.9727C92.2865 75.9727 91.3568 75.8633 90.5 75.6445C89.6615 75.4258 88.8958 75.0977 88.2031 74.6602C87.5104 74.2044 86.918 73.6393 86.4258 72.9648C84.4753 74.9883 81.9414 76 78.8242 76C75.306 75.9818 72.7721 74.9883 71.2227 73.0195C69.3633 75.0065 66.4557 76 62.5 76H60.9688C60.0755 76 59.4102 75.6628 58.9727 74.9883C58.5169 74.3138 58.2891 73.4844 58.2891 72.5V71.9805C58.2891 71.0872 58.526 70.3307 59 69.7109C59.4557 69.0911 60.112 68.7812 60.9688 68.7812H62.5547C64.25 68.7812 65.5169 68.526 66.3555 68.0156C67.194 67.487 67.7227 66.694 67.9414 65.6367C68.0326 65.181 68.0781 64.6159 68.0781 63.9414C68.0781 63.6862 68.069 63.431 68.0508 63.1758C68.0508 62.9023 68.0417 62.6289 68.0234 62.3555C68.0052 62.082 67.987 61.7995 67.9688 61.5078L67.8047 59.8398L67.7227 58.7734L68.7617 58.6641L73.2734 58.1172L74.4219 58.0078L74.5039 59.1289L74.9414 65.4727C75.0143 66.6393 75.3516 67.487 75.9531 68.0156C76.5547 68.526 77.5299 68.7812 78.8789 68.7812C80.1185 68.7812 81.0573 68.5352 81.6953 68.043C82.3333 67.5508 82.7617 66.7487 82.9805 65.6367ZM144.531 76C137.148 76 131.516 74.806 127.633 72.418C123.75 70.0299 121.809 66.4297 121.809 61.6172C121.809 58.9922 122.337 56.5039 123.395 54.1523L123.832 53.168L124.844 53.6055L129.137 55.4648L130.121 55.9023L129.738 56.8867C129.447 57.5794 129.228 58.263 129.082 58.9375C128.954 59.5938 128.891 60.2409 128.891 60.8789C128.891 61.5898 128.982 62.2552 129.164 62.875C129.365 63.4948 129.656 64.0781 130.039 64.625C130.422 65.1719 130.905 65.6641 131.488 66.1016C132.09 66.5208 132.81 66.9036 133.648 67.25C134.487 67.5781 135.426 67.8607 136.465 68.0977C137.522 68.3164 138.716 68.4896 140.047 68.6172C141.378 68.7266 142.827 68.7812 144.395 68.7812C148.97 68.7812 152.68 68.4987 155.523 67.9336C158.367 67.3503 160.254 66.5664 161.184 65.582C161.366 65.3815 161.512 65.0716 161.621 64.6523C161.749 64.2148 161.812 63.6589 161.812 62.9844C161.812 62.7839 161.812 62.5924 161.812 62.4102C161.812 62.2279 161.803 62.0638 161.785 61.918C161.785 61.7721 161.785 61.6354 161.785 61.5078L161.621 59.2656L161.566 58.2266L162.578 58.1172L167.09 57.5703L168.238 57.4609L168.32 58.582L168.758 64.4609C168.849 65.7917 169.223 66.8763 169.879 67.7148C170.152 68.0612 170.526 68.3255 171 68.5078C171.492 68.6901 172.112 68.7812 172.859 68.7812H173.215C173.434 68.7812 173.634 68.8177 173.816 68.8906C173.999 68.9635 174.145 69.0456 174.254 69.1367C174.363 69.2279 174.454 69.3737 174.527 69.5742C174.618 69.7565 174.682 69.9115 174.719 70.0391C174.773 70.1484 174.81 70.3307 174.828 70.5859C174.846 70.8229 174.855 70.987 174.855 71.0781C174.855 71.1693 174.855 71.3424 174.855 71.5977C174.855 71.8346 174.855 71.9622 174.855 71.9805V72.5C174.855 72.5365 174.855 72.7096 174.855 73.0195C174.874 73.3112 174.874 73.5299 174.855 73.6758C174.855 73.8034 174.837 74.013 174.801 74.3047C174.783 74.5781 174.737 74.7969 174.664 74.9609C174.591 75.125 174.491 75.2982 174.363 75.4805C174.254 75.6628 174.099 75.7995 173.898 75.8906C173.716 75.9635 173.488 76 173.215 76H172.859C171.018 76 169.378 75.6445 167.938 74.9336C166.497 74.2227 165.312 73.1745 164.383 71.7891C160.81 74.5964 154.229 76 144.641 76H144.531ZM137.148 49.832L141.113 45.8398L141.523 45.4297L141.934 45.8398L145.953 49.8594L145.98 49.8867L146.035 49.832L150.027 45.8398L150.438 45.4297L150.848 45.8398L154.84 49.8594L155.25 50.2695L154.84 50.6797L150.875 54.6445L150.465 55.0547L150.055 54.6445L146.035 50.6523L146.008 50.625L145.953 50.6797L141.961 54.6445L141.551 55.0547L141.168 54.6445L137.148 50.6523L136.738 50.2422L137.148 49.832ZM183.414 41.5469L187.406 37.5547L187.816 37.1445L188.227 37.5547L192.219 41.5742L192.629 41.9844L192.219 42.3945L188.254 46.3594L187.844 46.7695L187.434 46.3594L183.414 42.3672L183.004 41.957L183.414 41.5469ZM172.859 76C171.966 76 171.301 75.6628 170.863 74.9883C170.408 74.3138 170.18 73.4844 170.18 72.5V71.9805C170.18 71.0872 170.417 70.3307 170.891 69.7109C171.346 69.0911 172.003 68.7812 172.859 68.7812H174.5C180.297 68.7812 187.507 66.5664 196.129 62.1367C195.199 61.7721 193.996 61.2891 192.52 60.6875C189.074 59.3021 186.777 58.6094 185.629 58.6094C183.915 58.6094 182.503 59.3203 181.391 60.7422L180.625 61.7539L180.078 62.4375L179.285 62.0547L175.074 59.9766L174.008 59.457L174.637 58.418L175.074 57.6797C176.314 55.638 177.827 54.0977 179.613 53.0586C181.4 52.0013 183.414 51.4635 185.656 51.4453C188.135 51.4453 191.061 52.2656 194.434 53.9062C199.993 56.6042 204.259 58.0169 207.23 58.1445L208.27 58.1992V59.2656L208.215 63.9961V65.0078L207.23 65.0898C205.262 65.2539 201.525 66.7852 196.02 69.6836C188.053 73.8945 180.771 76 174.172 76H172.859ZM214.012 36.6797H218.742H219.836V37.7734V74.8789V75.9727H218.742H214.012H212.918V74.8789V37.7734V36.6797H214.012ZM225.934 68.0703C228.158 68.526 230.281 68.7539 232.305 68.7539C238.32 68.7539 241.328 67.4688 241.328 64.8984C241.328 63.2943 240.435 61.4805 238.648 59.457C236.862 57.4336 234.146 55.2734 230.5 52.9766L229.543 52.375L230.172 51.4453L232.906 47.2891L233.48 46.4141L234.383 46.9609C243.753 52.5391 248.438 58.4909 248.438 64.8164C248.438 66.3112 248.21 67.6602 247.754 68.8633C247.298 70.0664 246.633 71.1055 245.758 71.9805C244.883 72.8555 243.798 73.5938 242.504 74.1953C241.228 74.7786 239.77 75.2161 238.129 75.5078C236.488 75.7995 234.665 75.9453 232.66 75.9453C229.908 75.9453 227.51 75.7174 225.469 75.2617L224.621 75.0703V74.1953V69.1367V67.7969L225.934 68.0703ZM263.969 60.0586L265.5 65.3359C265.865 66.5573 266.375 67.4414 267.031 67.9883C267.688 68.5169 268.562 68.7812 269.656 68.7812H270.422C270.604 68.7812 270.777 68.8086 270.941 68.8633C271.105 68.8997 271.242 68.9727 271.352 69.082C271.461 69.1914 271.552 69.2917 271.625 69.3828C271.716 69.474 271.789 69.6107 271.844 69.793C271.898 69.957 271.935 70.0938 271.953 70.2031C271.99 70.2943 272.008 70.4492 272.008 70.668C272.026 70.8867 272.035 71.0326 272.035 71.1055C272.053 71.1784 272.062 71.3151 272.062 71.5156C272.062 71.7161 272.062 71.8255 272.062 71.8438V72.5C272.062 72.5182 272.062 72.6823 272.062 72.9922C272.081 73.3021 272.081 73.5299 272.062 73.6758C272.062 73.8034 272.044 74.013 272.008 74.3047C271.99 74.5964 271.944 74.8242 271.871 74.9883C271.798 75.1341 271.698 75.2982 271.57 75.4805C271.461 75.6628 271.306 75.7995 271.105 75.8906C270.905 75.9635 270.677 76 270.422 76H269.957C268.207 76 266.812 75.7812 265.773 75.3438C264.917 79.4271 262.829 82.6354 259.512 84.9688C256.212 87.3203 251.783 88.7969 246.223 89.3984L245.266 89.5078L245.047 88.5781L243.871 83.9297L243.57 82.6992L244.828 82.5625C249.805 82.0703 253.469 80.8398 255.82 78.8711C258.172 76.9206 259.339 74.2044 259.32 70.7227C259.32 68.1523 258.637 65.3997 257.27 62.4648L256.75 61.3711L257.898 60.9609L262.547 59.3477L263.641 58.9648L263.969 60.0586ZM272.062 76H269.984C269.091 76 268.426 75.6628 267.988 74.9883C267.533 74.3138 267.305 73.4844 267.305 72.5V71.9805C267.305 71.0872 267.542 70.3307 268.016 69.7109C268.471 69.0911 269.128 68.7812 269.984 68.7812H272.062C274.779 68.7812 276.574 68.5352 277.449 68.043C278.634 67.3503 279.227 65.7643 279.227 63.2852C279.227 61.207 278.908 58.8828 278.27 56.3125L277.996 55.2461L279.062 55L283.52 53.8789L284.504 53.6055L284.832 54.5898C285.743 57.543 286.199 60.4141 286.199 63.2031C286.181 68.0339 284.759 71.5247 281.934 73.6758C281.387 74.0768 280.767 74.4323 280.074 74.7422C279.4 75.0339 278.643 75.2708 277.805 75.4531C276.984 75.6354 276.1 75.7721 275.152 75.8633C274.204 75.9544 273.174 76 272.062 76ZM269.055 83.8203L272.992 79.9375L273.375 79.4727L273.785 79.9375L277.695 83.793L277.832 83.9297L277.941 83.8203L281.879 79.9375L282.289 79.4727L282.699 79.9375L286.582 83.793L286.992 84.2031L286.582 84.6406L282.672 88.5234L282.262 88.9336L281.852 88.5234L277.941 84.6406L277.805 84.4766L277.695 84.6406L273.758 88.5234L273.348 88.9336L272.938 88.5234L269.055 84.6406L268.645 84.2305L269.055 83.8203ZM273.457 91.1484L277.367 87.2656L277.777 86.8281L278.188 87.2656L282.07 91.1211L282.48 91.5586L282.07 91.9688L278.16 95.8789L277.75 96.2891L277.34 95.8789L273.457 91.9688L273.047 91.5586L273.457 91.1484Z" fill="#4BD927"/>
</svg>
