<svg width="316" height="121" viewBox="0 0 316 121" fill="none" xmlns="http://www.w3.org/2000/svg">
<mask id="path-1-inside-1_303:5" fill="white">
<rect width="316" height="121" rx="6"/>
</mask>
<rect width="316" height="121" rx="6" stroke="#4F46E5" stroke-width="16" mask="url(#path-1-inside-1_303:5)"/>
<path d="M54.6094 75.9727C52.0938 75.9727 49.4232 75.7083 46.5977 75.1797L45.6953 75.0156V74.0859V69.0547V67.7148L47.0078 67.9883C49.487 68.4987 52.0664 68.7539 54.7461 68.7539C55.8763 68.7539 56.8789 68.7083 57.7539 68.6172C58.6471 68.5078 59.3672 68.3711 59.9141 68.207C60.4792 68.0247 60.9349 67.806 61.2812 67.5508C61.6458 67.2956 61.901 67.0404 62.0469 66.7852C62.1927 66.5117 62.2656 66.2201 62.2656 65.9102C62.2656 65.4909 62.056 64.6432 61.6367 63.3672C61.2174 62.0911 60.625 60.5326 59.8594 58.6914L56.3867 50.4883L55.9766 49.5039L56.9336 49.0664L61.4453 46.9883L62.4844 46.4961L62.9219 47.5898L68.3359 61.3164C69.3385 63.8685 70.3229 65.7552 71.2891 66.9766C72.2552 68.1797 73.0846 68.7812 73.7773 68.7812H74.3242C74.543 68.7812 74.7344 68.8177 74.8984 68.8906C75.0807 68.9635 75.2266 69.0456 75.3359 69.1367C75.4635 69.2279 75.5638 69.3737 75.6367 69.5742C75.7279 69.7565 75.7917 69.9115 75.8281 70.0391C75.8646 70.1484 75.8919 70.3307 75.9102 70.5859C75.9466 70.8229 75.9648 70.987 75.9648 71.0781C75.9648 71.1693 75.9648 71.3424 75.9648 71.5977C75.9648 71.8346 75.9648 71.9622 75.9648 71.9805V72.4727C75.9648 73.1471 75.9284 73.6667 75.8555 74.0312C75.8008 74.5052 75.7096 74.8698 75.582 75.125V75.1523L75.5547 75.1797C75.263 75.7266 74.8529 76 74.3242 76H73.7773C70.7878 76 68.3542 74.7513 66.4766 72.2539C63.7969 74.7331 59.8411 75.9727 54.6094 75.9727ZM89.9102 48.2188L93.793 44.3359L94.2031 43.9258L94.6133 44.3359L98.5508 48.2461L98.6602 48.3555L98.7969 48.2188L102.707 44.3359L103.117 43.9258L103.527 44.3359L107.438 48.2461L107.848 48.6562L107.438 49.0664L103.555 52.9492L103.145 53.3594L102.734 52.9492L98.7969 49.0391L98.6875 48.9297L98.5508 49.0664L94.6406 52.9492L94.2305 53.3594L93.8477 52.9492L89.9102 49.0391L89.5 48.6289L89.9102 48.2188ZM94.3125 40.8906L98.1953 36.9805L98.6055 36.5703L99.0156 36.9805L102.926 40.918L103.336 41.3281L102.926 41.7383L99.043 45.6211L98.6328 46.0312L98.2227 45.6211L94.3125 41.7109L93.9023 41.3008L94.3125 40.8906ZM95.9805 65.6367C96.0716 65.181 96.1172 64.6159 96.1172 63.9414C96.1172 63.668 96.1081 63.4036 96.0898 63.1484C96.0898 62.875 96.0807 62.6016 96.0625 62.3281C96.0443 62.0547 96.026 61.7812 96.0078 61.5078L95.8711 59.8398L95.7617 58.7734L96.8281 58.6641L101.312 58.1172L102.461 58.0078L102.543 59.1289L102.98 65.4727C102.999 65.819 103.035 66.138 103.09 66.4297C103.163 66.7031 103.236 66.9583 103.309 67.1953C103.4 67.4141 103.509 67.6146 103.637 67.7969C103.783 67.9609 103.938 68.1068 104.102 68.2344C104.266 68.362 104.448 68.4622 104.648 68.5352C104.867 68.6081 105.104 68.6628 105.359 68.6992C105.615 68.7357 105.888 68.7539 106.18 68.7539C107.182 68.7539 107.93 68.4076 108.422 67.7148C108.914 67.0039 109.16 65.7643 109.16 63.9961C109.16 62.2279 108.777 60.0039 108.012 57.3242L107.684 56.2578L108.777 55.957L113.453 54.6992L114.465 54.4258L114.766 55.4375C115.714 58.4271 116.178 61.2161 116.16 63.8047C116.16 63.8411 116.16 63.8685 116.16 63.8867C116.16 63.9049 116.16 63.9323 116.16 63.9688C116.142 68.4349 114.911 71.7435 112.469 73.8945C110.883 75.2799 108.823 75.9727 106.289 75.9727C105.286 75.9727 104.357 75.8633 103.5 75.6445C102.661 75.4258 101.896 75.0977 101.203 74.6602C100.51 74.2044 99.918 73.6393 99.4258 72.9648C97.4753 74.9883 94.9414 76 91.8242 76C88.306 75.9818 85.7721 74.9883 84.2227 73.0195C82.3633 75.0065 79.4557 76 75.5 76H73.9688C73.0755 76 72.4102 75.6628 71.9727 74.9883C71.5169 74.3138 71.2891 73.4844 71.2891 72.5V71.9805C71.2891 71.0872 71.526 70.3307 72 69.7109C72.4557 69.0911 73.112 68.7812 73.9688 68.7812H75.5547C77.25 68.7812 78.5169 68.526 79.3555 68.0156C80.194 67.487 80.7227 66.694 80.9414 65.6367C81.0326 65.181 81.0781 64.6159 81.0781 63.9414C81.0781 63.6862 81.069 63.431 81.0508 63.1758C81.0508 62.9023 81.0417 62.6289 81.0234 62.3555C81.0052 62.082 80.987 61.7995 80.9688 61.5078L80.8047 59.8398L80.7227 58.7734L81.7617 58.6641L86.2734 58.1172L87.4219 58.0078L87.5039 59.1289L87.9414 65.4727C88.0143 66.6393 88.3516 67.487 88.9531 68.0156C89.5547 68.526 90.5299 68.7812 91.8789 68.7812C93.1185 68.7812 94.0573 68.5352 94.6953 68.043C95.3333 67.5508 95.7617 66.7487 95.9805 65.6367ZM135.137 63.8047C135.137 58.099 139.812 53.7148 149.164 50.6523L149.109 50.3516L148.918 49.3125L149.957 49.0938L154.414 48.1641L155.535 47.9453L155.699 49.0938L157.969 65.2539C158.133 66.5117 158.525 67.4141 159.145 67.9609C159.764 68.5078 160.703 68.7812 161.961 68.7812H162.508C162.672 68.7812 162.827 68.8086 162.973 68.8633C163.137 68.8997 163.264 68.9544 163.355 69.0273C163.465 69.082 163.565 69.1732 163.656 69.3008C163.747 69.4102 163.82 69.5195 163.875 69.6289C163.93 69.7201 163.975 69.8477 164.012 70.0117C164.048 70.1576 164.076 70.2852 164.094 70.3945C164.112 70.4857 164.121 70.6224 164.121 70.8047C164.139 70.987 164.148 71.1146 164.148 71.1875C164.148 71.2604 164.148 71.3789 164.148 71.543C164.148 71.707 164.148 71.8073 164.148 71.8438V72.5C164.148 72.5365 164.148 72.7096 164.148 73.0195C164.167 73.3112 164.167 73.5299 164.148 73.6758C164.148 73.8034 164.13 74.013 164.094 74.3047C164.076 74.5964 164.03 74.8242 163.957 74.9883C163.884 75.1341 163.784 75.2982 163.656 75.4805C163.547 75.6628 163.392 75.7995 163.191 75.8906C162.991 75.9635 162.763 76 162.508 76H161.852C159.5 76 157.513 75.5443 155.891 74.6328C154.286 73.7214 153.129 72.3633 152.418 70.5586C150.376 71.9622 148.125 72.6641 145.664 72.6641C141.18 72.6641 138.035 71.1602 136.23 68.1523C135.866 67.5326 135.592 66.8581 135.41 66.1289C135.228 65.3997 135.137 64.625 135.137 63.8047ZM150.23 57.4336C148.79 57.9805 147.542 58.5456 146.484 59.1289C145.427 59.694 144.589 60.2318 143.969 60.7422C143.367 61.2526 142.921 61.7357 142.629 62.1914C142.337 62.6471 142.191 63.0755 142.191 63.4766C142.191 64.2604 142.419 64.8346 142.875 65.1992C143.349 65.5456 144.215 65.7188 145.473 65.7188C146.694 65.7188 147.915 65.3451 149.137 64.5977C149.829 64.1784 150.303 63.6497 150.559 63.0117C150.814 62.3555 150.859 61.5169 150.695 60.4961L150.23 57.4336ZM164.203 76H162.125C161.232 76 160.566 75.6628 160.129 74.9883C159.673 74.3138 159.445 73.4844 159.445 72.5V71.9805C159.445 71.0872 159.682 70.3307 160.156 69.7109C160.612 69.0911 161.268 68.7812 162.125 68.7812H164.203C166.919 68.7812 168.715 68.5352 169.59 68.043C170.775 67.3503 171.367 65.7643 171.367 63.2852C171.367 61.207 171.048 58.8828 170.41 56.3125L170.137 55.2461L171.203 55L175.66 53.8789L176.645 53.6055L176.973 54.5898C177.884 57.543 178.34 60.4141 178.34 63.2031C178.322 68.0339 176.9 71.5247 174.074 73.6758C173.527 74.0768 172.908 74.4323 172.215 74.7422C171.54 75.0339 170.784 75.2708 169.945 75.4531C169.125 75.6354 168.241 75.7721 167.293 75.8633C166.345 75.9544 165.315 76 164.203 76ZM161.305 84.2578L165.27 80.2656L165.68 79.8555L166.09 80.2656L170.109 84.2852L170.137 84.3125L170.191 84.2578L174.184 80.2656L174.594 79.8555L175.004 80.2656L178.996 84.2852L179.406 84.6953L178.996 85.1055L175.031 89.0703L174.621 89.4805L174.211 89.0703L170.191 85.0781L170.164 85.0508L170.109 85.1055L166.117 89.0703L165.707 89.4805L165.324 89.0703L161.305 85.0781L160.895 84.668L161.305 84.2578ZM196.988 68.7812C196.496 63.8594 195.129 61.3893 192.887 61.3711C192.285 61.3711 191.766 61.5625 191.328 61.9453C190.891 62.3281 190.508 62.9844 190.18 63.9141C189.888 64.7708 189.742 65.582 189.742 66.3477C189.742 66.8945 189.852 67.3411 190.07 67.6875C190.289 68.0156 190.699 68.2799 191.301 68.4805C191.902 68.681 192.723 68.7812 193.762 68.7812H196.988ZM203.742 68.8086H205.574C205.829 68.8086 206.057 68.8542 206.258 68.9453C206.458 69.0182 206.613 69.1458 206.723 69.3281C206.85 69.5104 206.951 69.6745 207.023 69.8203C207.096 69.9661 207.142 70.1849 207.16 70.4766C207.197 70.7682 207.215 70.9779 207.215 71.1055C207.233 71.2331 207.233 71.4518 207.215 71.7617C207.215 72.0534 207.215 72.2083 207.215 72.2266V72.5C207.215 72.5911 207.215 72.7188 207.215 72.8828C207.233 73.0286 207.224 73.3112 207.188 73.7305C207.151 74.1315 207.078 74.487 206.969 74.7969C206.878 75.1068 206.704 75.3893 206.449 75.6445C206.212 75.8815 205.921 76 205.574 76L203.414 75.9727C202.521 79.9102 200.443 82.9909 197.18 85.2148C193.935 87.457 189.596 88.8516 184.164 89.3984L183.234 89.4805L183.016 88.5781L181.84 83.875L181.539 82.6719L182.77 82.5352C190.025 81.7513 194.573 79.5729 196.414 76H194.035C190.48 76 187.737 75.2161 185.805 73.6484C183.891 72.0807 182.934 69.7839 182.934 66.7578C182.934 64.388 183.444 62.1367 184.465 60.0039C185.085 58.7096 185.823 57.625 186.68 56.75C187.536 55.8568 188.512 55.1823 189.605 54.7266C190.717 54.2526 191.921 54.0156 193.215 54.0156C196.259 54.0156 198.647 55.2917 200.379 57.8438C202.129 60.3958 203.25 64.0508 203.742 68.8086ZM234.23 65.4727C234.285 66.2747 234.431 66.9219 234.668 67.4141C234.923 67.888 235.27 68.2344 235.707 68.4531C236.163 68.6536 236.755 68.7539 237.484 68.7539C238.523 68.7539 239.28 68.4349 239.754 67.7969C240.246 67.1589 240.483 66.0286 240.465 64.4062C240.465 63.0026 240.428 61.8451 240.355 60.9336L240.191 59.2656L240.109 58.2266L241.148 58.0898L245.66 57.5703L246.781 57.4336L246.891 58.5547L247.328 63.7227C247.401 64.6523 247.538 65.4453 247.738 66.1016C247.957 66.7578 248.23 67.2865 248.559 67.6875C248.905 68.0703 249.297 68.3529 249.734 68.5352C250.19 68.6992 250.71 68.7812 251.293 68.7812H251.785C252.022 68.7812 252.223 68.8177 252.387 68.8906C252.569 68.9635 252.715 69.0456 252.824 69.1367C252.952 69.2279 253.052 69.3737 253.125 69.5742C253.216 69.7565 253.28 69.9115 253.316 70.0391C253.353 70.1484 253.38 70.3307 253.398 70.5859C253.435 70.8229 253.453 70.987 253.453 71.0781C253.453 71.1693 253.444 71.3424 253.426 71.5977C253.426 71.8346 253.426 71.9622 253.426 71.9805V72.5C253.426 73.6302 253.398 74.3229 253.344 74.5781C253.125 75.5078 252.605 75.9818 251.785 76H251.348C248.121 76 245.815 75.0521 244.43 73.1562C243.628 74.1224 242.652 74.8424 241.504 75.3164C240.374 75.7721 239.089 76 237.648 76C236.154 76 234.814 75.7448 233.629 75.2344C232.462 74.7057 231.496 73.9401 230.73 72.9375C228.762 74.9792 226.21 76 223.074 76C219.556 75.9818 217.022 74.9883 215.473 73.0195C213.613 75.0065 210.706 76 206.75 76H205.219C204.326 76 203.66 75.6628 203.223 74.9883C202.767 74.3138 202.539 73.4844 202.539 72.5V71.9805C202.539 71.0872 202.776 70.3307 203.25 69.7109C203.706 69.0911 204.362 68.7812 205.219 68.7812H206.805C209.977 68.7812 211.781 67.7331 212.219 65.6367C212.292 65.2721 212.328 64.707 212.328 63.9414C212.328 63.194 212.292 62.3828 212.219 61.5078L212.055 59.8398L211.973 58.7734L213.012 58.6641L217.523 58.1172L218.672 58.0078L218.754 59.1289L219.191 65.4727C219.264 66.6393 219.602 67.487 220.203 68.0156C220.805 68.526 221.78 68.7812 223.129 68.7812C223.767 68.7812 224.314 68.7266 224.77 68.6172C225.243 68.4896 225.645 68.2982 225.973 68.043C226.301 67.7695 226.565 67.4414 226.766 67.0586C226.984 66.6758 227.148 66.2018 227.258 65.6367C227.331 65.2721 227.367 64.707 227.367 63.9414C227.367 63.1393 227.331 62.3281 227.258 61.5078L227.121 59.8398L227.012 58.7734L228.078 58.6641L232.562 58.1172L233.711 58.0078L233.793 59.1289L234.23 65.4727ZM253.453 76H251.375C250.482 76 249.816 75.6628 249.379 74.9883C248.923 74.3138 248.695 73.4844 248.695 72.5V71.9805C248.695 71.0872 248.932 70.3307 249.406 69.7109C249.862 69.0911 250.518 68.7812 251.375 68.7812H253.453C256.169 68.7812 257.965 68.5352 258.84 68.043C260.025 67.3503 260.617 65.7643 260.617 63.2852C260.617 61.207 260.298 58.8828 259.66 56.3125L259.387 55.2461L260.453 55L264.91 53.8789L265.895 53.6055L266.223 54.5898C267.134 57.543 267.59 60.4141 267.59 63.2031C267.572 68.0339 266.15 71.5247 263.324 73.6758C262.777 74.0768 262.158 74.4323 261.465 74.7422C260.79 75.0339 260.034 75.2708 259.195 75.4531C258.375 75.6354 257.491 75.7721 256.543 75.8633C255.595 75.9544 254.565 76 253.453 76ZM250.992 45.375L254.957 41.3828L255.367 40.9727L255.777 41.3828L259.797 45.4023L259.824 45.4297L259.879 45.375L263.871 41.3828L264.281 40.9727L264.691 41.3828L268.684 45.4023L269.094 45.8125L268.684 46.2227L264.719 50.1875L264.309 50.5977L263.898 50.1875L259.879 46.1953L259.852 46.168L259.797 46.2227L255.805 50.1875L255.395 50.5977L255.012 50.1875L250.992 46.1953L250.582 45.7852L250.992 45.375Z" fill="#4F46E5"/>
</svg>
