<svg width="316" height="121" viewBox="0 0 316 121" fill="none" xmlns="http://www.w3.org/2000/svg">
<mask id="path-1-inside-1_303:5" fill="white">
<rect width="316" height="121" rx="6"/>
</mask>
<rect width="316" height="121" rx="6" stroke="#4BD927" stroke-width="16" mask="url(#path-1-inside-1_303:5)"/>
<path d="M81.6094 75.9727C79.0938 75.9727 76.4232 75.7083 73.5977 75.1797L72.6953 75.0156V74.0859V69.0547V67.7148L74.0078 67.9883C76.487 68.4987 79.0664 68.7539 81.7461 68.7539C82.8763 68.7539 83.8789 68.7083 84.7539 68.6172C85.6471 68.5078 86.3672 68.3711 86.9141 68.207C87.4792 68.0247 87.9349 67.806 88.2812 67.5508C88.6458 67.2956 88.901 67.0404 89.0469 66.7852C89.1927 66.5117 89.2656 66.2201 89.2656 65.9102C89.2656 65.4909 89.056 64.6432 88.6367 63.3672C88.2174 62.0911 87.625 60.5326 86.8594 58.6914L83.3867 50.4883L82.9766 49.5039L83.9336 49.0664L88.4453 46.9883L89.4844 46.4961L89.9219 47.5898L95.3359 61.3164C96.3385 63.8685 97.3229 65.7552 98.2891 66.9766C99.2552 68.1797 100.085 68.7812 100.777 68.7812H101.324C101.543 68.7812 101.734 68.8177 101.898 68.8906C102.081 68.9635 102.227 69.0456 102.336 69.1367C102.464 69.2279 102.564 69.3737 102.637 69.5742C102.728 69.7565 102.792 69.9115 102.828 70.0391C102.865 70.1484 102.892 70.3307 102.91 70.5859C102.947 70.8229 102.965 70.987 102.965 71.0781C102.965 71.1693 102.965 71.3424 102.965 71.5977C102.965 71.8346 102.965 71.9622 102.965 71.9805V72.4727C102.965 73.1471 102.928 73.6667 102.855 74.0312C102.801 74.5052 102.71 74.8698 102.582 75.125V75.1523L102.555 75.1797C102.263 75.7266 101.853 76 101.324 76H100.777C97.7878 76 95.3542 74.7513 93.4766 72.2539C90.7969 74.7331 86.8411 75.9727 81.6094 75.9727ZM116.91 48.2188L120.793 44.3359L121.203 43.9258L121.613 44.3359L125.551 48.2461L125.66 48.3555L125.797 48.2188L129.707 44.3359L130.117 43.9258L130.527 44.3359L134.438 48.2461L134.848 48.6562L134.438 49.0664L130.555 52.9492L130.145 53.3594L129.734 52.9492L125.797 49.0391L125.688 48.9297L125.551 49.0664L121.641 52.9492L121.23 53.3594L120.848 52.9492L116.91 49.0391L116.5 48.6289L116.91 48.2188ZM121.312 40.8906L125.195 36.9805L125.605 36.5703L126.016 36.9805L129.926 40.918L130.336 41.3281L129.926 41.7383L126.043 45.6211L125.633 46.0312L125.223 45.6211L121.312 41.7109L120.902 41.3008L121.312 40.8906ZM122.98 65.6367C123.072 65.181 123.117 64.6159 123.117 63.9414C123.117 63.668 123.108 63.4036 123.09 63.1484C123.09 62.875 123.081 62.6016 123.062 62.3281C123.044 62.0547 123.026 61.7812 123.008 61.5078L122.871 59.8398L122.762 58.7734L123.828 58.6641L128.312 58.1172L129.461 58.0078L129.543 59.1289L129.98 65.4727C129.999 65.819 130.035 66.138 130.09 66.4297C130.163 66.7031 130.236 66.9583 130.309 67.1953C130.4 67.4141 130.509 67.6146 130.637 67.7969C130.783 67.9609 130.938 68.1068 131.102 68.2344C131.266 68.362 131.448 68.4622 131.648 68.5352C131.867 68.6081 132.104 68.6628 132.359 68.6992C132.615 68.7357 132.888 68.7539 133.18 68.7539C134.182 68.7539 134.93 68.4076 135.422 67.7148C135.914 67.0039 136.16 65.7643 136.16 63.9961C136.16 62.2279 135.777 60.0039 135.012 57.3242L134.684 56.2578L135.777 55.957L140.453 54.6992L141.465 54.4258L141.766 55.4375C142.714 58.4271 143.178 61.2161 143.16 63.8047C143.16 63.8411 143.16 63.8685 143.16 63.8867C143.16 63.9049 143.16 63.9323 143.16 63.9688C143.142 68.4349 141.911 71.7435 139.469 73.8945C137.883 75.2799 135.823 75.9727 133.289 75.9727C132.286 75.9727 131.357 75.8633 130.5 75.6445C129.661 75.4258 128.896 75.0977 128.203 74.6602C127.51 74.2044 126.918 73.6393 126.426 72.9648C124.475 74.9883 121.941 76 118.824 76C115.306 75.9818 112.772 74.9883 111.223 73.0195C109.363 75.0065 106.456 76 102.5 76H100.969C100.076 76 99.4102 75.6628 98.9727 74.9883C98.5169 74.3138 98.2891 73.4844 98.2891 72.5V71.9805C98.2891 71.0872 98.526 70.3307 99 69.7109C99.4557 69.0911 100.112 68.7812 100.969 68.7812H102.555C104.25 68.7812 105.517 68.526 106.355 68.0156C107.194 67.487 107.723 66.694 107.941 65.6367C108.033 65.181 108.078 64.6159 108.078 63.9414C108.078 63.6862 108.069 63.431 108.051 63.1758C108.051 62.9023 108.042 62.6289 108.023 62.3555C108.005 62.082 107.987 61.7995 107.969 61.5078L107.805 59.8398L107.723 58.7734L108.762 58.6641L113.273 58.1172L114.422 58.0078L114.504 59.1289L114.941 65.4727C115.014 66.6393 115.352 67.487 115.953 68.0156C116.555 68.526 117.53 68.7812 118.879 68.7812C120.118 68.7812 121.057 68.5352 121.695 68.043C122.333 67.5508 122.762 66.7487 122.98 65.6367ZM163.176 68.0703C165.4 68.526 167.523 68.7539 169.547 68.7539C175.562 68.7539 178.57 67.4688 178.57 64.8984C178.57 63.2943 177.677 61.4805 175.891 59.457C174.104 57.4336 171.388 55.2734 167.742 52.9766L166.785 52.375L167.414 51.4453L170.148 47.2891L170.723 46.4141L171.625 46.9609C180.995 52.5391 185.68 58.4909 185.68 64.8164C185.68 66.3112 185.452 67.6602 184.996 68.8633C184.54 70.0664 183.875 71.1055 183 71.9805C182.125 72.8555 181.04 73.5938 179.746 74.1953C178.47 74.7786 177.012 75.2161 175.371 75.5078C173.73 75.7995 171.908 75.9453 169.902 75.9453C167.15 75.9453 164.753 75.7174 162.711 75.2617L161.863 75.0703V74.1953V69.1367V67.7969L163.176 68.0703ZM201.184 59.9219C202.77 63.5495 203.562 67.0495 203.562 70.4219C203.562 76 201.858 80.3841 198.449 83.5742C195.04 86.7643 190.046 88.7057 183.465 89.3984L182.508 89.5078L182.289 88.5781L181.113 83.9297L180.812 82.6992L182.07 82.5625C187.047 82.0703 190.711 80.8398 193.062 78.8711C195.414 76.9206 196.581 74.2135 196.562 70.75C196.562 68.125 195.888 65.3633 194.539 62.4648L194.02 61.3711L195.168 60.9609L199.816 59.3477L200.773 58.9922L201.184 59.9219ZM209.496 36.6797H214.227H215.32V37.7734V74.8789V75.9727H214.227H209.496H208.402V74.8789V37.7734V36.6797H209.496ZM234.516 68.5898C234.388 67.2591 234.197 66.1198 233.941 65.1719C233.686 64.224 233.376 63.4766 233.012 62.9297C232.647 62.3828 232.246 61.9909 231.809 61.7539C231.389 61.4987 230.915 61.3711 230.387 61.3711C229.986 61.3711 229.63 61.444 229.32 61.5898C229.01 61.7357 228.71 62 228.418 62.3828C228.145 62.7656 227.898 63.276 227.68 63.9141C227.388 64.7891 227.242 65.6003 227.242 66.3477C227.242 67.2591 227.552 67.9336 228.172 68.3711C228.792 68.7904 229.913 69 231.535 69C232.483 68.9818 233.477 68.8451 234.516 68.5898ZM231.508 76.0547C227.971 76.0547 225.237 75.2708 223.305 73.7031C221.391 72.1172 220.434 69.8021 220.434 66.7578C220.434 64.388 220.944 62.1367 221.965 60.0039C222.895 58.0534 224.098 56.5677 225.574 55.5469C227.069 54.526 228.783 54.0156 230.715 54.0156C232.118 54.0156 233.395 54.2891 234.543 54.8359C235.691 55.3828 236.694 56.1758 237.551 57.2148C238.426 58.2357 239.146 59.4935 239.711 60.9883C240.878 63.9961 241.452 67.3594 241.434 71.0781C241.397 76.474 239.693 80.7122 236.32 83.793C232.966 86.8737 228.072 88.7422 221.637 89.3984L220.707 89.4805L220.488 88.5781L219.312 83.9297L219.012 82.6992L220.27 82.5625C227.415 81.8333 231.954 79.6003 233.887 75.8633C233.249 75.9362 232.747 75.9818 232.383 76C232.036 76.0365 231.745 76.0547 231.508 76.0547Z" fill="#4BD927"/>
</svg>
