<svg width="316" height="121" viewBox="0 0 316 121" fill="none" xmlns="http://www.w3.org/2000/svg">
<mask id="path-1-inside-1_303:5" fill="white">
<rect width="316" height="121" rx="6"/>
</mask>
<rect width="316" height="121" rx="6" stroke="black" stroke-width="16" mask="url(#path-1-inside-1_303:5)"/>
<path d="M57.6094 75.9727C55.0938 75.9727 52.4232 75.7083 49.5977 75.1797L48.6953 75.0156V74.0859V69.0547V67.7148L50.0078 67.9883C52.487 68.4987 55.0664 68.7539 57.7461 68.7539C58.8763 68.7539 59.8789 68.7083 60.7539 68.6172C61.6471 68.5078 62.3672 68.3711 62.9141 68.207C63.4792 68.0247 63.9349 67.806 64.2812 67.5508C64.6458 67.2956 64.901 67.0404 65.0469 66.7852C65.1927 66.5117 65.2656 66.2201 65.2656 65.9102C65.2656 65.4909 65.056 64.6432 64.6367 63.3672C64.2174 62.0911 63.625 60.5326 62.8594 58.6914L59.3867 50.4883L58.9766 49.5039L59.9336 49.0664L64.4453 46.9883L65.4844 46.4961L65.9219 47.5898L71.3359 61.3164C72.3385 63.8685 73.3229 65.7552 74.2891 66.9766C75.2552 68.1797 76.0846 68.7812 76.7773 68.7812H77.3242C77.543 68.7812 77.7344 68.8177 77.8984 68.8906C78.0807 68.9635 78.2266 69.0456 78.3359 69.1367C78.4635 69.2279 78.5638 69.3737 78.6367 69.5742C78.7279 69.7565 78.7917 69.9115 78.8281 70.0391C78.8646 70.1484 78.8919 70.3307 78.9102 70.5859C78.9466 70.8229 78.9648 70.987 78.9648 71.0781C78.9648 71.1693 78.9648 71.3424 78.9648 71.5977C78.9648 71.8346 78.9648 71.9622 78.9648 71.9805V72.4727C78.9648 73.1471 78.9284 73.6667 78.8555 74.0312C78.8008 74.5052 78.7096 74.8698 78.582 75.125V75.1523L78.5547 75.1797C78.263 75.7266 77.8529 76 77.3242 76H76.7773C73.7878 76 71.3542 74.7513 69.4766 72.2539C66.7969 74.7331 62.8411 75.9727 57.6094 75.9727ZM92.9102 48.2188L96.793 44.3359L97.2031 43.9258L97.6133 44.3359L101.551 48.2461L101.66 48.3555L101.797 48.2188L105.707 44.3359L106.117 43.9258L106.527 44.3359L110.438 48.2461L110.848 48.6562L110.438 49.0664L106.555 52.9492L106.145 53.3594L105.734 52.9492L101.797 49.0391L101.688 48.9297L101.551 49.0664L97.6406 52.9492L97.2305 53.3594L96.8477 52.9492L92.9102 49.0391L92.5 48.6289L92.9102 48.2188ZM97.3125 40.8906L101.195 36.9805L101.605 36.5703L102.016 36.9805L105.926 40.918L106.336 41.3281L105.926 41.7383L102.043 45.6211L101.633 46.0312L101.223 45.6211L97.3125 41.7109L96.9023 41.3008L97.3125 40.8906ZM98.9805 65.6367C99.0716 65.181 99.1172 64.6159 99.1172 63.9414C99.1172 63.668 99.1081 63.4036 99.0898 63.1484C99.0898 62.875 99.0807 62.6016 99.0625 62.3281C99.0443 62.0547 99.026 61.7812 99.0078 61.5078L98.8711 59.8398L98.7617 58.7734L99.8281 58.6641L104.312 58.1172L105.461 58.0078L105.543 59.1289L105.98 65.4727C105.999 65.819 106.035 66.138 106.09 66.4297C106.163 66.7031 106.236 66.9583 106.309 67.1953C106.4 67.4141 106.509 67.6146 106.637 67.7969C106.783 67.9609 106.938 68.1068 107.102 68.2344C107.266 68.362 107.448 68.4622 107.648 68.5352C107.867 68.6081 108.104 68.6628 108.359 68.6992C108.615 68.7357 108.888 68.7539 109.18 68.7539C110.182 68.7539 110.93 68.4076 111.422 67.7148C111.914 67.0039 112.16 65.7643 112.16 63.9961C112.16 62.2279 111.777 60.0039 111.012 57.3242L110.684 56.2578L111.777 55.957L116.453 54.6992L117.465 54.4258L117.766 55.4375C118.714 58.4271 119.178 61.2161 119.16 63.8047C119.16 63.8411 119.16 63.8685 119.16 63.8867C119.16 63.9049 119.16 63.9323 119.16 63.9688C119.142 68.4349 117.911 71.7435 115.469 73.8945C113.883 75.2799 111.823 75.9727 109.289 75.9727C108.286 75.9727 107.357 75.8633 106.5 75.6445C105.661 75.4258 104.896 75.0977 104.203 74.6602C103.51 74.2044 102.918 73.6393 102.426 72.9648C100.475 74.9883 97.9414 76 94.8242 76C91.306 75.9818 88.7721 74.9883 87.2227 73.0195C85.3633 75.0065 82.4557 76 78.5 76H76.9688C76.0755 76 75.4102 75.6628 74.9727 74.9883C74.5169 74.3138 74.2891 73.4844 74.2891 72.5V71.9805C74.2891 71.0872 74.526 70.3307 75 69.7109C75.4557 69.0911 76.112 68.7812 76.9688 68.7812H78.5547C80.25 68.7812 81.5169 68.526 82.3555 68.0156C83.194 67.487 83.7227 66.694 83.9414 65.6367C84.0326 65.181 84.0781 64.6159 84.0781 63.9414C84.0781 63.6862 84.069 63.431 84.0508 63.1758C84.0508 62.9023 84.0417 62.6289 84.0234 62.3555C84.0052 62.082 83.987 61.7995 83.9688 61.5078L83.8047 59.8398L83.7227 58.7734L84.7617 58.6641L89.2734 58.1172L90.4219 58.0078L90.5039 59.1289L90.9414 65.4727C91.0143 66.6393 91.3516 67.487 91.9531 68.0156C92.5547 68.526 93.5299 68.7812 94.8789 68.7812C96.1185 68.7812 97.0573 68.5352 97.6953 68.043C98.3333 67.5508 98.7617 66.7487 98.9805 65.6367ZM154.871 59.9219C156.457 63.5495 157.25 67.0495 157.25 70.4219C157.25 76 155.546 80.3841 152.137 83.5742C148.728 86.7643 143.733 88.7057 137.152 89.3984L136.195 89.5078L135.977 88.5781L134.801 83.9297L134.5 82.6992L135.758 82.5625C140.734 82.0703 144.398 80.8398 146.75 78.8711C149.102 76.9206 150.268 74.2135 150.25 70.75C150.25 68.125 149.576 65.3633 148.227 62.4648L147.707 61.3711L148.855 60.9609L153.504 59.3477L154.461 58.9922L154.871 59.9219ZM174.832 68.7812C174.34 63.8594 172.973 61.3893 170.73 61.3711C170.129 61.3711 169.609 61.5625 169.172 61.9453C168.734 62.3281 168.352 62.9844 168.023 63.9141C167.732 64.7708 167.586 65.582 167.586 66.3477C167.586 66.8945 167.695 67.3411 167.914 67.6875C168.133 68.0156 168.543 68.2799 169.145 68.4805C169.746 68.681 170.566 68.7812 171.605 68.7812H174.832ZM181.586 68.8086H183.418C183.673 68.8086 183.901 68.8542 184.102 68.9453C184.302 69.0182 184.457 69.1458 184.566 69.3281C184.694 69.5104 184.794 69.6745 184.867 69.8203C184.94 69.9661 184.986 70.1849 185.004 70.4766C185.04 70.7682 185.059 70.9779 185.059 71.1055C185.077 71.2331 185.077 71.4518 185.059 71.7617C185.059 72.0534 185.059 72.2083 185.059 72.2266V72.5C185.059 72.5911 185.059 72.7188 185.059 72.8828C185.077 73.0286 185.068 73.3112 185.031 73.7305C184.995 74.1315 184.922 74.487 184.812 74.7969C184.721 75.1068 184.548 75.3893 184.293 75.6445C184.056 75.8815 183.764 76 183.418 76L181.258 75.9727C180.365 79.9102 178.286 82.9909 175.023 85.2148C171.779 87.457 167.44 88.8516 162.008 89.3984L161.078 89.4805L160.859 88.5781L159.684 83.875L159.383 82.6719L160.613 82.5352C167.868 81.7513 172.417 79.5729 174.258 76H171.879C168.324 76 165.581 75.2161 163.648 73.6484C161.734 72.0807 160.777 69.7839 160.777 66.7578C160.777 64.388 161.288 62.1367 162.309 60.0039C162.928 58.7096 163.667 57.625 164.523 56.75C165.38 55.8568 166.355 55.1823 167.449 54.7266C168.561 54.2526 169.764 54.0156 171.059 54.0156C174.103 54.0156 176.491 55.2917 178.223 57.8438C179.973 60.3958 181.094 64.0508 181.586 68.8086ZM204.719 72.5C204.719 72.5547 204.719 72.7005 204.719 72.9375C204.719 73.1745 204.719 73.3659 204.719 73.5117C204.719 73.6393 204.71 73.8216 204.691 74.0586C204.673 74.2956 204.646 74.4961 204.609 74.6602C204.573 74.806 204.509 74.9792 204.418 75.1797C204.345 75.362 204.245 75.5078 204.117 75.6172C204.008 75.7266 203.862 75.8177 203.68 75.8906C203.497 75.9635 203.297 76 203.078 76H202.805C199.432 76 196.908 74.9609 195.23 72.8828C193.134 74.9609 190.017 76 185.879 76H183.035C182.142 76 181.477 75.6628 181.039 74.9883C180.602 74.2956 180.383 73.4661 180.383 72.5V71.9805C180.383 71.3971 180.474 70.8776 180.656 70.4219C180.839 69.9479 181.139 69.556 181.559 69.2461C181.96 68.9362 182.452 68.7812 183.035 68.7812H185.742C189.352 68.7812 191.32 67.8789 191.648 66.0742C191.758 65.4909 191.812 64.7982 191.812 63.9961C191.812 63.1029 191.785 62.2643 191.73 61.4805L191.594 59.2383L191.512 58.1992L192.551 58.0898L197.062 57.543L198.184 57.4336L198.266 58.5547L198.703 64.8984C198.812 66.2839 199.186 67.2773 199.824 67.8789C200.462 68.4805 201.474 68.7812 202.859 68.7812H203.078C203.333 68.7812 203.561 68.8268 203.762 68.918C203.962 68.9909 204.117 69.1185 204.227 69.3008C204.336 69.4831 204.427 69.6562 204.5 69.8203C204.591 69.9661 204.646 70.1849 204.664 70.4766C204.701 70.75 204.719 70.9505 204.719 71.0781C204.719 71.2057 204.719 71.4245 204.719 71.7344C204.719 72.026 204.719 72.1901 204.719 72.2266V72.5ZM182.598 47.6445L186.562 43.6523L186.973 43.2422L187.383 43.6523L191.402 47.6719L191.43 47.6992L191.484 47.6445L195.477 43.6523L195.887 43.2422L196.297 43.6523L200.289 47.6719L200.699 48.082L200.289 48.4922L196.324 52.457L195.914 52.8672L195.504 52.457L191.484 48.4648L191.457 48.4375L191.402 48.4922L187.41 52.457L187 52.8672L186.617 52.457L182.598 48.4648L182.188 48.0547L182.598 47.6445ZM220.113 56.1211C221.389 57.4883 222.346 58.9466 222.984 60.4961C223.622 62.0456 223.923 63.6589 223.887 65.3359C223.832 68.9271 222.31 71.6068 219.32 73.375C216.349 75.125 212.111 76 206.605 76H202.695C201.802 76 201.137 75.6628 200.699 74.9883C200.243 74.3138 200.016 73.4844 200.016 72.5V71.9805C200.016 71.0872 200.253 70.3307 200.727 69.7109C201.182 69.0911 201.839 68.7812 202.695 68.7812H206.578C213.359 68.763 216.768 67.3867 216.805 64.6523C216.805 63.1758 215.975 61.6628 214.316 60.1133C212.931 58.819 211.618 57.6432 210.379 56.5859C209.139 55.5104 207.982 54.5534 206.906 53.7148C204.555 51.8737 203.379 49.8776 203.379 47.7266C203.379 46.3047 203.771 45.0833 204.555 44.0625C205.357 43.0417 206.478 42.2578 207.918 41.7109L226.867 34.5195L228.344 33.9453V35.5312V40.4805V41.2188L227.633 41.4922L211.008 47.6992C215.073 51.1628 218.108 53.9701 220.113 56.1211ZM246.035 72.4727C246.053 73.6576 246.008 74.4414 245.898 74.8242C245.625 75.6081 245.124 76 244.395 76H243.82C239.992 76 237.085 74.888 235.098 72.6641C233.111 70.4219 232.117 67.2135 232.117 63.0391V37.7734V36.6797H233.211H237.969H239.062V37.7734V62.9844C239.062 65.0443 239.445 66.5299 240.211 67.4414C240.995 68.3346 242.225 68.7812 243.902 68.7812H244.395C244.613 68.7812 244.805 68.8177 244.969 68.8906C245.151 68.9635 245.306 69.0456 245.434 69.1367C245.543 69.2279 245.634 69.3737 245.707 69.5742C245.798 69.7565 245.862 69.9115 245.898 70.0391C245.935 70.1484 245.962 70.3307 245.98 70.5859C246.017 70.8229 246.035 70.987 246.035 71.0781C246.035 71.1693 246.035 71.3424 246.035 71.5977C246.035 71.8346 246.035 71.9622 246.035 71.9805V72.4727ZM256.426 65.8281C253.236 65.8281 250.766 65.1081 249.016 63.668C247.266 62.2096 246.372 60.0951 246.336 57.3242C246.336 57.0508 246.345 56.7773 246.363 56.5039C246.382 56.2122 246.409 55.9297 246.445 55.6562C246.482 55.3828 246.527 55.1094 246.582 54.8359C246.874 53.3229 247.293 51.9648 247.84 50.7617C248.405 49.5404 249.116 48.4922 249.973 47.6172C251.704 45.8307 253.855 44.9375 256.426 44.9375C257.283 44.9375 258.094 45.0469 258.859 45.2656C259.643 45.4844 260.372 45.8034 261.047 46.2227C264.383 48.3919 266.388 52.4661 267.062 58.4453C267.117 59.0651 267.163 59.6667 267.199 60.25C267.236 60.8151 267.254 61.3802 267.254 61.9453C267.254 67.4688 265.878 71.2604 263.125 73.3203C260.737 75.1068 256.672 76 250.93 76H244.039C243.146 76 242.48 75.6628 242.043 74.9883C241.587 74.3138 241.359 73.4844 241.359 72.5V71.9805C241.359 71.0872 241.596 70.3307 242.07 69.7109C242.526 69.0911 243.182 68.7812 244.039 68.7812H251.23C254.111 68.7812 256.307 68.4805 257.82 67.8789C259.352 67.2773 260.281 66.457 260.609 65.418C260.172 65.5091 259.716 65.5911 259.242 65.6641C258.786 65.7188 258.322 65.7643 257.848 65.8008C257.392 65.819 256.918 65.8281 256.426 65.8281ZM253.035 56.5859C253.035 57.3698 253.299 57.9531 253.828 58.3359C254.375 58.7188 255.359 58.901 256.781 58.8828C257.346 58.8828 257.911 58.8464 258.477 58.7734C259.06 58.7005 259.643 58.6003 260.227 58.4727C260.081 57.6523 259.908 56.9049 259.707 56.2305C259.525 55.556 259.306 54.9362 259.051 54.3711C258.85 53.9336 258.641 53.569 258.422 53.2773C258.203 52.9674 257.975 52.7214 257.738 52.5391C257.52 52.3568 257.283 52.2292 257.027 52.1562C256.79 52.0833 256.526 52.0469 256.234 52.0469C255.56 52.0469 254.986 52.2656 254.512 52.7031C254.038 53.1406 253.637 53.888 253.309 54.9453C253.236 55.1458 253.181 55.3464 253.145 55.5469C253.108 55.7292 253.081 55.9115 253.062 56.0938C253.044 56.2578 253.035 56.4219 253.035 56.5859ZM251.285 36.7891L255.277 32.7969L255.688 32.3867L256.098 32.7969L260.09 36.8164L260.5 37.2266L260.09 37.6367L256.125 41.6016L255.715 42.0117L255.305 41.6016L251.285 37.6094L250.875 37.1992L251.285 36.7891Z" fill="black"/>
</svg>
