<svg width="316" height="121" viewBox="0 0 316 121" fill="none" xmlns="http://www.w3.org/2000/svg">
<mask id="path-1-inside-1_303:5" fill="white">
<rect width="316" height="121" rx="6"/>
</mask>
<rect width="316" height="121" rx="6" stroke="#4F46E5" stroke-width="16" mask="url(#path-1-inside-1_303:5)"/>
<path d="M52.6094 75.9727C50.0938 75.9727 47.4232 75.7083 44.5977 75.1797L43.6953 75.0156V74.0859V69.0547V67.7148L45.0078 67.9883C47.487 68.4987 50.0664 68.7539 52.7461 68.7539C53.8763 68.7539 54.8789 68.7083 55.7539 68.6172C56.6471 68.5078 57.3672 68.3711 57.9141 68.207C58.4792 68.0247 58.9349 67.806 59.2812 67.5508C59.6458 67.2956 59.901 67.0404 60.0469 66.7852C60.1927 66.5117 60.2656 66.2201 60.2656 65.9102C60.2656 65.4909 60.056 64.6432 59.6367 63.3672C59.2174 62.0911 58.625 60.5326 57.8594 58.6914L54.3867 50.4883L53.9766 49.5039L54.9336 49.0664L59.4453 46.9883L60.4844 46.4961L60.9219 47.5898L66.3359 61.3164C67.3385 63.8685 68.3229 65.7552 69.2891 66.9766C70.2552 68.1797 71.0846 68.7812 71.7773 68.7812H72.3242C72.543 68.7812 72.7344 68.8177 72.8984 68.8906C73.0807 68.9635 73.2266 69.0456 73.3359 69.1367C73.4635 69.2279 73.5638 69.3737 73.6367 69.5742C73.7279 69.7565 73.7917 69.9115 73.8281 70.0391C73.8646 70.1484 73.8919 70.3307 73.9102 70.5859C73.9466 70.8229 73.9648 70.987 73.9648 71.0781C73.9648 71.1693 73.9648 71.3424 73.9648 71.5977C73.9648 71.8346 73.9648 71.9622 73.9648 71.9805V72.4727C73.9648 73.1471 73.9284 73.6667 73.8555 74.0312C73.8008 74.5052 73.7096 74.8698 73.582 75.125V75.1523L73.5547 75.1797C73.263 75.7266 72.8529 76 72.3242 76H71.7773C68.7878 76 66.3542 74.7513 64.4766 72.2539C61.7969 74.7331 57.8411 75.9727 52.6094 75.9727ZM87.9102 48.2188L91.793 44.3359L92.2031 43.9258L92.6133 44.3359L96.5508 48.2461L96.6602 48.3555L96.7969 48.2188L100.707 44.3359L101.117 43.9258L101.527 44.3359L105.438 48.2461L105.848 48.6562L105.438 49.0664L101.555 52.9492L101.145 53.3594L100.734 52.9492L96.7969 49.0391L96.6875 48.9297L96.5508 49.0664L92.6406 52.9492L92.2305 53.3594L91.8477 52.9492L87.9102 49.0391L87.5 48.6289L87.9102 48.2188ZM92.3125 40.8906L96.1953 36.9805L96.6055 36.5703L97.0156 36.9805L100.926 40.918L101.336 41.3281L100.926 41.7383L97.043 45.6211L96.6328 46.0312L96.2227 45.6211L92.3125 41.7109L91.9023 41.3008L92.3125 40.8906ZM93.9805 65.6367C94.0716 65.181 94.1172 64.6159 94.1172 63.9414C94.1172 63.668 94.1081 63.4036 94.0898 63.1484C94.0898 62.875 94.0807 62.6016 94.0625 62.3281C94.0443 62.0547 94.026 61.7812 94.0078 61.5078L93.8711 59.8398L93.7617 58.7734L94.8281 58.6641L99.3125 58.1172L100.461 58.0078L100.543 59.1289L100.98 65.4727C100.999 65.819 101.035 66.138 101.09 66.4297C101.163 66.7031 101.236 66.9583 101.309 67.1953C101.4 67.4141 101.509 67.6146 101.637 67.7969C101.783 67.9609 101.938 68.1068 102.102 68.2344C102.266 68.362 102.448 68.4622 102.648 68.5352C102.867 68.6081 103.104 68.6628 103.359 68.6992C103.615 68.7357 103.888 68.7539 104.18 68.7539C105.182 68.7539 105.93 68.4076 106.422 67.7148C106.914 67.0039 107.16 65.7643 107.16 63.9961C107.16 62.2279 106.777 60.0039 106.012 57.3242L105.684 56.2578L106.777 55.957L111.453 54.6992L112.465 54.4258L112.766 55.4375C113.714 58.4271 114.178 61.2161 114.16 63.8047C114.16 63.8411 114.16 63.8685 114.16 63.8867C114.16 63.9049 114.16 63.9323 114.16 63.9688C114.142 68.4349 112.911 71.7435 110.469 73.8945C108.883 75.2799 106.823 75.9727 104.289 75.9727C103.286 75.9727 102.357 75.8633 101.5 75.6445C100.661 75.4258 99.8958 75.0977 99.2031 74.6602C98.5104 74.2044 97.918 73.6393 97.4258 72.9648C95.4753 74.9883 92.9414 76 89.8242 76C86.306 75.9818 83.7721 74.9883 82.2227 73.0195C80.3633 75.0065 77.4557 76 73.5 76H71.9688C71.0755 76 70.4102 75.6628 69.9727 74.9883C69.5169 74.3138 69.2891 73.4844 69.2891 72.5V71.9805C69.2891 71.0872 69.526 70.3307 70 69.7109C70.4557 69.0911 71.112 68.7812 71.9688 68.7812H73.5547C75.25 68.7812 76.5169 68.526 77.3555 68.0156C78.194 67.487 78.7227 66.694 78.9414 65.6367C79.0326 65.181 79.0781 64.6159 79.0781 63.9414C79.0781 63.6862 79.069 63.431 79.0508 63.1758C79.0508 62.9023 79.0417 62.6289 79.0234 62.3555C79.0052 62.082 78.987 61.7995 78.9688 61.5078L78.8047 59.8398L78.7227 58.7734L79.7617 58.6641L84.2734 58.1172L85.4219 58.0078L85.5039 59.1289L85.9414 65.4727C86.0143 66.6393 86.3516 67.487 86.9531 68.0156C87.5547 68.526 88.5299 68.7812 89.8789 68.7812C91.1185 68.7812 92.0573 68.5352 92.6953 68.043C93.3333 67.5508 93.7617 66.7487 93.9805 65.6367ZM160.562 72.1719L160.617 37.8008V36.707H161.711H166.414H167.508V37.8008L167.48 64.1055C167.48 64.9258 167.572 65.6276 167.754 66.2109C167.954 66.7943 168.255 67.2773 168.656 67.6602C169.076 68.043 169.604 68.3255 170.242 68.5078C170.88 68.6901 171.673 68.7812 172.621 68.7812H173.168C173.35 68.7812 173.533 68.7995 173.715 68.8359C173.861 68.8906 173.988 68.9727 174.098 69.082C174.225 69.1914 174.326 69.2917 174.398 69.3828C174.49 69.474 174.553 69.6107 174.59 69.793C174.645 69.957 174.69 70.0938 174.727 70.2031C174.763 70.3125 174.781 70.4674 174.781 70.668C174.799 70.8867 174.809 71.0326 174.809 71.1055C174.809 71.1784 174.809 71.3151 174.809 71.5156C174.809 71.7161 174.809 71.8255 174.809 71.8438V72.5C174.809 72.5365 174.809 72.7005 174.809 72.9922C174.827 73.3021 174.827 73.5208 174.809 73.6484C174.809 73.7943 174.79 74.013 174.754 74.3047C174.736 74.5964 174.69 74.8151 174.617 74.9609C174.544 75.125 174.453 75.2982 174.344 75.4805C174.216 75.6628 174.052 75.7904 173.852 75.8633C173.651 75.9544 173.423 76 173.168 76H172.484C170.352 76 168.574 75.6263 167.152 74.8789C166.624 79.9102 164.892 83.7201 161.957 86.3086C159.004 88.9154 154.957 90.2188 149.816 90.2188C144.275 90.2188 140.073 88.8333 137.211 86.0625C134.331 83.2917 132.9 79.2357 132.918 73.8945C132.918 71.9258 133.109 69.9844 133.492 68.0703C133.911 66.0833 134.504 64.151 135.27 62.2734L135.68 61.2617L136.719 61.6992L141.039 63.4766L142.023 63.8867L141.641 64.8711C140.474 67.8607 139.891 70.8594 139.891 73.8672C139.891 77.0755 140.693 79.4271 142.297 80.9219C143.883 82.4349 146.398 83.1914 149.844 83.1914C151.685 83.1914 153.271 82.9727 154.602 82.5352C155.932 82.0977 157.044 81.4323 157.938 80.5391C158.812 79.6276 159.469 78.4792 159.906 77.0938C160.326 75.7266 160.544 74.0859 160.562 72.1719ZM174.836 76H172.758C171.865 76 171.199 75.6628 170.762 74.9883C170.306 74.3138 170.078 73.4844 170.078 72.5V71.9805C170.078 71.0872 170.315 70.3307 170.789 69.7109C171.245 69.0911 171.901 68.7812 172.758 68.7812H174.836C177.552 68.7812 179.348 68.5352 180.223 68.043C181.408 67.3503 182 65.7643 182 63.2852C182 61.207 181.681 58.8828 181.043 56.3125L180.77 55.2461L181.836 55L186.293 53.8789L187.277 53.6055L187.605 54.5898C188.517 57.543 188.973 60.4141 188.973 63.2031C188.954 68.0339 187.533 71.5247 184.707 73.6758C184.16 74.0768 183.54 74.4323 182.848 74.7422C182.173 75.0339 181.417 75.2708 180.578 75.4531C179.758 75.6354 178.874 75.7721 177.926 75.8633C176.978 75.9544 175.948 76 174.836 76ZM171.938 84.2578L175.902 80.2656L176.312 79.8555L176.723 80.2656L180.742 84.2852L180.77 84.3125L180.824 84.2578L184.816 80.2656L185.227 79.8555L185.637 80.2656L189.629 84.2852L190.039 84.6953L189.629 85.1055L185.664 89.0703L185.254 89.4805L184.844 89.0703L180.824 85.0781L180.797 85.0508L180.742 85.1055L176.75 89.0703L176.34 89.4805L175.957 89.0703L171.938 85.0781L171.527 84.668L171.938 84.2578ZM207.621 68.7812C207.129 63.8594 205.762 61.3893 203.52 61.3711C202.918 61.3711 202.398 61.5625 201.961 61.9453C201.523 62.3281 201.141 62.9844 200.812 63.9141C200.521 64.7708 200.375 65.582 200.375 66.3477C200.375 66.8945 200.484 67.3411 200.703 67.6875C200.922 68.0156 201.332 68.2799 201.934 68.4805C202.535 68.681 203.355 68.7812 204.395 68.7812H207.621ZM214.375 68.8086H216.207C216.462 68.8086 216.69 68.8542 216.891 68.9453C217.091 69.0182 217.246 69.1458 217.355 69.3281C217.483 69.5104 217.583 69.6745 217.656 69.8203C217.729 69.9661 217.775 70.1849 217.793 70.4766C217.829 70.7682 217.848 70.9779 217.848 71.1055C217.866 71.2331 217.866 71.4518 217.848 71.7617C217.848 72.0534 217.848 72.2083 217.848 72.2266V72.5C217.848 72.5911 217.848 72.7188 217.848 72.8828C217.866 73.0286 217.857 73.3112 217.82 73.7305C217.784 74.1315 217.711 74.487 217.602 74.7969C217.51 75.1068 217.337 75.3893 217.082 75.6445C216.845 75.8815 216.553 76 216.207 76L214.047 75.9727C213.154 79.9102 211.076 82.9909 207.812 85.2148C204.568 87.457 200.229 88.8516 194.797 89.3984L193.867 89.4805L193.648 88.5781L192.473 83.875L192.172 82.6719L193.402 82.5352C200.658 81.7513 205.206 79.5729 207.047 76H204.668C201.113 76 198.37 75.2161 196.438 73.6484C194.523 72.0807 193.566 69.7839 193.566 66.7578C193.566 64.388 194.077 62.1367 195.098 60.0039C195.717 58.7096 196.456 57.625 197.312 56.75C198.169 55.8568 199.145 55.1823 200.238 54.7266C201.35 54.2526 202.553 54.0156 203.848 54.0156C206.892 54.0156 209.28 55.2917 211.012 57.8438C212.762 60.3958 213.883 64.0508 214.375 68.8086ZM239.121 62.1367C238.647 61.9544 238.109 61.7448 237.508 61.5078C236.906 61.2526 236.241 60.9792 235.512 60.6875C232.066 59.3021 229.77 58.6094 228.621 58.6094C226.908 58.6094 225.495 59.3203 224.383 60.7422L223.617 61.7539L223.07 62.4375L222.277 62.0547L218.066 59.9766L217 59.457L217.629 58.418L218.066 57.6797C219.306 55.638 220.819 54.0977 222.605 53.0586C224.392 52.0013 226.406 51.4635 228.648 51.4453C231.128 51.4453 234.053 52.2656 237.426 53.9062C242.986 56.6042 247.251 58.0169 250.223 58.1445L251.262 58.1992V59.2656L251.207 63.9961V65.0078L250.195 65.0898C248.992 65.181 247.479 65.6549 245.656 66.5117C245.857 67.1862 246.467 67.7331 247.488 68.1523C248.509 68.5716 250.031 68.7812 252.055 68.7812H253.258C253.44 68.7812 253.613 68.8086 253.777 68.8633C253.941 68.8997 254.078 68.9727 254.188 69.082C254.297 69.1914 254.388 69.2917 254.461 69.3828C254.552 69.474 254.625 69.6107 254.68 69.793C254.734 69.957 254.771 70.0938 254.789 70.2031C254.826 70.3125 254.844 70.4766 254.844 70.6953C254.862 70.8958 254.871 71.0326 254.871 71.1055C254.889 71.1784 254.898 71.3151 254.898 71.5156C254.898 71.7161 254.898 71.8255 254.898 71.8438V72.5C254.898 72.5182 254.898 72.6823 254.898 72.9922C254.898 73.3021 254.898 73.5208 254.898 73.6484C254.898 73.776 254.88 73.9948 254.844 74.3047C254.826 74.5964 254.78 74.8151 254.707 74.9609C254.634 75.1068 254.534 75.2799 254.406 75.4805C254.297 75.6628 254.142 75.7995 253.941 75.8906C253.741 75.9635 253.504 76 253.23 76H251.617C249.521 76 247.68 75.763 246.094 75.2891C244.508 74.7969 243.186 74.0404 242.129 73.0195C241.09 71.9987 240.37 70.7227 239.969 69.1914C239.859 69.2461 239.75 69.3008 239.641 69.3555C239.531 69.4102 239.422 69.4648 239.312 69.5195C239.221 69.5742 239.121 69.6289 239.012 69.6836C231.046 73.8945 223.763 76 217.164 76H215.852C214.958 76 214.293 75.6628 213.855 74.9883C213.4 74.3138 213.172 73.4844 213.172 72.5V71.9805C213.172 71.0872 213.409 70.3307 213.883 69.7109C214.339 69.0911 214.995 68.7812 215.852 68.7812H217.492C223.289 68.7812 230.499 66.5664 239.121 62.1367ZM254.898 76H252.82C251.927 76 251.262 75.6628 250.824 74.9883C250.368 74.3138 250.141 73.4844 250.141 72.5V71.9805C250.141 71.0872 250.378 70.3307 250.852 69.7109C251.307 69.0911 251.964 68.7812 252.82 68.7812H254.898C257.615 68.7812 259.41 68.5352 260.285 68.043C261.47 67.3503 262.062 65.7643 262.062 63.2852C262.062 61.207 261.743 58.8828 261.105 56.3125L260.832 55.2461L261.898 55L266.355 53.8789L267.34 53.6055L267.668 54.5898C268.579 57.543 269.035 60.4141 269.035 63.2031C269.017 68.0339 267.595 71.5247 264.77 73.6758C264.223 74.0768 263.603 74.4323 262.91 74.7422C262.236 75.0339 261.479 75.2708 260.641 75.4531C259.82 75.6354 258.936 75.7721 257.988 75.8633C257.04 75.9544 256.01 76 254.898 76ZM252.438 45.375L256.402 41.3828L256.812 40.9727L257.223 41.3828L261.242 45.4023L261.27 45.4297L261.324 45.375L265.316 41.3828L265.727 40.9727L266.137 41.3828L270.129 45.4023L270.539 45.8125L270.129 46.2227L266.164 50.1875L265.754 50.5977L265.344 50.1875L261.324 46.1953L261.297 46.168L261.242 46.2227L257.25 50.1875L256.84 50.5977L256.457 50.1875L252.438 46.1953L252.027 45.7852L252.438 45.375Z" fill="#4F46E5"/>
</svg>
