<svg width="316" height="121" viewBox="0 0 316 121" fill="none" xmlns="http://www.w3.org/2000/svg">
<mask id="path-1-inside-1_303:5" fill="white">
<rect width="316" height="121" rx="6"/>
</mask>
<rect width="316" height="121" rx="6" stroke="#EF4444" stroke-width="16" mask="url(#path-1-inside-1_303:5)"/>
<path d="M59.6094 75.9727C57.0938 75.9727 54.4232 75.7083 51.5977 75.1797L50.6953 75.0156V74.0859V69.0547V67.7148L52.0078 67.9883C54.487 68.4987 57.0664 68.7539 59.7461 68.7539C60.8763 68.7539 61.8789 68.7083 62.7539 68.6172C63.6471 68.5078 64.3672 68.3711 64.9141 68.207C65.4792 68.0247 65.9349 67.806 66.2812 67.5508C66.6458 67.2956 66.901 67.0404 67.0469 66.7852C67.1927 66.5117 67.2656 66.2201 67.2656 65.9102C67.2656 65.4909 67.056 64.6432 66.6367 63.3672C66.2174 62.0911 65.625 60.5326 64.8594 58.6914L61.3867 50.4883L60.9766 49.5039L61.9336 49.0664L66.4453 46.9883L67.4844 46.4961L67.9219 47.5898L73.3359 61.3164C74.3385 63.8685 75.3229 65.7552 76.2891 66.9766C77.2552 68.1797 78.0846 68.7812 78.7773 68.7812H79.3242C79.543 68.7812 79.7344 68.8177 79.8984 68.8906C80.0807 68.9635 80.2266 69.0456 80.3359 69.1367C80.4635 69.2279 80.5638 69.3737 80.6367 69.5742C80.7279 69.7565 80.7917 69.9115 80.8281 70.0391C80.8646 70.1484 80.8919 70.3307 80.9102 70.5859C80.9466 70.8229 80.9648 70.987 80.9648 71.0781C80.9648 71.1693 80.9648 71.3424 80.9648 71.5977C80.9648 71.8346 80.9648 71.9622 80.9648 71.9805V72.4727C80.9648 73.1471 80.9284 73.6667 80.8555 74.0312C80.8008 74.5052 80.7096 74.8698 80.582 75.125V75.1523L80.5547 75.1797C80.263 75.7266 79.8529 76 79.3242 76H78.7773C75.7878 76 73.3542 74.7513 71.4766 72.2539C68.7969 74.7331 64.8411 75.9727 59.6094 75.9727ZM94.9102 48.2188L98.793 44.3359L99.2031 43.9258L99.6133 44.3359L103.551 48.2461L103.66 48.3555L103.797 48.2188L107.707 44.3359L108.117 43.9258L108.527 44.3359L112.438 48.2461L112.848 48.6562L112.438 49.0664L108.555 52.9492L108.145 53.3594L107.734 52.9492L103.797 49.0391L103.688 48.9297L103.551 49.0664L99.6406 52.9492L99.2305 53.3594L98.8477 52.9492L94.9102 49.0391L94.5 48.6289L94.9102 48.2188ZM99.3125 40.8906L103.195 36.9805L103.605 36.5703L104.016 36.9805L107.926 40.918L108.336 41.3281L107.926 41.7383L104.043 45.6211L103.633 46.0312L103.223 45.6211L99.3125 41.7109L98.9023 41.3008L99.3125 40.8906ZM100.98 65.6367C101.072 65.181 101.117 64.6159 101.117 63.9414C101.117 63.668 101.108 63.4036 101.09 63.1484C101.09 62.875 101.081 62.6016 101.062 62.3281C101.044 62.0547 101.026 61.7812 101.008 61.5078L100.871 59.8398L100.762 58.7734L101.828 58.6641L106.312 58.1172L107.461 58.0078L107.543 59.1289L107.98 65.4727C107.999 65.819 108.035 66.138 108.09 66.4297C108.163 66.7031 108.236 66.9583 108.309 67.1953C108.4 67.4141 108.509 67.6146 108.637 67.7969C108.783 67.9609 108.938 68.1068 109.102 68.2344C109.266 68.362 109.448 68.4622 109.648 68.5352C109.867 68.6081 110.104 68.6628 110.359 68.6992C110.615 68.7357 110.888 68.7539 111.18 68.7539C112.182 68.7539 112.93 68.4076 113.422 67.7148C113.914 67.0039 114.16 65.7643 114.16 63.9961C114.16 62.2279 113.777 60.0039 113.012 57.3242L112.684 56.2578L113.777 55.957L118.453 54.6992L119.465 54.4258L119.766 55.4375C120.714 58.4271 121.178 61.2161 121.16 63.8047C121.16 63.8411 121.16 63.8685 121.16 63.8867C121.16 63.9049 121.16 63.9323 121.16 63.9688C121.142 68.4349 119.911 71.7435 117.469 73.8945C115.883 75.2799 113.823 75.9727 111.289 75.9727C110.286 75.9727 109.357 75.8633 108.5 75.6445C107.661 75.4258 106.896 75.0977 106.203 74.6602C105.51 74.2044 104.918 73.6393 104.426 72.9648C102.475 74.9883 99.9414 76 96.8242 76C93.306 75.9818 90.7721 74.9883 89.2227 73.0195C87.3633 75.0065 84.4557 76 80.5 76H78.9688C78.0755 76 77.4102 75.6628 76.9727 74.9883C76.5169 74.3138 76.2891 73.4844 76.2891 72.5V71.9805C76.2891 71.0872 76.526 70.3307 77 69.7109C77.4557 69.0911 78.112 68.7812 78.9688 68.7812H80.5547C82.25 68.7812 83.5169 68.526 84.3555 68.0156C85.194 67.487 85.7227 66.694 85.9414 65.6367C86.0326 65.181 86.0781 64.6159 86.0781 63.9414C86.0781 63.6862 86.069 63.431 86.0508 63.1758C86.0508 62.9023 86.0417 62.6289 86.0234 62.3555C86.0052 62.082 85.987 61.7995 85.9688 61.5078L85.8047 59.8398L85.7227 58.7734L86.7617 58.6641L91.2734 58.1172L92.4219 58.0078L92.5039 59.1289L92.9414 65.4727C93.0143 66.6393 93.3516 67.487 93.9531 68.0156C94.5547 68.526 95.5299 68.7812 96.8789 68.7812C98.1185 68.7812 99.0573 68.5352 99.6953 68.043C100.333 67.5508 100.762 66.7487 100.98 65.6367ZM167.535 72.1719L167.617 37.7734V36.6797H168.711H173.414H174.508V37.7734L174.48 66.7305C174.48 69.3737 174.398 71.862 174.234 74.1953C173.833 79.4453 172.156 83.4284 169.203 86.1445C166.25 88.8607 162.121 90.2188 156.816 90.2188C151.293 90.2188 147.091 88.8242 144.211 86.0352C141.331 83.2461 139.9 79.1628 139.918 73.7852C139.918 71.8711 140.109 69.9661 140.492 68.0703C140.911 66.0833 141.504 64.151 142.27 62.2734L142.68 61.2617L143.719 61.6992L148.039 63.4766L149.023 63.8867L148.641 64.8711C147.474 67.8607 146.891 70.8594 146.891 73.8672C146.891 77.0755 147.693 79.4271 149.297 80.9219C150.883 82.4349 153.398 83.1914 156.844 83.1914C160.49 83.1914 163.178 82.2982 164.91 80.5117C166.642 78.7435 167.517 75.9635 167.535 72.1719ZM194.688 60.0586L196.219 65.3359C196.583 66.5573 197.094 67.4414 197.75 67.9883C198.406 68.5169 199.281 68.7812 200.375 68.7812H201.141C201.323 68.7812 201.496 68.8086 201.66 68.8633C201.824 68.8997 201.961 68.9727 202.07 69.082C202.18 69.1914 202.271 69.2917 202.344 69.3828C202.435 69.474 202.508 69.6107 202.562 69.793C202.617 69.957 202.654 70.0938 202.672 70.2031C202.708 70.2943 202.727 70.4492 202.727 70.668C202.745 70.8867 202.754 71.0326 202.754 71.1055C202.772 71.1784 202.781 71.3151 202.781 71.5156C202.781 71.7161 202.781 71.8255 202.781 71.8438V72.5C202.781 72.5182 202.781 72.6823 202.781 72.9922C202.799 73.3021 202.799 73.5299 202.781 73.6758C202.781 73.8034 202.763 74.013 202.727 74.3047C202.708 74.5964 202.663 74.8242 202.59 74.9883C202.517 75.1341 202.417 75.2982 202.289 75.4805C202.18 75.6628 202.025 75.7995 201.824 75.8906C201.624 75.9635 201.396 76 201.141 76H200.676C198.926 76 197.531 75.7812 196.492 75.3438C195.635 79.4271 193.548 82.6354 190.23 84.9688C186.931 87.3203 182.501 88.7969 176.941 89.3984L175.984 89.5078L175.766 88.5781L174.59 83.9297L174.289 82.6992L175.547 82.5625C180.523 82.0703 184.188 80.8398 186.539 78.8711C188.891 76.9206 190.057 74.2044 190.039 70.7227C190.039 68.1523 189.355 65.3997 187.988 62.4648L187.469 61.3711L188.617 60.9609L193.266 59.3477L194.359 58.9648L194.688 60.0586ZM222.359 72.5C222.359 72.5547 222.359 72.7005 222.359 72.9375C222.359 73.1745 222.359 73.3659 222.359 73.5117C222.359 73.6393 222.35 73.8216 222.332 74.0586C222.314 74.2956 222.286 74.4961 222.25 74.6602C222.214 74.806 222.15 74.9792 222.059 75.1797C221.986 75.362 221.885 75.5078 221.758 75.6172C221.648 75.7266 221.503 75.8177 221.32 75.8906C221.138 75.9635 220.938 76 220.719 76H220.445C217.073 76 214.548 74.9609 212.871 72.8828C210.775 74.9609 207.658 76 203.52 76H200.676C199.783 76 199.117 75.6628 198.68 74.9883C198.242 74.2956 198.023 73.4661 198.023 72.5V71.9805C198.023 71.3971 198.115 70.8776 198.297 70.4219C198.479 69.9479 198.78 69.556 199.199 69.2461C199.6 68.9362 200.092 68.7812 200.676 68.7812H203.383C206.992 68.7812 208.961 67.8789 209.289 66.0742C209.398 65.4909 209.453 64.7982 209.453 63.9961C209.453 63.1029 209.426 62.2643 209.371 61.4805L209.234 59.2383L209.152 58.1992L210.191 58.0898L214.703 57.543L215.824 57.4336L215.906 58.5547L216.344 64.8984C216.453 66.2839 216.827 67.2773 217.465 67.8789C218.103 68.4805 219.115 68.7812 220.5 68.7812H220.719C220.974 68.7812 221.202 68.8268 221.402 68.918C221.603 68.9909 221.758 69.1185 221.867 69.3008C221.977 69.4831 222.068 69.6562 222.141 69.8203C222.232 69.9661 222.286 70.1849 222.305 70.4766C222.341 70.75 222.359 70.9505 222.359 71.0781C222.359 71.2057 222.359 71.4245 222.359 71.7344C222.359 72.026 222.359 72.1901 222.359 72.2266V72.5ZM200.238 47.6445L204.203 43.6523L204.613 43.2422L205.023 43.6523L209.043 47.6719L209.07 47.6992L209.125 47.6445L213.117 43.6523L213.527 43.2422L213.938 43.6523L217.93 47.6719L218.34 48.082L217.93 48.4922L213.965 52.457L213.555 52.8672L213.145 52.457L209.125 48.4648L209.098 48.4375L209.043 48.4922L205.051 52.457L204.641 52.8672L204.258 52.457L200.238 48.4648L199.828 48.0547L200.238 47.6445ZM241.992 72.5C241.992 72.5547 241.992 72.7005 241.992 72.9375C241.992 73.1745 241.992 73.3659 241.992 73.5117C241.992 73.6393 241.983 73.8216 241.965 74.0586C241.947 74.2956 241.919 74.4961 241.883 74.6602C241.846 74.806 241.783 74.9792 241.691 75.1797C241.618 75.362 241.518 75.5078 241.391 75.6172C241.281 75.7266 241.135 75.8177 240.953 75.8906C240.771 75.9635 240.57 76 240.352 76H240.078C236.706 76 234.181 74.9609 232.504 72.8828C230.408 74.9609 227.29 76 223.152 76H220.309C219.415 76 218.75 75.6628 218.312 74.9883C217.875 74.2956 217.656 73.4661 217.656 72.5V71.9805C217.656 71.3971 217.747 70.8776 217.93 70.4219C218.112 69.9479 218.413 69.556 218.832 69.2461C219.233 68.9362 219.725 68.7812 220.309 68.7812H223.016C226.625 68.7812 228.594 67.8789 228.922 66.0742C229.031 65.4909 229.086 64.7982 229.086 63.9961C229.086 63.1029 229.059 62.2643 229.004 61.4805L228.867 59.2383L228.785 58.1992L229.824 58.0898L234.336 57.543L235.457 57.4336L235.539 58.5547L235.977 64.8984C236.086 66.2839 236.46 67.2773 237.098 67.8789C237.736 68.4805 238.747 68.7812 240.133 68.7812H240.352C240.607 68.7812 240.835 68.8268 241.035 68.918C241.236 68.9909 241.391 69.1185 241.5 69.3008C241.609 69.4831 241.701 69.6562 241.773 69.8203C241.865 69.9661 241.919 70.1849 241.938 70.4766C241.974 70.75 241.992 70.9505 241.992 71.0781C241.992 71.2057 241.992 71.4245 241.992 71.7344C241.992 72.026 241.992 72.1901 241.992 72.2266V72.5ZM226.242 47.6992L230.234 43.707L230.645 43.2969L231.055 43.707L235.047 47.7266L235.457 48.1367L235.047 48.5469L231.082 52.5117L230.672 52.9219L230.262 52.5117L226.242 48.5195L225.832 48.1094L226.242 47.6992ZM257.387 56.1211C258.663 57.4883 259.62 58.9466 260.258 60.4961C260.896 62.0456 261.197 63.6589 261.16 65.3359C261.105 68.9271 259.583 71.6068 256.594 73.375C253.622 75.125 249.384 76 243.879 76H239.969C239.076 76 238.41 75.6628 237.973 74.9883C237.517 74.3138 237.289 73.4844 237.289 72.5V71.9805C237.289 71.0872 237.526 70.3307 238 69.7109C238.456 69.0911 239.112 68.7812 239.969 68.7812H243.852C250.633 68.763 254.042 67.3867 254.078 64.6523C254.078 63.1758 253.249 61.6628 251.59 60.1133C250.204 58.819 248.892 57.6432 247.652 56.5859C246.413 55.5104 245.255 54.5534 244.18 53.7148C241.828 51.8737 240.652 49.8776 240.652 47.7266C240.652 46.3047 241.044 45.0833 241.828 44.0625C242.63 43.0417 243.751 42.2578 245.191 41.7109L264.141 34.5195L265.617 33.9453V35.5312V40.4805V41.2188L264.906 41.4922L248.281 47.6992C252.346 51.1628 255.382 53.9701 257.387 56.1211Z" fill="#EF4444"/>
</svg>
